<svg width="136" height="44" viewBox="0 0 136 44" fill="none" xmlns="http://www.w3.org/2000/svg">
<path d="M0.911133 42.9202H1.01263C1.1209 42.9202 1.21562 42.8864 1.29682 42.8188C1.37802 42.7376 1.44569 42.6428 1.49982 42.5346C1.55396 42.4128 1.59455 42.291 1.62162 42.1692C1.64869 42.0338 1.66222 41.912 1.66222 41.8038V30.9841C1.66222 30.8894 1.64193 30.7811 1.60133 30.6593C1.57426 30.5375 1.53365 30.4225 1.47952 30.3142C1.42539 30.206 1.35773 30.118 1.27653 30.0503C1.19533 29.9691 1.10737 29.9285 1.01263 29.9285H0.911133V29.7255H11.3045V29.9285H11.1421C11.0474 29.9285 10.9662 29.9691 10.8985 30.0503C10.8309 30.118 10.77 30.2127 10.7158 30.3345C10.6752 30.4428 10.6414 30.5578 10.6143 30.6796C10.5873 30.8014 10.5737 30.9029 10.5737 30.9841V41.8038C10.5737 41.912 10.5805 42.0271 10.594 42.1489C10.6211 42.2707 10.6549 42.3925 10.6955 42.5143C10.7497 42.6225 10.8105 42.7173 10.8782 42.7985C10.9594 42.8797 11.0474 42.9202 11.1421 42.9202H11.3045V43.1232H8.46258V42.9202H8.64527C8.74 42.9202 8.8212 42.8797 8.88886 42.7985C8.97006 42.7173 9.03096 42.6225 9.07156 42.5143C9.12569 42.406 9.15952 42.291 9.17306 42.1692C9.20012 42.0338 9.21366 41.912 9.21366 41.8038V30.436H3.02229V41.8038C3.02229 41.912 3.03582 42.0338 3.06289 42.1692C3.08996 42.291 3.12379 42.406 3.16439 42.5143C3.21852 42.6225 3.28618 42.7173 3.36738 42.7985C3.44858 42.8797 3.54331 42.9202 3.65157 42.9202H3.75307V43.1232H0.911133V42.9202Z" fill="white"/>
<path d="M13.2212 29.7255H16.1038C17.606 29.7255 18.7427 30.0165 19.5141 30.5984C20.299 31.1668 20.6915 31.9788 20.6915 33.0344C20.6915 33.6027 20.5561 34.1102 20.2855 34.5568C20.0148 35.0034 19.6562 35.3823 19.2096 35.6936C18.7766 35.9913 18.2826 36.2214 17.7277 36.3838C17.1864 36.5462 16.6451 36.6274 16.1038 36.6274H15.3324V41.8038C15.3324 41.912 15.3459 42.0338 15.373 42.1692C15.4 42.291 15.4407 42.406 15.4948 42.5143C15.5625 42.6225 15.6301 42.7173 15.6978 42.7985C15.779 42.8797 15.8737 42.9202 15.982 42.9202H16.0835V43.1232H13.2212V42.9202H13.3227C13.4175 42.9202 13.5054 42.8797 13.5866 42.7985C13.6678 42.7173 13.7355 42.6225 13.7896 42.5143C13.8438 42.406 13.8843 42.291 13.9114 42.1692C13.9385 42.0338 13.952 41.912 13.952 41.8038V30.9841C13.952 30.7946 13.8979 30.5781 13.7896 30.3345C13.6814 30.0909 13.5257 29.9556 13.3227 29.9285H13.2212V29.7255ZM15.3324 30.436V35.9169H15.9414C16.4827 35.9169 16.9631 35.8425 17.3827 35.6936C17.8157 35.5447 18.1743 35.3485 18.4585 35.1049C18.7427 34.8613 18.9593 34.5839 19.1081 34.2726C19.257 33.9614 19.3314 33.6433 19.3314 33.3186C19.3314 32.9261 19.2637 32.5607 19.1284 32.2224C19.0066 31.8705 18.7969 31.566 18.4991 31.3089C18.2149 31.0382 17.836 30.8285 17.3624 30.6796C16.8887 30.5172 16.3068 30.436 15.6166 30.436H15.3324Z" fill="white"/>
<path d="M29.2609 29.5225C30.3165 29.5225 31.2638 29.712 32.1029 30.0909C32.9419 30.4563 33.6524 30.957 34.2343 31.5931C34.8298 32.2156 35.2831 32.9464 35.5944 33.7854C35.9192 34.611 36.0816 35.4771 36.0816 36.3838C36.0816 37.3988 35.8921 38.3325 35.5132 39.1851C35.1478 40.0377 34.6403 40.7685 33.9907 41.3775C33.3411 41.9865 32.5833 42.4669 31.7172 42.8188C30.8646 43.1571 29.9511 43.3262 28.9767 43.3262C27.9347 43.3262 26.9941 43.1368 26.1551 42.7579C25.3296 42.3789 24.6258 41.8782 24.0439 41.2557C23.4755 40.6332 23.0357 39.9159 22.7244 39.1039C22.4132 38.2919 22.2576 37.4461 22.2576 36.5665C22.2576 35.7004 22.4132 34.8478 22.7244 34.0087C23.0357 33.1562 23.4891 32.3983 24.0845 31.7352C24.6935 31.0721 25.4311 30.5375 26.2972 30.1315C27.1633 29.7255 28.1512 29.5225 29.2609 29.5225ZM29.2406 42.6158C30.1473 42.5752 30.939 42.3722 31.6157 42.0068C32.3058 41.6278 32.881 41.1542 33.3411 40.5858C33.8012 40.0039 34.1396 39.3678 34.3561 38.6776C34.5862 37.9875 34.7012 37.304 34.7012 36.6274C34.7012 35.8831 34.5659 35.132 34.2952 34.3741C34.0245 33.6163 33.6389 32.9329 33.1381 32.3239C32.6374 31.7014 32.0352 31.2006 31.3315 30.8217C30.6413 30.4292 29.8631 30.233 28.997 30.233C28.158 30.233 27.4069 30.4225 26.7438 30.8014C26.0806 31.1668 25.5123 31.6405 25.0386 32.2224C24.5785 32.8043 24.2266 33.4539 23.983 34.1711C23.7394 34.8884 23.6176 35.5921 23.6176 36.2823C23.6176 37.0266 23.7597 37.7777 24.0439 38.5355C24.3281 39.2799 24.7206 39.9565 25.2213 40.5655C25.722 41.1745 26.3107 41.6684 26.9874 42.0474C27.6775 42.4263 28.4286 42.6158 29.2406 42.6158Z" fill="white"/>
<path d="M44.4531 30.2533C43.4516 30.2533 42.5788 30.436 41.8344 30.8014C41.1036 31.1533 40.4947 31.6202 40.0075 32.2021C39.5203 32.7705 39.1549 33.4133 38.9113 34.1305C38.6812 34.8478 38.5662 35.5583 38.5662 36.262C38.5662 37.0604 38.7218 37.8454 39.0331 38.6167C39.3443 39.3746 39.7707 40.0512 40.312 40.6467C40.8668 41.2286 41.5096 41.7023 42.2404 42.0677C42.9712 42.4195 43.7629 42.5955 44.6155 42.5955C44.8591 42.5955 45.1433 42.5684 45.4681 42.5143C45.8064 42.4601 46.1379 42.3586 46.4627 42.2098C46.7875 42.0474 47.0853 41.8241 47.3559 41.5399C47.6401 41.2557 47.8566 40.8835 48.0055 40.4234H48.2085V42.6767C48.0055 42.6767 47.789 42.7037 47.5589 42.7579C47.3424 42.812 47.0988 42.8729 46.8281 42.9406C46.4763 43.0353 46.0838 43.1232 45.6507 43.2044C45.2312 43.2856 44.7846 43.3262 44.311 43.3262C43.1336 43.3262 42.0983 43.1232 41.2051 42.7173C40.312 42.3113 39.5676 41.7835 38.9722 41.1339C38.3767 40.4843 37.9301 39.7535 37.6324 38.9415C37.3347 38.116 37.1858 37.2837 37.1858 36.4447C37.1858 35.6056 37.3347 34.7734 37.6324 33.9478C37.9301 33.1223 38.3835 32.3848 38.9925 31.7352C39.6015 31.0721 40.3661 30.5375 41.2863 30.1315C42.2066 29.7255 43.2892 29.5225 44.5343 29.5225C44.9809 29.5225 45.3801 29.5631 45.7319 29.6443C46.0973 29.7255 46.4221 29.8067 46.7063 29.8879C46.9093 29.9556 47.092 30.0097 47.2544 30.0503C47.4303 30.0774 47.5995 30.0909 47.7619 30.0909V32.3442H47.5589C47.4777 31.9246 47.3288 31.5796 47.1123 31.3089C46.8958 31.0247 46.6387 30.8082 46.3409 30.6593C46.0567 30.5104 45.7455 30.4089 45.4072 30.3548C45.0824 30.2872 44.7643 30.2533 44.4531 30.2533Z" fill="white"/>
<path d="M54.8729 42.9202H54.9744V43.1232H52.0919V42.9202H52.1934C52.3017 42.9202 52.3964 42.8797 52.4776 42.7985C52.5588 42.7173 52.6264 42.6225 52.6806 42.5143C52.7482 42.406 52.7956 42.291 52.8227 42.1692C52.8498 42.0338 52.8633 41.912 52.8633 41.8038V30.4766H50.5085C50.292 30.4766 50.1025 30.524 49.9401 30.6187C49.7777 30.7134 49.6424 30.8352 49.5341 30.9841C49.4259 31.1194 49.3447 31.2751 49.2906 31.451C49.2364 31.6134 49.2094 31.7758 49.2094 31.9382H49.0064V29.7255H58.1209V31.9382H57.9179C57.9179 31.7758 57.8908 31.6134 57.8367 31.451C57.7825 31.2751 57.7013 31.1194 57.5931 30.9841C57.4848 30.8352 57.3495 30.7134 57.1871 30.6187C57.0247 30.524 56.8352 30.4766 56.6187 30.4766H54.2234V41.8038C54.2234 41.912 54.2369 42.0338 54.264 42.1692C54.291 42.291 54.3316 42.406 54.3857 42.5143C54.4534 42.6225 54.5211 42.7173 54.5887 42.7985C54.6699 42.8797 54.7647 42.9202 54.8729 42.9202Z" fill="white"/>
<path d="M59.2124 29.7255H62.095C63.5971 29.7255 64.7339 30.0165 65.5053 30.5984C66.2902 31.1668 66.6827 31.9788 66.6827 33.0344C66.6827 33.6027 66.5474 34.1102 66.2767 34.5568C66.006 35.0034 65.6474 35.3823 65.2008 35.6936C64.7678 35.9913 64.2738 36.2214 63.719 36.3838C63.1776 36.5462 62.6363 36.6274 62.095 36.6274H61.3236V41.8038C61.3236 41.912 61.3371 42.0338 61.3642 42.1692C61.3913 42.291 61.4319 42.406 61.486 42.5143C61.5537 42.6225 61.6213 42.7173 61.689 42.7985C61.7702 42.8797 61.8649 42.9202 61.9732 42.9202H62.0747V43.1232H59.2124V42.9202H59.3139C59.4087 42.9202 59.4966 42.8797 59.5778 42.7985C59.659 42.7173 59.7267 42.6225 59.7808 42.5143C59.835 42.406 59.8756 42.291 59.9026 42.1692C59.9297 42.0338 59.9432 41.912 59.9432 41.8038V30.9841C59.9432 30.7946 59.8891 30.5781 59.7808 30.3345C59.6726 30.0909 59.5169 29.9556 59.3139 29.9285H59.2124V29.7255ZM61.3236 30.436V35.9169H61.9326C62.4739 35.9169 62.9543 35.8425 63.3739 35.6936C63.8069 35.5447 64.1655 35.3485 64.4497 35.1049C64.7339 34.8613 64.9504 34.5839 65.0993 34.2726C65.2482 33.9614 65.3226 33.6433 65.3226 33.3186C65.3226 32.9261 65.255 32.5607 65.1196 32.2224C64.9978 31.8705 64.7881 31.566 64.4903 31.3089C64.2061 31.0382 63.8272 30.8285 63.3536 30.6796C62.8799 30.5172 62.298 30.436 61.6078 30.436H61.3236Z" fill="white"/>
<path d="M73.0929 42.9202H73.1944C73.5192 42.9202 73.6816 42.7714 73.6816 42.4737C73.6816 42.3654 73.6613 42.2504 73.6207 42.1286L71.7937 37.1958H68.2413L66.4753 42.0474C66.4347 42.1556 66.4143 42.2571 66.4143 42.3519C66.4143 42.5278 66.4617 42.6699 66.5564 42.7782C66.6512 42.8729 66.7527 42.9202 66.8609 42.9202H66.9624V43.1232H64.7092V42.9202H64.8107C64.9866 42.9202 65.1558 42.8188 65.3182 42.6158C65.4941 42.3992 65.6362 42.1489 65.7445 41.8647L70.3931 29.4819L74.9402 41.7429C75.0349 42.0135 75.1635 42.2774 75.3259 42.5346C75.5018 42.7917 75.7251 42.9202 75.9958 42.9202H76.0972V43.1232H73.0929V42.9202ZM68.4443 36.5056H71.5704L70.0074 32.263L68.4443 36.5056Z" fill="white"/>
<path d="M85.4116 42.9202H85.5131C85.6078 42.9202 85.6958 42.8864 85.777 42.8188C85.8582 42.7376 85.9258 42.6428 85.98 42.5346C86.0476 42.4128 86.095 42.291 86.1221 42.1692C86.1491 42.0338 86.1627 41.912 86.1627 41.8038V36.2823H79.6668V41.8038C79.6668 41.912 79.6803 42.0338 79.7074 42.1692C79.7345 42.291 79.7751 42.406 79.8292 42.5143C79.8833 42.6225 79.9442 42.7173 80.0119 42.7985C80.0931 42.8797 80.1878 42.9202 80.2961 42.9202H80.3976V43.1232H77.5556V42.9202H77.6571C77.7519 42.9202 77.8398 42.8864 77.921 42.8188C78.0022 42.7376 78.0699 42.6428 78.124 42.5346C78.1917 42.4128 78.2391 42.291 78.2661 42.1692C78.2932 42.0338 78.3067 41.912 78.3067 41.8038V30.9841C78.3067 30.8894 78.2932 30.7811 78.2661 30.6593C78.2391 30.5375 78.1985 30.4225 78.1443 30.3142C78.0902 30.206 78.0225 30.118 77.9413 30.0503C77.8601 29.9691 77.7654 29.9285 77.6571 29.9285H77.5556V29.7255H80.3976V29.9285H80.2961C80.1878 29.9285 80.0931 29.9691 80.0119 30.0503C79.9307 30.118 79.863 30.206 79.8089 30.3142C79.7683 30.4225 79.7345 30.5375 79.7074 30.6593C79.6803 30.7811 79.6668 30.8894 79.6668 30.9841V35.5718H86.1627V30.9841C86.1627 30.8894 86.1491 30.7811 86.1221 30.6593C86.095 30.5375 86.0544 30.4225 86.0003 30.3142C85.9461 30.206 85.8785 30.118 85.7973 30.0503C85.7161 29.9691 85.6213 29.9285 85.5131 29.9285H85.4116V29.7255H88.2535V29.9285H88.152C88.0438 29.9285 87.949 29.9691 87.8678 30.0503C87.7866 30.118 87.7189 30.206 87.6648 30.3142C87.6242 30.4225 87.5904 30.5375 87.5633 30.6593C87.5363 30.7811 87.5227 30.8894 87.5227 30.9841V41.8038C87.5227 41.912 87.5363 42.0338 87.5633 42.1692C87.6039 42.291 87.6513 42.406 87.7054 42.5143C87.7596 42.6225 87.8204 42.7173 87.8881 42.7985C87.9693 42.8797 88.0573 42.9202 88.152 42.9202H88.2535V43.1232H85.4116V42.9202Z" fill="white"/>
<path d="M97.0852 30.2533C96.0838 30.2533 95.2109 30.436 94.4666 30.8014C93.7358 31.1533 93.1268 31.6202 92.6397 32.2021C92.1525 32.7705 91.7871 33.4133 91.5435 34.1305C91.3134 34.8478 91.1984 35.5583 91.1984 36.262C91.1984 37.0604 91.354 37.8454 91.6653 38.6167C91.9765 39.3746 92.4028 40.0512 92.9441 40.6467C93.499 41.2286 94.1418 41.7023 94.8726 42.0677C95.6034 42.4195 96.3951 42.5955 97.2476 42.5955C97.4912 42.5955 97.7754 42.5684 98.1002 42.5143C98.4385 42.4601 98.7701 42.3586 99.0949 42.2098C99.4197 42.0474 99.7174 41.8241 99.9881 41.5399C100.272 41.2557 100.489 40.8835 100.638 40.4234H100.841V42.6767C100.638 42.6767 100.421 42.7037 100.191 42.7579C99.9745 42.812 99.731 42.8729 99.4603 42.9406C99.1084 43.0353 98.716 43.1232 98.2829 43.2044C97.8634 43.2856 97.4168 43.3262 96.9432 43.3262C95.7658 43.3262 94.7305 43.1232 93.8373 42.7173C92.9441 42.3113 92.1998 41.7835 91.6044 41.1339C91.0089 40.4843 90.5623 39.7535 90.2646 38.9415C89.9669 38.116 89.818 37.2837 89.818 36.4447C89.818 35.6056 89.9669 34.7734 90.2646 33.9478C90.5623 33.1223 91.0157 32.3848 91.6247 31.7352C92.2336 31.0721 92.9983 30.5375 93.9185 30.1315C94.8388 29.7255 95.9214 29.5225 97.1664 29.5225C97.613 29.5225 98.0123 29.5631 98.3641 29.6443C98.7295 29.7255 99.0543 29.8067 99.3385 29.8879C99.5415 29.9556 99.7242 30.0097 99.8866 30.0503C100.063 30.0774 100.232 30.0909 100.394 30.0909V32.3442H100.191C100.11 31.9246 99.961 31.5796 99.7445 31.3089C99.528 31.0247 99.2709 30.8082 98.9731 30.6593C98.6889 30.5104 98.3777 30.4089 98.0393 30.3548C97.7145 30.2872 97.3965 30.2533 97.0852 30.2533Z" fill="white"/>
<path d="M107.505 42.9202H107.607V43.1232H104.724V42.9202H104.826C104.934 42.9202 105.029 42.8797 105.11 42.7985C105.191 42.7173 105.259 42.6225 105.313 42.5143C105.38 42.406 105.428 42.291 105.455 42.1692C105.482 42.0338 105.495 41.912 105.495 41.8038V30.4766H103.141C102.924 30.4766 102.735 30.524 102.572 30.6187C102.41 30.7134 102.275 30.8352 102.166 30.9841C102.058 31.1194 101.977 31.2751 101.923 31.451C101.869 31.6134 101.842 31.7758 101.842 31.9382H101.639V29.7255H110.753V31.9382H110.55C110.55 31.7758 110.523 31.6134 110.469 31.451C110.415 31.2751 110.334 31.1194 110.225 30.9841C110.117 30.8352 109.982 30.7134 109.819 30.6187C109.657 30.524 109.467 30.4766 109.251 30.4766H106.856V41.8038C106.856 41.912 106.869 42.0338 106.896 42.1692C106.923 42.291 106.964 42.406 107.018 42.5143C107.086 42.6225 107.153 42.7173 107.221 42.7985C107.302 42.8797 107.397 42.9202 107.505 42.9202Z" fill="white"/>
<path d="M111.865 42.9202H111.966C112.061 42.9202 112.149 42.8797 112.23 42.7985C112.312 42.7173 112.379 42.6225 112.433 42.5143C112.501 42.406 112.548 42.291 112.575 42.1692C112.602 42.0338 112.616 41.912 112.616 41.8038V31.0044C112.616 30.9097 112.602 30.8014 112.575 30.6796C112.548 30.5578 112.501 30.4428 112.433 30.3345C112.379 30.2127 112.305 30.118 112.21 30.0503C112.129 29.9691 112.034 29.9285 111.926 29.9285H111.824V29.7255H115.153C116.412 29.7255 117.393 30.003 118.097 30.5578C118.814 31.1127 119.173 31.8502 119.173 32.7705C119.173 33.1629 119.105 33.5148 118.97 33.826C118.834 34.1373 118.659 34.4147 118.442 34.6583C118.239 34.9019 118.016 35.1117 117.772 35.2876C117.528 35.45 117.298 35.5853 117.082 35.6936C117.65 35.8019 118.124 35.9846 118.503 36.2417C118.882 36.4988 119.186 36.7965 119.416 37.1349C119.66 37.4597 119.829 37.8115 119.924 38.1905C120.019 38.5694 120.066 38.9415 120.066 39.3069C120.066 40.0106 119.937 40.6061 119.68 41.0933C119.423 41.5669 119.078 41.9594 118.645 42.2707C118.225 42.5684 117.738 42.7849 117.183 42.9202C116.642 43.0556 116.08 43.1232 115.499 43.1232H111.865V42.9202ZM118.686 39.4287C118.577 38.3867 118.225 37.5815 117.63 37.0131C117.035 36.4447 116.196 36.1605 115.113 36.1605H113.976V42.4534H115.153C116.25 42.4534 117.109 42.2098 117.731 41.7226C118.368 41.2219 118.686 40.5317 118.686 39.652V39.4287ZM117.853 32.9532C117.813 32.1682 117.535 31.5457 117.021 31.0856C116.52 30.6255 115.844 30.3954 114.991 30.3954H113.976V35.5109H115.032C115.6 35.5109 116.06 35.4365 116.412 35.2876C116.777 35.1387 117.068 34.9493 117.285 34.7192C117.501 34.4756 117.65 34.2117 117.731 33.9275C117.813 33.6433 117.853 33.3659 117.853 33.0953V32.9532Z" fill="white"/>
<path d="M128.638 29.5225C129.693 29.5225 130.641 29.712 131.48 30.0909C132.319 30.4563 133.029 30.957 133.611 31.5931C134.206 32.2156 134.66 32.9464 134.971 33.7854C135.296 34.611 135.458 35.4771 135.458 36.3838C135.458 37.3988 135.269 38.3325 134.89 39.1851C134.524 40.0377 134.017 40.7685 133.367 41.3775C132.718 41.9865 131.96 42.4669 131.094 42.8188C130.241 43.1571 129.328 43.3262 128.353 43.3262C127.311 43.3262 126.371 43.1368 125.532 42.7579C124.706 42.3789 124.003 41.8782 123.421 41.2557C122.852 40.6332 122.412 39.9159 122.101 39.1039C121.79 38.2919 121.634 37.4461 121.634 36.5665C121.634 35.7004 121.79 34.8478 122.101 34.0087C122.412 33.1562 122.866 32.3983 123.461 31.7352C124.07 31.0721 124.808 30.5375 125.674 30.1315C126.54 29.7255 127.528 29.5225 128.638 29.5225ZM128.617 42.6158C129.524 42.5752 130.316 42.3722 130.992 42.0068C131.683 41.6278 132.258 41.1542 132.718 40.5858C133.178 40.0039 133.516 39.3678 133.733 38.6776C133.963 37.9875 134.078 37.304 134.078 36.6274C134.078 35.8831 133.943 35.132 133.672 34.3741C133.401 33.6163 133.016 32.9329 132.515 32.3239C132.014 31.7014 131.412 31.2006 130.708 30.8217C130.018 30.4292 129.24 30.233 128.374 30.233C127.535 30.233 126.784 30.4225 126.12 30.8014C125.457 31.1668 124.889 31.6405 124.415 32.2224C123.955 32.8043 123.603 33.4539 123.36 34.1711C123.116 34.8884 122.994 35.5921 122.994 36.2823C122.994 37.0266 123.136 37.7777 123.421 38.5355C123.705 39.2799 124.097 39.9565 124.598 40.5655C125.099 41.1745 125.687 41.6684 126.364 42.0474C127.054 42.4263 127.805 42.6158 128.617 42.6158Z" fill="white"/>
<path d="M26.9188 3.67161L26.7998 3.75091C27.3417 4.67602 27.6126 5.78615 27.6126 7.08131V7.81479L27.573 7.93373C27.6523 7.9073 27.7051 7.89408 27.7316 7.89408L27.91 7.85443C29.5355 7.45796 31.0421 6.96897 32.4298 6.38747C33.8967 5.76633 35.0531 5.14518 35.899 4.52404C37.0091 3.65179 37.5641 2.85223 37.5641 2.12536C37.5641 1.75531 37.3923 1.47117 37.0487 1.27293C36.6787 1.08791 36.1633 0.995401 35.5025 0.995401C33.15 0.995401 30.2888 1.88747 26.9188 3.67161ZM26.443 3.94915C25.6765 4.37205 24.8307 4.92051 23.9056 5.59452C23.073 6.20245 22.1346 6.94915 21.0906 7.83461C20.1787 8.60113 19.4584 9.26853 18.9298 9.83681L19.3263 9.75752L20.4364 9.51963L21.725 9.28175C21.8968 9.22888 22.128 9.16941 22.4188 9.10333C22.6831 9.03725 22.9805 8.97778 23.3109 8.92492C23.4827 8.88527 23.6016 8.85884 23.6677 8.84562C23.7338 8.83241 23.8461 8.80598 24.0047 8.76633C24.1633 8.72668 24.3087 8.69364 24.4408 8.66721L25.8285 8.35003L27.1765 8.01303C27.2029 7.77514 27.2161 7.491 27.2161 7.1606C27.2161 6.01082 26.9584 4.94034 26.443 3.94915ZM11.1787 23.2377V23.3566C11.1787 24.5329 11.5025 25.4514 12.15 26.1122C12.7976 26.7994 13.6633 27.143 14.747 27.143C15.8439 27.143 16.9937 26.8258 18.1963 26.1914C19.3725 25.5835 20.5619 24.6782 21.7646 23.4756C23.0201 22.2201 24.0443 20.839 24.8373 19.3324C25.6302 17.8258 26.0267 16.5042 26.0267 15.3677C26.0267 14.6408 25.8417 14.0329 25.4716 13.5439L25.432 13.6628C24.5862 14.8655 23.7668 15.8831 22.9738 16.7157C22.0884 17.654 21.1897 18.4602 20.2778 19.1342C19.4056 19.8082 18.3615 20.4756 17.1456 21.1364C15.9959 21.7443 14.9254 22.2201 13.9342 22.5637C12.9562 22.9073 12.0377 23.132 11.1787 23.2377ZM10.6038 22.8809H10.7227C10.7624 20.9514 11.2712 18.9756 12.2492 16.9536C13.2271 14.9447 14.6148 12.9822 16.4122 11.0659L16.4915 10.9866C14.4166 11.5549 12.5531 12.3214 10.9011 13.2862C9.27559 14.2377 8.00026 15.2751 7.07515 16.3985C6.15004 17.5218 5.68749 18.6518 5.68749 19.7884C5.68749 20.7531 6.05093 21.5196 6.7778 22.0879C7.50467 22.6694 8.46943 22.9602 9.67207 22.9602C9.87031 22.9602 10.1809 22.9337 10.6038 22.8809ZM25.432 12.8897C25.4452 12.85 25.465 12.8038 25.4915 12.7509C25.5047 12.7377 25.5245 12.7047 25.5509 12.6518C26.3307 11.3038 26.8593 9.92272 27.1368 8.50862H26.9981L24.5399 9.10333C23.5752 9.31479 22.6633 9.50642 21.8042 9.67822L20.2778 10.0152C20.2646 10.0152 19.7227 10.1342 18.6523 10.3721L18.3549 10.4117L18.0774 10.6892C17.3901 11.4558 16.736 12.2223 16.1148 12.9888C15.5069 13.7553 14.9584 14.4954 14.4694 15.2091C13.9937 15.9095 13.5575 16.5967 13.1611 17.2707C12.0113 19.2796 11.3637 21.1364 11.2183 22.8412C12.8703 22.5769 14.6016 21.9888 16.4122 21.0769C17.2316 20.6672 18.084 20.165 18.9694 19.5703C19.8549 18.9624 20.6677 18.328 21.4078 17.6672C22.1479 17.0196 22.8285 16.3324 23.4496 15.6055C24.084 14.8787 24.6457 14.1188 25.1346 13.3258L25.1743 13.2069C24.7382 12.8104 24.1435 12.6121 23.3902 12.6121C22.4518 12.6121 21.4871 12.8897 20.4959 13.4447C19.4915 14.0262 18.5664 14.8192 17.7205 15.8236C16.8483 16.8412 16.1016 18.0174 15.4804 19.3522L15.1434 19.2531C15.6192 17.9712 16.3197 16.8016 17.2448 15.7443C18.1567 14.6606 19.1743 13.8082 20.2976 13.187C21.4342 12.5527 22.4915 12.2355 23.4694 12.2355C24.2624 12.2355 24.9166 12.4536 25.432 12.8897ZM25.7095 13.2069C26.2778 13.9337 26.562 14.8456 26.562 15.9425C26.562 16.7487 26.3968 17.5879 26.0664 18.4602C25.736 19.3324 25.2536 20.2311 24.6192 21.1562C23.9716 22.0681 23.1853 22.9668 22.2602 23.8522C19.6434 26.3104 17.1523 27.5395 14.7866 27.5395C13.9672 27.5395 13.2668 27.3743 12.6853 27.0439C12.0906 26.7399 11.6214 26.2575 11.2778 25.5967C10.9474 24.9624 10.7624 24.1892 10.7227 23.2773H10.6038C10.1809 23.3302 9.85709 23.3566 9.63242 23.3566C8.33727 23.3566 7.29322 23.0196 6.50026 22.3456C5.6941 21.6981 5.29102 20.8324 5.29102 19.7487C5.29102 17.9117 6.3615 16.1342 8.50247 14.4161C10.6434 12.6848 13.4584 11.3368 16.9474 10.3721H17.0664L17.1456 10.2531C17.8593 9.49981 18.7382 8.70686 19.7822 7.87426C20.8527 7.01523 21.976 6.18924 23.1523 5.39628C24.2756 4.62976 25.2932 4.01523 26.2051 3.55267C25.769 2.95796 25.2139 2.51523 24.5399 2.22448C23.8263 1.92051 23.0267 1.76853 22.1412 1.76853C20.8064 1.76853 19.5509 2.0791 18.3747 2.70025C17.1985 3.30818 16.1809 4.17382 15.3219 5.29716C14.3967 6.49981 13.8945 7.70245 13.8152 8.9051H13.4386C13.5179 7.63637 13.9871 6.41391 14.8461 5.23769C15.7051 4.08791 16.7954 3.1562 18.117 2.44254C19.4518 1.7421 20.8064 1.39188 22.1809 1.39188C24.1765 1.39188 25.6368 2.04606 26.562 3.35443L26.6809 3.31479C27.91 2.68042 29.0399 2.16501 30.0708 1.76853C31.062 1.39849 32.0399 1.10113 33.0047 0.876458C33.943 0.678221 34.7888 0.579102 35.5421 0.579102C36.3086 0.579102 36.9166 0.71126 37.3659 0.975577C37.7888 1.25311 38.0003 1.63637 38.0003 2.12536C38.0003 2.83901 37.584 3.58571 36.7514 4.36545C35.9188 5.13197 34.7293 5.85223 33.1831 6.52624C31.6633 7.21347 29.9188 7.80818 27.9496 8.31038C27.7249 8.36325 27.5862 8.38968 27.5333 8.38968C27.2558 10.0813 26.6479 11.687 25.7095 13.2069Z" fill="white"/>
<path d="M27.8538 11.3862H30.6755V11.5892H30.5537C30.4048 11.5892 30.3033 11.6366 30.2492 11.7313C30.195 11.8125 30.168 11.9005 30.168 11.9952C30.168 12.0629 30.1747 12.1238 30.1883 12.1779C30.2018 12.2321 30.2153 12.2727 30.2289 12.2997L33.7001 19.8918L36.8059 12.523C36.8195 12.496 36.8398 12.4418 36.8668 12.3606C36.8939 12.2659 36.9074 12.1779 36.9074 12.0967C36.9074 11.9073 36.8398 11.7787 36.7044 11.711C36.5691 11.6298 36.4676 11.5892 36.3999 11.5892V11.3862H38.572V11.5892C38.3284 11.5892 38.1389 11.6569 38.0036 11.7922C37.8818 11.914 37.7871 12.0426 37.7194 12.1779L32.8475 23.8299C32.6851 24.2223 32.4686 24.5133 32.1979 24.7028C31.9273 24.8787 31.6363 24.9667 31.325 24.9667C31.1221 24.9667 30.9394 24.9328 30.777 24.8652C30.6146 24.811 30.4725 24.7434 30.3507 24.6622C30.2289 24.581 30.1341 24.5065 30.0665 24.4389C30.0123 24.3712 29.9853 24.3374 29.9853 24.3374L30.4928 23.2209C30.601 23.478 30.7431 23.681 30.9191 23.8299C31.095 23.9652 31.2777 24.0329 31.4671 24.0329C31.5889 24.0329 31.7107 23.9923 31.8325 23.9111C31.9679 23.8163 32.0829 23.6742 32.1776 23.4848L32.9693 21.5563L28.747 12.2388C28.5576 11.8328 28.2598 11.6163 27.8538 11.5892V11.3862Z" fill="white"/>
<path d="M42.8852 11.3862H45.7474V11.5892H45.585C45.4903 11.6028 45.4023 11.6501 45.3211 11.7313C45.2535 11.8125 45.1926 11.9073 45.1384 12.0155C45.0843 12.1238 45.0437 12.2456 45.0166 12.3809C44.9896 12.5027 44.976 12.611 44.976 12.7057V12.8072C45.9098 12.8343 46.7556 12.9899 47.5135 13.2741C48.2849 13.5448 48.948 13.9169 49.5028 14.3906C50.0577 14.8642 50.484 15.4191 50.7817 16.0551C51.093 16.6777 51.2486 17.3543 51.2486 18.0851C51.2486 18.8835 51.0727 19.6076 50.7208 20.2572C50.3825 20.9067 49.9224 21.4616 49.3404 21.9217C48.7585 22.3818 48.0886 22.7472 47.3308 23.0179C46.5865 23.275 45.8015 23.4104 44.976 23.4239V23.5254C44.976 23.6201 44.9896 23.7284 45.0166 23.8502C45.0437 23.972 45.0843 24.087 45.1384 24.1953C45.2061 24.3035 45.2805 24.3983 45.3617 24.4795C45.4429 24.5471 45.5376 24.581 45.6459 24.581H45.7474V24.784H42.8852V24.581H42.9867C43.0814 24.581 43.1694 24.5471 43.2506 24.4795C43.3453 24.3983 43.4197 24.3035 43.4739 24.1953C43.528 24.087 43.5686 23.972 43.5957 23.8502C43.6363 23.7284 43.6566 23.6201 43.6566 23.5254V23.4239C42.7092 23.3968 41.8499 23.248 41.0785 22.9773C40.3071 22.6931 39.644 22.3142 39.0892 21.8405C38.5478 21.3533 38.1215 20.7917 37.8103 20.1557C37.5126 19.5196 37.3637 18.8294 37.3637 18.0851C37.3637 17.3002 37.5261 16.5897 37.8509 15.9536C38.1892 15.3041 38.6426 14.756 39.211 14.3094C39.7793 13.8493 40.4425 13.4906 41.2003 13.2335C41.9717 12.9764 42.7904 12.8343 43.6566 12.8072V12.7057C43.6566 12.611 43.6363 12.5027 43.5957 12.3809C43.5686 12.2456 43.528 12.1238 43.4739 12.0155C43.4197 11.9073 43.3521 11.8125 43.2709 11.7313C43.1897 11.6501 43.1017 11.6028 43.007 11.5892H42.8852V11.3862ZM38.6832 17.8821C38.6832 18.4776 38.8185 19.0662 39.0892 19.6482C39.3734 20.2166 39.7455 20.7308 40.2056 21.1909C40.6658 21.6375 41.1935 22.0029 41.789 22.2871C42.3844 22.5713 43.007 22.7269 43.6566 22.754V13.4771C42.8446 13.4906 42.1273 13.6327 41.5048 13.9034C40.8823 14.174 40.3613 14.5191 39.9417 14.9387C39.5222 15.3447 39.2042 15.8115 38.9877 16.3393C38.7847 16.8536 38.6832 17.3678 38.6832 17.8821ZM49.9088 18.2881C49.9088 17.6926 49.7803 17.1107 49.5231 16.5423C49.266 15.9739 48.9142 15.4665 48.4676 15.0199C48.021 14.5733 47.4999 14.2146 46.9045 13.944C46.309 13.6598 45.6662 13.5042 44.976 13.4771V22.754C45.7339 22.7269 46.4173 22.5848 47.0263 22.3277C47.6353 22.057 48.1495 21.7187 48.569 21.3127C49.0021 20.8932 49.3337 20.4263 49.5637 19.9121C49.7938 19.3843 49.9088 18.843 49.9088 18.2881Z" fill="white"/>
<path d="M61.1075 24.581H61.209C61.3173 24.581 61.412 24.5471 61.4932 24.4795C61.5744 24.3983 61.6421 24.3035 61.6962 24.1953C61.7639 24.0735 61.8112 23.9517 61.8383 23.8299C61.8654 23.6945 61.8789 23.5728 61.8789 23.4645V14.1673L55.1395 23.2818V23.4645C55.1395 23.5728 55.153 23.6945 55.18 23.8299C55.2206 23.9517 55.268 24.0667 55.3222 24.175C55.3763 24.2832 55.4439 24.378 55.5251 24.4592C55.6063 24.5404 55.7011 24.581 55.8093 24.581H55.9108V24.784H53.0283V24.581H53.1298C53.2381 24.581 53.3328 24.5471 53.414 24.4795C53.4952 24.3983 53.5629 24.3035 53.617 24.1953C53.6846 24.0735 53.732 23.9517 53.7591 23.8299C53.7861 23.6945 53.7997 23.5728 53.7997 23.4645V12.6448C53.7997 12.5501 53.7861 12.4418 53.7591 12.32C53.732 12.1982 53.6846 12.0832 53.617 11.9749C53.5629 11.8667 53.4952 11.7787 53.414 11.711C53.3328 11.6298 53.2381 11.5892 53.1298 11.5892H53.0283V11.3862H55.9108V11.5892H55.7484C55.6537 11.6028 55.5657 11.6501 55.4845 11.7313C55.4169 11.8125 55.356 11.9073 55.3018 12.0155C55.2477 12.1103 55.2071 12.2185 55.18 12.3403C55.153 12.4486 55.1395 12.5501 55.1395 12.6448V22.0232L61.8789 12.9087V12.6448C61.8789 12.5501 61.8654 12.4418 61.8383 12.32C61.8112 12.1982 61.7639 12.0832 61.6962 11.9749C61.6421 11.8667 61.5744 11.7787 61.4932 11.711C61.412 11.6298 61.3173 11.5892 61.209 11.5892H61.1075V11.3862H63.9901V11.5892H63.8886C63.7803 11.5892 63.6856 11.6298 63.6044 11.711C63.5232 11.7787 63.4555 11.8667 63.4014 11.9749C63.3473 12.0832 63.2999 12.1982 63.2593 12.32C63.2322 12.4418 63.2187 12.5501 63.2187 12.6448V23.4645C63.2187 23.5728 63.2322 23.6878 63.2593 23.8096C63.2999 23.9314 63.3473 24.0532 63.4014 24.175C63.4555 24.2832 63.5232 24.378 63.6044 24.4592C63.6856 24.5404 63.7803 24.581 63.8886 24.581H63.9901V24.784H61.1075V24.581Z" fill="white"/>
<path d="M73.6479 8.727C73.6479 8.95706 73.5938 9.19389 73.4855 9.43748C73.3773 9.68108 73.2216 9.91114 73.0186 10.1277C72.8292 10.3442 72.5924 10.5201 72.3082 10.6555C72.0375 10.7908 71.733 10.8585 71.3947 10.8585C71.0699 10.8585 70.7654 10.7976 70.4812 10.6758C70.2105 10.5404 69.9737 10.3713 69.7707 10.1683C69.5677 9.96527 69.4053 9.73521 69.2835 9.47808C69.1617 9.22095 69.1008 8.97059 69.1008 8.727H69.2226C69.2362 8.8082 69.2768 8.92323 69.3444 9.07209C69.4256 9.22095 69.5474 9.36982 69.7098 9.51868C69.8722 9.66754 70.0887 9.79611 70.3594 9.90437C70.6301 10.0126 70.9684 10.0668 71.3744 10.0668C71.7939 10.0668 72.1322 10.0126 72.3894 9.90437C72.66 9.79611 72.8765 9.66754 73.0389 9.51868C73.2013 9.36982 73.3164 9.22095 73.384 9.07209C73.4517 8.92323 73.4991 8.8082 73.5261 8.727H73.6479ZM73.993 24.581H74.0945C74.2028 24.581 74.2975 24.5471 74.3787 24.4795C74.4599 24.3983 74.5276 24.3035 74.5817 24.1953C74.6494 24.0735 74.6967 23.9517 74.7238 23.8299C74.7509 23.6945 74.7644 23.5728 74.7644 23.4645V14.1673L68.0249 23.2818V23.4645C68.0249 23.5728 68.0385 23.6945 68.0655 23.8299C68.1061 23.9517 68.1535 24.0667 68.2076 24.175C68.2618 24.2832 68.3294 24.378 68.4106 24.4592C68.4918 24.5404 68.5866 24.581 68.6948 24.581H68.7963V24.784H65.9138V24.581H66.0153C66.1235 24.581 66.2183 24.5471 66.2995 24.4795C66.3807 24.3983 66.4483 24.3035 66.5025 24.1953C66.5701 24.0735 66.6175 23.9517 66.6446 23.8299C66.6716 23.6945 66.6852 23.5728 66.6852 23.4645V12.6448C66.6852 12.5501 66.6716 12.4418 66.6446 12.32C66.6175 12.1982 66.5701 12.0832 66.5025 11.9749C66.4483 11.8667 66.3807 11.7787 66.2995 11.711C66.2183 11.6298 66.1235 11.5892 66.0153 11.5892H65.9138V11.3862H68.7963V11.5892H68.6339C68.5392 11.6028 68.4512 11.6501 68.37 11.7313C68.3024 11.8125 68.2415 11.9073 68.1873 12.0155C68.1332 12.1103 68.0926 12.2185 68.0655 12.3403C68.0385 12.4486 68.0249 12.5501 68.0249 12.6448V22.0232L74.7644 12.9087V12.6448C74.7644 12.5501 74.7509 12.4418 74.7238 12.32C74.6967 12.1982 74.6494 12.0832 74.5817 11.9749C74.5276 11.8667 74.4599 11.7787 74.3787 11.711C74.2975 11.6298 74.2028 11.5892 74.0945 11.5892H73.993V11.3862H76.8756V11.5892H76.7741C76.6658 11.5892 76.5711 11.6298 76.4899 11.711C76.4087 11.7787 76.341 11.8667 76.2869 11.9749C76.2327 12.0832 76.1854 12.1982 76.1448 12.32C76.1177 12.4418 76.1042 12.5501 76.1042 12.6448V23.4645C76.1042 23.5728 76.1177 23.6878 76.1448 23.8096C76.1854 23.9314 76.2327 24.0532 76.2869 24.175C76.341 24.2832 76.4087 24.378 76.4899 24.4592C76.5711 24.5404 76.6658 24.581 76.7741 24.581H76.8756V24.784H73.993V24.581Z" fill="white"/>
<path d="M85.9447 11.914C84.9433 11.914 84.0704 12.0967 83.3261 12.4621C82.5953 12.814 81.9863 13.2809 81.4991 13.8628C81.0119 14.4312 80.6465 15.074 80.4029 15.7912C80.1729 16.5085 80.0578 17.219 80.0578 17.9227C80.0578 18.7212 80.2135 19.5061 80.5247 20.2775C80.836 21.0353 81.2623 21.712 81.8036 22.3074C82.3585 22.8893 83.0013 23.363 83.7321 23.7284C84.4628 24.0802 85.2545 24.2562 86.1071 24.2562C86.3507 24.2562 86.6349 24.2291 86.9597 24.175C87.298 24.1208 87.6296 24.0193 87.9544 23.8705C88.2792 23.7081 88.5769 23.4848 88.8475 23.2006C89.1317 22.9164 89.3483 22.5442 89.4971 22.0841H89.7001V24.3374C89.4971 24.3374 89.2806 24.3644 89.0505 24.4186C88.834 24.4727 88.5904 24.5336 88.3198 24.6013C87.9679 24.696 87.5754 24.784 87.1424 24.8652C86.7229 24.9464 86.2763 24.987 85.8026 24.987C84.6252 24.987 83.59 24.784 82.6968 24.378C81.8036 23.972 81.0593 23.4442 80.4638 22.7946C79.8684 22.145 79.4218 21.4142 79.1241 20.6022C78.8263 19.7767 78.6775 18.9444 78.6775 18.1054C78.6775 17.2663 78.8263 16.4341 79.1241 15.6086C79.4218 14.783 79.8751 14.0455 80.4841 13.3959C81.0931 12.7328 81.8577 12.1982 82.778 11.7922C83.6982 11.3862 84.7809 11.1832 86.0259 11.1832C86.4725 11.1832 86.8717 11.2238 87.2236 11.305C87.589 11.3862 87.9138 11.4674 88.198 11.5486C88.401 11.6163 88.5836 11.6704 88.746 11.711C88.922 11.7381 89.0911 11.7516 89.2535 11.7516V14.0049H89.0505C88.9693 13.5854 88.8205 13.2403 88.604 12.9696C88.3874 12.6854 88.1303 12.4689 87.8326 12.32C87.5484 12.1712 87.2371 12.0697 86.8988 12.0155C86.574 11.9479 86.256 11.914 85.9447 11.914Z" fill="white"/>
<path d="M91.4468 24.581H91.5483C91.6566 24.581 91.7513 24.5404 91.8325 24.4592C91.9137 24.378 91.9814 24.2832 92.0355 24.175C92.1032 24.0667 92.1506 23.9517 92.1776 23.8299C92.2047 23.6945 92.2182 23.5728 92.2182 23.4645V12.6448C92.2182 12.5501 92.2047 12.4418 92.1776 12.32C92.1506 12.1982 92.1032 12.0832 92.0355 11.9749C91.9814 11.8667 91.9137 11.7787 91.8325 11.711C91.7513 11.6298 91.6634 11.5892 91.5686 11.5892H91.4671V11.3862H94.3497V11.5892H94.2482C94.1399 11.5892 94.0452 11.6298 93.964 11.711C93.8828 11.7787 93.8084 11.8667 93.7407 11.9749C93.6866 12.0832 93.6392 12.1982 93.5986 12.32C93.5715 12.4418 93.558 12.5501 93.558 12.6448V16.8468L98.2675 12.1576C98.3758 12.0494 98.4299 11.9208 98.4299 11.7719C98.4299 11.6501 98.3758 11.5892 98.2675 11.5892V11.3862H100.46V11.5892C100.189 11.6028 99.9456 11.684 99.7291 11.8328C99.5261 11.9817 99.3028 12.1779 99.0592 12.4215L94.2482 17.2325C95.1278 17.2596 95.8383 17.449 96.3796 17.8009C96.921 18.1528 97.3473 18.64 97.6585 19.2625L99.2622 22.5104C99.3569 22.7134 99.4787 22.9367 99.6276 23.1803C99.79 23.4104 99.9659 23.6336 100.155 23.8502C100.358 24.0532 100.582 24.2291 100.825 24.378C101.069 24.5133 101.326 24.581 101.597 24.581V24.784H100.582C100.189 24.784 99.8509 24.7298 99.5667 24.6216C99.2825 24.4998 99.0321 24.3441 98.8156 24.1547C98.6126 23.9517 98.4299 23.7284 98.2675 23.4848C98.1186 23.2412 97.9833 22.9976 97.8615 22.754L96.2172 19.4858C95.9601 18.985 95.6015 18.6061 95.1414 18.349C94.6948 18.0783 94.167 17.9295 93.558 17.9024V23.4645C93.558 23.5728 93.5715 23.6878 93.5986 23.8096C93.6257 23.9314 93.6663 24.0532 93.7204 24.175C93.7745 24.2832 93.8422 24.378 93.9234 24.4592C94.0046 24.5268 94.0926 24.5674 94.1873 24.581H94.3294V24.784H91.4468V24.581Z" fill="white"/>
<path d="M108.2 11.1832C109.255 11.1832 110.203 11.3727 111.042 11.7516C111.881 12.117 112.591 12.6177 113.173 13.2538C113.769 13.8763 114.222 14.6071 114.533 15.4462C114.858 16.2717 115.02 17.1378 115.02 18.0445C115.02 19.0595 114.831 19.9933 114.452 20.8458C114.087 21.6984 113.579 22.4292 112.93 23.0382C112.28 23.6472 111.522 24.1276 110.656 24.4795C109.803 24.8178 108.89 24.987 107.916 24.987C106.873 24.987 105.933 24.7975 105.094 24.4186C104.268 24.0396 103.565 23.5389 102.983 22.9164C102.414 22.2939 101.975 21.5766 101.663 20.7646C101.352 19.9527 101.196 19.1068 101.196 18.2272C101.196 17.3611 101.352 16.5085 101.663 15.6695C101.975 14.8169 102.428 14.059 103.023 13.3959C103.632 12.7328 104.37 12.1982 105.236 11.7922C106.102 11.3862 107.09 11.1832 108.2 11.1832ZM108.179 24.2765C109.086 24.2359 109.878 24.0329 110.554 23.6675C111.245 23.2886 111.82 22.8149 112.28 22.2465C112.74 21.6646 113.078 21.0285 113.295 20.3384C113.525 19.6482 113.64 18.9647 113.64 18.2881C113.64 17.5438 113.505 16.7927 113.234 16.0348C112.963 15.277 112.578 14.5936 112.077 13.9846C111.576 13.3621 110.974 12.8613 110.27 12.4824C109.58 12.09 108.802 11.8937 107.936 11.8937C107.097 11.8937 106.346 12.0832 105.683 12.4621C105.019 12.8275 104.451 13.3012 103.977 13.8831C103.517 14.465 103.165 15.1146 102.922 15.8318C102.678 16.5491 102.556 17.2528 102.556 17.943C102.556 18.6873 102.699 19.4384 102.983 20.1963C103.267 20.9406 103.659 21.6172 104.16 22.2262C104.661 22.8352 105.25 23.3292 105.926 23.7081C106.616 24.087 107.367 24.2765 108.179 24.2765Z" fill="white"/>
<path d="M116.802 24.581H116.903C117.011 24.581 117.106 24.5471 117.187 24.4795C117.268 24.3983 117.336 24.3035 117.39 24.1953C117.458 24.087 117.505 23.972 117.532 23.8502C117.573 23.7284 117.593 23.6133 117.593 23.5051V12.6448C117.593 12.5501 117.573 12.4418 117.532 12.32C117.505 12.1982 117.458 12.0832 117.39 11.9749C117.336 11.8667 117.268 11.7787 117.187 11.711C117.106 11.6298 117.011 11.5892 116.903 11.5892H116.802V11.3862H124.617V13.2741H124.414C124.387 12.9628 124.265 12.6922 124.048 12.4621C123.832 12.2185 123.494 12.0967 123.033 12.0967H118.953V17.2325H122.323C122.634 17.2325 122.891 17.1378 123.094 16.9483C123.311 16.7589 123.419 16.5356 123.419 16.2784H123.622V18.8159H123.419C123.419 18.5723 123.318 18.3625 123.115 18.1866C122.912 18.0107 122.648 17.9227 122.323 17.9227H118.953V24.0735H123.399C123.656 24.0735 123.879 24.0126 124.069 23.8908C124.258 23.769 124.414 23.6269 124.536 23.4645C124.671 23.2886 124.766 23.1059 124.82 22.9164C124.887 22.7134 124.921 22.5442 124.921 22.4089H125.124V24.784H116.802V24.581Z" fill="white"/>
<path d="M27.2352 3.67161L27.1162 3.75091C27.6581 4.67602 27.929 5.78615 27.929 7.08131V7.81479L27.8894 7.93373C27.9687 7.9073 28.0215 7.89408 28.048 7.89408L28.2264 7.85443C29.8519 7.45796 31.3585 6.96897 32.7462 6.38747C34.2132 5.76633 35.3696 5.14518 36.2154 4.52404C37.3255 3.65179 37.8806 2.85223 37.8806 2.12536C37.8806 1.75531 37.7088 1.47117 37.3651 1.27293C36.9951 1.08791 36.4797 0.995401 35.8189 0.995401C33.4665 0.995401 30.6052 1.88747 27.2352 3.67161ZM26.7594 3.94915C25.9929 4.37205 25.1471 4.92051 24.222 5.59452C23.3894 6.20245 22.451 6.94915 21.407 7.83461C20.4951 8.60113 19.7748 9.26853 19.2462 9.83681L19.6427 9.75752L20.7528 9.51963L22.0413 9.28175C22.2132 9.22888 22.4444 9.16941 22.7352 9.10333C22.9995 9.03725 23.2969 8.97778 23.6273 8.92492C23.7991 8.88527 23.918 8.85884 23.9841 8.84562C24.0502 8.83241 24.1625 8.80598 24.3211 8.76633C24.4797 8.72668 24.6251 8.69364 24.7572 8.66721L26.1449 8.35003L27.4929 8.01303C27.5193 7.77514 27.5325 7.491 27.5325 7.1606C27.5325 6.01082 27.2748 4.94034 26.7594 3.94915ZM11.4951 23.2377V23.3566C11.4951 24.5329 11.8189 25.4514 12.4665 26.1122C13.114 26.7994 13.9797 27.143 15.0634 27.143C16.1603 27.143 17.3101 26.8258 18.5127 26.1914C19.6889 25.5835 20.8784 24.6782 22.081 23.4756C23.3365 22.2201 24.3607 20.839 25.1537 19.3324C25.9466 17.8258 26.3431 16.5042 26.3431 15.3677C26.3431 14.6408 26.1581 14.0329 25.788 13.5439L25.7484 13.6628C24.9026 14.8655 24.0832 15.8831 23.2902 16.7157C22.4048 17.654 21.5061 18.4602 20.5942 19.1342C19.722 19.8082 18.6779 20.4756 17.4621 21.1364C16.3123 21.7443 15.2418 22.2201 14.2506 22.5637C13.2726 22.9073 12.3541 23.132 11.4951 23.2377ZM10.9202 22.8809H11.0391C11.0788 20.9514 11.5876 18.9756 12.5656 16.9536C13.5435 14.9447 14.9312 12.9822 16.7286 11.0659L16.8079 10.9866C14.733 11.5549 12.8695 12.3214 11.2176 13.2862C9.59201 14.2377 8.31667 15.2751 7.39156 16.3985C6.46645 17.5218 6.0039 18.6518 6.0039 19.7884C6.0039 20.7531 6.36733 21.5196 7.09421 22.0879C7.82108 22.6694 8.78584 22.9602 9.98848 22.9602C10.1867 22.9602 10.4973 22.9337 10.9202 22.8809ZM25.7484 12.8897C25.7616 12.85 25.7814 12.8038 25.8079 12.7509C25.8211 12.7377 25.8409 12.7047 25.8673 12.6518C26.6471 11.3038 27.1757 9.92272 27.4532 8.50862H27.3145L24.8563 9.10333C23.8916 9.31479 22.9797 9.50642 22.1206 9.67822L20.5942 10.0152C20.581 10.0152 20.0391 10.1342 18.9687 10.3721L18.6713 10.4117L18.3938 10.6892C17.7065 11.4558 17.0524 12.2223 16.4312 12.9888C15.8233 13.7553 15.2748 14.4954 14.7858 15.2091C14.3101 15.9095 13.8739 16.5967 13.4775 17.2707C12.3277 19.2795 11.6801 21.1364 11.5347 22.8412C13.1867 22.5769 14.918 21.9888 16.7286 21.0769C17.548 20.6672 18.4004 20.165 19.2858 19.5703C20.1713 18.9624 20.9841 18.328 21.7242 17.6672C22.4643 17.0196 23.1449 16.3324 23.766 15.6055C24.4004 14.8787 24.9621 14.1188 25.451 13.3258L25.4907 13.2069C25.0546 12.8104 24.4599 12.6121 23.7065 12.6121C22.7682 12.6121 21.8035 12.8897 20.8123 13.4447C19.8079 14.0262 18.8828 14.8192 18.0369 15.8236C17.1647 16.8412 16.418 18.0174 15.7969 19.3522L15.4598 19.2531C15.9356 17.9712 16.6361 16.8016 17.5612 15.7443C18.4731 14.6606 19.4907 13.8082 20.614 13.187C21.7506 12.5527 22.8079 12.2355 23.7858 12.2355C24.5788 12.2355 25.233 12.4536 25.7484 12.8897ZM26.0259 13.2069C26.5942 13.9337 26.8784 14.8456 26.8784 15.9425C26.8784 16.7487 26.7132 17.5879 26.3828 18.4602C26.0524 19.3324 25.57 20.2311 24.9356 21.1562C24.288 22.0681 23.5017 22.9668 22.5766 23.8522C19.9599 26.3104 17.4687 27.5395 15.103 27.5395C14.2836 27.5395 13.5832 27.3743 13.0017 27.0439C12.407 26.7399 11.9378 26.2575 11.5942 25.5967C11.2638 24.9624 11.0788 24.1892 11.0391 23.2773H10.9202C10.4973 23.3302 10.1735 23.3566 9.94883 23.3566C8.65368 23.3566 7.60963 23.0196 6.81667 22.3456C6.01051 21.6981 5.60742 20.8324 5.60742 19.7487C5.60742 17.9117 6.67791 16.1342 8.81888 14.4161C10.9598 12.6848 13.7748 11.3368 17.2638 10.3721H17.3828L17.4621 10.2531C18.1757 9.49981 19.0546 8.70686 20.0986 7.87426C21.1691 7.01523 22.2925 6.18924 23.4687 5.39628C24.592 4.62976 25.6096 4.01523 26.5215 3.55267C26.0854 2.95796 25.5303 2.51523 24.8563 2.22448C24.1427 1.92051 23.3431 1.76853 22.4576 1.76853C21.1228 1.76853 19.8673 2.0791 18.6911 2.70025C17.5149 3.30818 16.4973 4.17382 15.6383 5.29716C14.7132 6.49981 14.2109 7.70245 14.1317 8.9051H13.755C13.8343 7.63637 14.3035 6.41391 15.1625 5.23769C16.0215 4.08791 17.1118 3.1562 18.4334 2.44254C19.7682 1.7421 21.1228 1.39188 22.4973 1.39188C24.4929 1.39188 25.9532 2.04606 26.8784 3.35443L26.9973 3.31479C28.2264 2.68042 29.3563 2.16501 30.3872 1.76853C31.3784 1.39849 32.3563 1.10113 33.3211 0.876458C34.2594 0.678221 35.1052 0.579102 35.8585 0.579102C36.6251 0.579102 37.233 0.71126 37.6823 0.975577C38.1052 1.25311 38.3167 1.63637 38.3167 2.12536C38.3167 2.83901 37.9004 3.58571 37.0678 4.36545C36.2352 5.13197 35.0458 5.85223 33.4995 6.52624C31.9797 7.21347 30.2352 7.80818 28.266 8.31038C28.0414 8.36325 27.9026 8.38968 27.8497 8.38968C27.5722 10.0813 26.9643 11.687 26.0259 13.2069Z" fill="white"/>
<path fill-rule="evenodd" clip-rule="evenodd" d="M18.4336 2.44316C19.7684 1.74272 21.123 1.3925 22.4974 1.3925C24.493 1.3925 25.9534 2.04668 26.8785 3.35505L26.9974 3.31541C28.2265 2.68104 29.3565 2.16563 30.3873 1.76915C31.3785 1.39911 32.3565 1.10175 33.3212 0.877079C34.2596 0.678841 35.1054 0.579722 35.8587 0.579722C36.6252 0.579722 37.2331 0.711881 37.6825 0.976198C38.1054 1.25373 38.3168 1.63699 38.3168 2.12598C38.3168 2.83964 37.9005 3.58633 37.0679 4.36607C36.2353 5.13259 35.0459 5.85285 33.4996 6.52686C31.9798 7.21409 30.2353 7.8088 28.2662 8.311C28.0415 8.36387 27.9027 8.3903 27.8499 8.3903C27.5723 10.0819 26.9644 11.6877 26.0261 13.2075C26.5943 13.9344 26.8785 14.8462 26.8785 15.9432C26.8785 16.7493 26.7133 17.5885 26.3829 18.4608C26.0525 19.333 25.5701 20.2317 24.9358 21.1568C24.2882 22.0687 23.5018 22.9674 22.5767 23.8529C19.96 26.311 17.4688 27.5401 15.1032 27.5401C14.2838 27.5401 13.5833 27.3749 13.0018 27.0445C12.4071 26.7405 11.938 26.2581 11.5943 25.5974C11.2639 24.963 11.0789 24.1899 11.0393 23.278H10.9203C10.8985 23.2807 10.8769 23.2834 10.8555 23.286C10.8448 23.2873 10.8342 23.2885 10.8236 23.2898C10.4478 23.3348 10.1562 23.3573 9.94897 23.3573C8.65381 23.3573 7.60976 23.0203 6.81681 22.3463C6.01064 21.6987 5.60755 20.833 5.60755 19.7493C5.60755 17.9123 6.67804 16.1348 8.81901 14.4167C10.96 12.6855 13.775 11.3374 17.2639 10.3727H17.3829L17.4622 10.2537C18.1758 9.50043 19.0547 8.70748 20.0988 7.87488C21.1692 7.01585 22.2926 6.18986 23.4688 5.39691C24.5129 4.68445 25.4657 4.10329 26.3271 3.65344C26.3925 3.6193 26.4573 3.58592 26.5217 3.55329C26.478 3.49381 26.4332 3.43584 26.3872 3.37939C25.9733 2.87153 25.4631 2.48676 24.8565 2.2251C24.1428 1.92113 23.3432 1.76915 22.4578 1.76915C21.123 1.76915 19.8675 2.07972 18.6913 2.70087C17.515 3.3088 16.4974 4.17444 15.6384 5.29779C14.7133 6.50043 14.2111 7.70307 14.1318 8.90572H13.7551C13.7596 8.83358 13.7654 8.7616 13.7724 8.68976C13.889 7.49814 14.3524 6.34765 15.1626 5.23831C16.0217 4.08853 17.112 3.15682 18.4336 2.44316ZM24.7714 2.4236C24.0882 2.13265 23.3181 1.9851 22.4578 1.9851C21.158 1.9851 19.9371 2.28716 18.7921 2.89183L18.7904 2.89272C17.6444 3.48503 16.651 4.32918 15.8099 5.42897L15.8096 5.42946C14.9038 6.60697 14.4231 7.76981 14.3473 8.91993L14.334 9.12167H13.5253L13.5396 8.89225C13.6218 7.57667 14.1085 6.31546 14.9882 5.11095L14.9896 5.10905C15.8683 3.93298 16.9831 2.98099 18.3309 2.25314L18.3332 2.25192C19.6959 1.53684 21.0847 1.17655 22.4974 1.17655C24.4754 1.17655 25.976 1.80629 26.9551 3.09431C28.1676 2.47052 29.286 1.96136 30.3098 1.56759L30.3118 1.56683C31.3111 1.19377 32.2979 0.893659 33.2722 0.666754L33.2766 0.665746C34.2258 0.465203 35.087 0.36377 35.8587 0.36377C36.6468 0.36377 37.2974 0.499133 37.792 0.790061L37.7965 0.792746L37.8009 0.795651C38.2822 1.11145 38.5328 1.56126 38.5328 2.12598C38.5328 2.92696 38.0664 3.72689 37.2155 4.52369L37.2142 4.52495C36.3578 5.3134 35.1452 6.04502 33.5873 6.72422C32.0542 7.41736 30.2978 8.01573 28.3195 8.52026L28.3156 8.52125C28.2031 8.54774 28.1096 8.56816 28.0362 8.58218C27.7509 10.1986 27.1672 11.7365 26.2868 13.1949C26.829 13.9454 27.0944 14.8658 27.0944 15.9432C27.0944 16.7792 26.9231 17.6444 26.5848 18.5373C26.2473 19.4285 25.7561 20.3424 25.1139 21.279L25.1119 21.2819C24.4553 22.2064 23.6596 23.1153 22.726 24.0089L22.7246 24.0103C20.088 26.487 17.5463 27.756 15.1032 27.756C14.2566 27.756 13.519 27.5856 12.8993 27.2346C12.2621 26.9078 11.7638 26.3913 11.4028 25.6971C11.0818 25.0808 10.8951 24.3484 10.8359 23.5058C10.463 23.5501 10.1661 23.5732 9.94897 23.5732C8.61671 23.5732 7.51976 23.2261 6.67921 22.5127C5.82082 21.8221 5.3916 20.8938 5.3916 19.7493C5.3916 17.8197 6.5176 15.9867 8.68354 14.2486C10.8535 12.4939 13.6976 11.1348 17.2064 10.1645L17.2346 10.1567H17.2673L17.2927 10.1186L17.3054 10.1052C18.0275 9.34298 18.9142 8.54335 19.9639 7.70625C21.0389 6.84355 22.1668 6.0142 23.3476 5.21819C24.382 4.51239 25.3299 3.93293 26.191 3.48092C25.8043 3.01723 25.3318 2.66541 24.7714 2.4236ZM12.4666 26.1128C13.1142 26.8 13.9798 27.1436 15.0635 27.1436C16.1604 27.1436 17.3102 26.8264 18.5128 26.1921C19.6891 25.5841 20.8785 24.6789 22.0811 23.4762C23.3366 22.2207 24.3609 20.8396 25.1538 19.333C25.9468 17.8264 26.3432 16.5048 26.3432 15.3683C26.3432 14.7482 26.2086 14.2146 25.9393 13.7676C25.9289 13.7504 25.9183 13.7334 25.9076 13.7164C25.8702 13.6576 25.8304 13.6003 25.7882 13.5445L25.7485 13.6634C25.7253 13.6965 25.7021 13.7293 25.6789 13.7621C24.8577 14.9218 24.0616 15.9066 23.2904 16.7163C22.4049 17.6546 21.5062 18.4608 20.5943 19.1348C19.7221 19.8088 18.678 20.4762 17.4622 21.137C16.3124 21.7449 15.2419 22.2207 14.2507 22.5643C13.2728 22.9079 12.3543 23.1326 11.4952 23.2383V23.3573C11.4952 24.5335 11.819 25.452 12.4666 26.1128ZM11.7116 23.4275C11.7242 24.5285 12.0352 25.364 12.6208 25.9616L12.6238 25.9646C13.2244 26.602 14.0297 26.9277 15.0635 26.9277C16.1179 26.9277 17.2332 26.6229 18.4121 26.0011L18.4137 26.0002C19.5654 25.4049 20.7373 24.5147 21.9284 23.3235C23.1693 22.0827 24.1803 20.719 24.9627 19.2325C25.7468 17.7427 26.1273 16.4567 26.1273 15.3683C26.1273 14.8201 26.0167 14.3537 25.8019 13.9619C24.9951 15.0954 24.2103 16.0635 23.4472 16.8647C22.5548 17.8104 21.6473 18.6248 20.7246 19.3071C19.8416 19.9892 18.788 20.6622 17.5653 21.3267L17.5631 21.3279C16.4059 21.9398 15.3253 22.4203 14.3217 22.7683C13.4032 23.0909 12.533 23.3112 11.7116 23.4275ZM28.2265 7.85506C29.8521 7.45858 31.3587 6.96959 32.7463 6.38809C34.2133 5.76695 35.3697 5.1458 36.2155 4.52466C37.3256 3.65241 37.8807 2.85285 37.8807 2.12598C37.8807 1.75593 37.7089 1.47179 37.3653 1.27356C36.9952 1.08853 36.4798 0.996022 35.819 0.996022C33.4666 0.996022 30.6054 1.88809 27.2353 3.67223L27.1164 3.75153C27.6582 4.67664 27.9292 5.78677 27.9292 7.08193V7.81541L27.8895 7.93435C27.9688 7.90792 28.0217 7.8947 28.0481 7.8947L28.2265 7.85506ZM28.1451 7.65192L28.1775 7.64472C29.7923 7.25077 31.2871 6.76542 32.6625 6.1891C34.1192 5.57226 35.2579 4.95948 36.0848 4.35271C37.1858 3.48706 37.6647 2.74467 37.6647 2.12598C37.6647 1.84155 37.5416 1.62651 37.2629 1.46383C36.9357 1.30196 36.4604 1.21197 35.819 1.21197C33.5331 1.21197 30.7315 2.07428 27.4058 3.82641C27.9014 4.75204 28.1451 5.83969 28.1451 7.08193V7.65192ZM25.8675 12.6524C26.6075 11.3731 27.1213 10.064 27.409 8.72519C27.4244 8.6533 27.4392 8.58131 27.4534 8.50924H27.3146L24.8565 9.10396C23.8917 9.31541 22.9798 9.50704 22.1208 9.67885L20.5943 10.0159C20.5811 10.0159 20.0393 10.1348 18.9688 10.3727L18.6714 10.4123L18.3939 10.6899C17.7067 11.4564 17.0525 12.2229 16.4313 12.9894C15.8234 13.7559 15.275 14.496 14.786 15.2097C14.3102 15.9101 13.8741 16.5974 13.4776 17.2714C12.3776 19.1932 11.7373 20.9759 11.5566 22.6196C11.5484 22.6939 11.5412 22.768 11.5349 22.8418C11.6081 22.8301 11.6814 22.8178 11.7549 22.8048C13.3404 22.5248 14.9984 21.949 16.7287 21.0775C17.5481 20.6678 18.4005 20.1656 19.286 19.5709C20.1714 18.963 20.9842 18.3286 21.7243 17.6678C22.4644 17.0203 23.145 16.333 23.7662 15.6062C24.4005 14.8793 24.9622 14.1194 25.4512 13.3264L25.4908 13.2075C25.0547 12.811 24.46 12.6128 23.7067 12.6128C22.7684 12.6128 21.8036 12.8903 20.8124 13.4454C19.808 14.0269 18.8829 14.8198 18.0371 15.8242C17.1648 16.8418 16.4181 18.0181 15.797 19.3529L15.46 19.2537C15.4851 19.186 15.5109 19.1185 15.5373 19.0514C16.0104 17.8485 16.6851 16.7463 17.5613 15.7449C18.4732 14.6612 19.4908 13.8088 20.6142 13.1877C21.7507 12.5533 22.808 12.2361 23.786 12.2361C24.4901 12.2361 25.0848 12.4081 25.5701 12.752C25.6313 12.7953 25.6908 12.8414 25.7485 12.8903C25.7617 12.8507 25.7816 12.8044 25.808 12.7515C25.8176 12.742 25.8306 12.7219 25.8472 12.6915C25.8534 12.68 25.8602 12.6669 25.8675 12.6524ZM25.6723 12.5599C25.673 12.5585 25.6736 12.5572 25.6743 12.5558L25.6773 12.55L25.6805 12.5443C26.3945 11.31 26.8936 10.05 27.1794 8.76413L24.9027 9.31495C23.9376 9.52648 23.0251 9.71819 22.1653 9.89018L20.6179 10.2318H20.6138C20.612 10.2322 20.61 10.2326 20.6079 10.233C20.5907 10.2365 20.5651 10.2419 20.5306 10.2493C20.4617 10.2641 20.3597 10.2863 20.2243 10.316C19.9537 10.3754 19.5508 10.4646 19.0156 10.5835L19.0066 10.5855L18.7724 10.6167L18.5508 10.8384C17.8675 11.6006 17.2172 12.3626 16.5998 13.1245C15.995 13.8871 15.4499 14.6228 14.9644 15.3314C14.4914 16.0277 14.0581 16.7105 13.6644 17.3797C12.5887 19.2593 11.9639 20.9925 11.7783 22.5812C13.321 22.3016 14.9386 21.7373 16.6316 20.8847L16.6321 20.8844C17.4418 20.4795 18.2859 19.9824 19.1646 19.3923C20.0428 18.7893 20.848 18.1607 21.5805 17.5067L21.5821 17.5053C22.3146 16.8644 22.9878 16.1846 23.602 15.4659L23.6034 15.4642C24.2147 14.7638 24.7572 14.0329 25.2312 13.2715C24.8554 12.9822 24.3537 12.8287 23.7067 12.8287C22.8128 12.8287 21.8845 13.0927 20.9193 13.633C19.9396 14.2004 19.0337 14.976 18.2023 15.9633L18.201 15.9648C17.3428 16.966 16.6064 18.1253 15.9928 19.444L15.9144 19.6125L15.177 19.3956L15.2575 19.1786C15.7424 17.872 16.4562 16.6803 17.3974 15.6043C18.3241 14.5033 19.3612 13.6338 20.5092 12.9989C21.6676 12.3524 22.761 12.0202 23.786 12.0202C24.517 12.0202 25.1496 12.197 25.6723 12.5599ZM20.7529 9.52026L19.6428 9.75814L19.2463 9.83744C19.3285 9.74905 19.4154 9.65827 19.5069 9.5651C20.0036 9.05916 20.6371 8.48254 21.4071 7.83523C22.4512 6.94977 23.3895 6.20307 24.2221 5.59514C25.072 4.97592 25.855 4.46267 26.5711 4.05538C26.6344 4.01935 26.6972 3.98414 26.7595 3.94977C26.7929 4.01386 26.8251 4.07828 26.8563 4.14303C27.3072 5.07972 27.5327 6.08579 27.5327 7.16122C27.5327 7.49162 27.5195 7.77576 27.493 8.01365L26.145 8.35065L24.7573 8.66783C24.6252 8.69426 24.4798 8.7273 24.3212 8.76695C24.1626 8.8066 24.0503 8.83303 23.9842 8.84625C23.9181 8.85946 23.7992 8.88589 23.6274 8.92554C23.297 8.9784 22.9996 9.03788 22.7353 9.10396C22.4446 9.17003 22.2133 9.22951 22.0415 9.28237L20.7529 9.52026ZM21.9901 9.07225C22.1674 9.01824 22.3997 8.95881 22.6852 8.89389C22.9542 8.82673 23.2546 8.76667 23.586 8.71347C23.7538 8.67476 23.8732 8.64821 23.9419 8.63449C24.0024 8.62239 24.1102 8.5971 24.2688 8.55745C24.4289 8.51742 24.5767 8.48378 24.7121 8.45666L26.0947 8.14062L27.2926 7.84115C27.3086 7.64505 27.3167 7.41862 27.3167 7.16122C27.3167 6.12202 27.1001 5.15214 26.6676 4.24893C25.9631 4.65029 25.1904 5.15683 24.3494 5.76955C23.5222 6.37359 22.5881 7.11683 21.5468 7.99993L21.5461 8.00054C20.8957 8.54724 20.3455 9.04143 19.8944 9.48338L20.7107 9.30845L21.9901 9.07225ZM10.9203 22.8815H11.0393C11.0789 20.952 11.5877 18.9762 12.5657 16.9542C13.5052 15.0244 14.8228 13.1373 16.5185 11.2928C16.588 11.2173 16.658 11.1419 16.7287 11.0665L16.808 10.9872C16.7665 10.9986 16.7251 11.01 16.6837 11.0216C16.683 11.0218 16.6822 11.022 16.6815 11.0222C16.5874 11.0484 16.4938 11.0751 16.4006 11.1021C14.4884 11.6574 12.7608 12.3856 11.2177 13.2868C9.59214 14.2383 8.31681 15.2758 7.3917 16.3991C6.46659 17.5225 6.00403 18.6524 6.00403 19.789C6.00403 20.7537 6.36747 21.5203 7.09434 22.0885C7.82121 22.67 8.78597 22.9608 9.98861 22.9608C10.1869 22.9608 10.4974 22.9344 10.9203 22.8815ZM11.3266 13.4733C9.71695 14.4155 8.46334 15.4375 7.5584 16.5364C6.65603 17.6321 6.21998 18.7152 6.21998 19.789C6.21998 20.6908 6.55554 21.3932 7.22735 21.9184L7.22925 21.9199C7.90787 22.4628 8.82052 22.7448 9.98861 22.7448C10.163 22.7448 10.4412 22.7224 10.8292 22.6752C10.8998 20.7744 11.4159 18.8356 12.3713 16.8602L12.3715 16.8596C13.2766 15.0007 14.5267 13.1847 16.1192 11.4112C14.3578 11.9481 12.7606 12.6358 11.3266 13.4733Z" fill="white"/>
</svg>
