<svg width="58" height="58" viewBox="0 0 58 58" fill="none" xmlns="http://www.w3.org/2000/svg">
<rect x="0.973633" y="0.936035" width="56.7188" height="56.7188" rx="13" fill="#0077FF"/>
<path d="M38.1532 30.9666C40.6546 32.2841 42.7036 33.936 44.3437 36.0637C45.7124 37.8414 46.7939 39.7685 47.4586 41.9277C47.6828 42.6553 47.4704 42.8913 46.7624 42.8874C45.1224 42.8756 43.4863 42.8638 41.8463 42.8952C41.1423 42.911 40.8276 42.6199 40.572 41.967C39.1837 38.4628 36.7964 35.9575 33.1191 34.8288C32.5684 34.6596 31.9903 34.577 31.2548 34.4197C31.2548 35.6075 31.2548 36.6458 31.2548 37.6841C31.2548 39.1275 31.2352 40.5669 31.2627 42.0103C31.2745 42.6356 31.0621 42.9149 30.4171 42.8834C26.3465 42.7025 22.449 41.9985 18.9565 39.6623C15.7551 37.5189 13.5998 34.5928 12.1329 31.1239C10.6619 27.6472 10.0327 23.9817 9.88322 20.2218C9.85175 19.3447 10.131 19.0537 10.9884 19.0852C12.4278 19.1363 13.8752 19.1442 15.3146 19.0852C16.2389 19.0458 16.4866 19.4273 16.5024 20.2926C16.5732 23.6395 17.2339 26.8685 18.7756 29.8575C20.0381 32.3077 21.804 34.2781 24.4784 35.2653C24.5964 35.3086 24.7222 35.3204 24.9897 35.3794C25.0211 34.9585 25.0683 34.5888 25.0683 34.2191C25.0723 29.5665 25.0919 24.9099 25.0526 20.2572C25.0447 19.3526 25.32 19.0419 26.2207 19.0812C27.5618 19.1402 28.9069 19.1245 30.2519 19.0852C31.0071 19.0616 31.2902 19.3133 31.2745 20.0999C31.2312 22.4596 31.2588 24.8194 31.2588 27.1792C31.2588 27.5331 31.2588 27.8871 31.2588 28.3669C32.8988 28.2607 34.1456 27.5056 35.2782 26.5774C37.347 24.8823 38.8651 22.7664 39.7225 20.2257C40.0096 19.3801 40.4186 19.0262 41.3428 19.0694C42.9357 19.1442 44.5364 19.0891 46.322 19.0891C45.2758 24.2845 42.4401 28.013 38.1572 30.9587L38.1532 30.9666Z" fill="white"/>
</svg>
