<svg width="58" height="58" viewBox="0 0 58 58" fill="none" xmlns="http://www.w3.org/2000/svg">
<rect x="0.973633" y="0.398926" width="56.7188" height="56.7188" rx="13" fill="#47E964"/>
<path d="M9.88086 47.5451C9.9113 47.4103 9.9287 47.3168 9.95262 47.2233C10.8159 44.0614 11.6793 40.8995 12.5513 37.7398C12.6187 37.4962 12.5904 37.3049 12.4686 37.0874C11.2204 34.841 10.4484 32.4381 10.1549 29.8829C9.69384 25.8599 10.3919 22.0456 12.2816 18.4662C14.1083 15.0064 16.7526 12.3272 20.1711 10.4201C22.1544 9.31323 24.2703 8.59344 26.508 8.22593C27.8258 8.01064 29.1545 7.92365 30.4875 7.99324C34.8193 8.21505 38.701 9.6503 42.0499 12.4229C45.8468 15.5652 48.2236 19.5709 48.9761 24.4529C49.9307 30.6484 48.2954 36.1371 44.1115 40.7995C40.9974 44.2701 37.0744 46.3404 32.4534 47.0167C28.2759 47.6277 24.2985 46.9297 20.5473 44.9899C20.3494 44.8877 20.1755 44.8595 19.958 44.916C16.6917 45.7793 13.4255 46.6339 10.1592 47.4907C10.0809 47.5103 10.0005 47.5234 9.88086 47.5473L9.88086 47.5451ZM14.5976 42.8719C14.7129 42.8479 14.7716 42.8392 14.8303 42.824C16.5634 42.3695 18.3031 41.9303 20.0298 41.4497C20.5234 41.3127 20.9062 41.3583 21.3606 41.6236C25.0336 43.77 28.9718 44.4093 33.1297 43.5112C36.6873 42.7436 39.6644 40.9473 42.0064 38.166C45.264 34.2952 46.4774 29.8177 45.6598 24.8335C45.0357 21.0322 43.2003 17.866 40.3015 15.3369C37.3049 12.723 33.7907 11.4291 29.8286 11.3421C28.7826 11.3182 27.7388 11.4183 26.708 11.6118C23.3874 12.2316 20.5321 13.7451 18.1357 16.1176C16.7679 17.4746 15.6762 19.0338 14.8716 20.7865C13.4385 23.9005 13.0362 27.1494 13.6255 30.5201C14.0148 32.7425 14.8629 34.7823 16.1003 36.6655C16.2025 36.8221 16.2242 36.9591 16.1742 37.1374C15.7153 38.7836 15.2652 40.4298 14.8129 42.0781C14.7433 42.3282 14.6802 42.5783 14.6019 42.874L14.5976 42.8719Z" fill="white"/>
<path d="M23.0047 18.5205C23.3048 18.5335 23.6049 18.5444 23.9029 18.5618C24.2225 18.5792 24.4313 18.7793 24.5618 19.0402C24.7597 19.4382 24.9315 19.8513 25.1033 20.2623C25.5012 21.2061 25.8883 22.1521 26.2862 23.0959C26.4145 23.4003 26.4058 23.683 26.2667 23.9853C25.9753 24.6137 25.5056 25.103 25.0532 25.6032C24.6727 26.0251 24.6335 26.1969 24.9271 26.684C26.4037 29.15 28.3978 31.0419 31.0617 32.1857C31.2748 32.2771 31.4814 32.3815 31.6945 32.4641C32.0577 32.6054 32.3164 32.5533 32.5643 32.2553C33.0797 31.6334 33.5908 31.0071 34.0866 30.3699C34.3932 29.9763 34.6128 29.8611 35.0782 30.0568C35.8654 30.3873 36.6352 30.7592 37.4072 31.1224C37.977 31.392 38.5358 31.6878 39.1078 31.9531C39.4622 32.1183 39.6101 32.3815 39.5927 32.7598C39.5601 33.434 39.4405 34.0907 39.1795 34.7148C38.9882 35.1758 38.6272 35.5064 38.2466 35.8108C36.6635 37.0743 34.8825 37.307 32.9732 36.7872C29.0871 35.7304 25.9166 33.571 23.344 30.5026C22.348 29.3153 21.3955 28.0953 20.6562 26.7296C20.0799 25.6619 19.6732 24.5355 19.6558 23.3068C19.6384 21.9607 20.0168 20.7408 20.8867 19.6926C21.0085 19.5447 21.1433 19.4055 21.2694 19.2598C21.7261 18.7271 22.298 18.4683 23.0047 18.5183V18.5205Z" fill="white"/>
</svg>
