<svg width="153" height="30" viewBox="0 0 153 30" fill="none" xmlns="http://www.w3.org/2000/svg">
<path d="M45.351 14.8752C46.4066 14.8752 47.3539 15.0647 48.1929 15.4436C49.032 15.809 49.7425 16.3097 50.3244 16.9457C50.9199 17.5683 51.3732 18.2991 51.6845 19.1381C52.0093 19.9636 52.1717 20.8297 52.1717 21.7364C52.1717 22.7514 51.9822 23.6852 51.6033 24.5378C51.2379 25.3904 50.7304 26.1212 50.0808 26.7301C49.4312 27.3391 48.6734 27.8196 47.8073 28.1714C46.9547 28.5097 46.0412 28.6789 45.0668 28.6789C44.0248 28.6789 43.0842 28.4894 42.2452 28.1105C41.4197 27.7316 40.7159 27.2309 40.134 26.6083C39.5656 25.9858 39.1258 25.2686 38.8145 24.4566C38.5033 23.6446 38.3477 22.7988 38.3477 21.9191C38.3477 21.053 38.5033 20.2004 38.8145 19.3614C39.1258 18.5088 39.5792 17.751 40.1746 17.0878C40.7836 16.4247 41.5212 15.8902 42.3873 15.4842C43.2534 15.0782 44.2413 14.8752 45.351 14.8752ZM45.3307 27.9684C46.2374 27.9278 47.0291 27.7248 47.7058 27.3594C48.3959 26.9805 48.9711 26.5068 49.4312 25.9385C49.8913 25.3565 50.2297 24.7205 50.4462 24.0303C50.6763 23.3401 50.7913 22.6567 50.7913 21.98C50.7913 21.2357 50.656 20.4846 50.3853 19.7268C50.1146 18.9689 49.7289 18.2855 49.2282 17.6765C48.7275 17.054 48.1253 16.5533 47.4216 16.1744C46.7314 15.7819 45.9532 15.5857 45.0871 15.5857C44.2481 15.5857 43.497 15.7751 42.8339 16.1541C42.1707 16.5195 41.6024 16.9931 41.1287 17.575C40.6686 18.157 40.3167 18.8065 40.0731 19.5238C39.8295 20.241 39.7077 20.9448 39.7077 21.6349C39.7077 22.3793 39.8498 23.1304 40.134 23.8882C40.4182 24.6325 40.8107 25.3092 41.3114 25.9182C41.8121 26.5271 42.4008 27.0211 43.0775 27.4C43.7676 27.779 44.5187 27.9684 45.3307 27.9684Z" fill="white"/>
<path d="M53.3787 27.0549C53.2569 27.4068 53.0674 27.7316 52.8103 28.0293C52.5532 28.327 52.1743 28.4759 51.6735 28.4759H51.0442V28.2729C51.1254 28.2729 51.2337 28.2526 51.369 28.212C51.5044 28.1579 51.6465 28.0767 51.7953 27.9684C51.9442 27.8602 52.0931 27.7248 52.2419 27.5624C52.3908 27.3865 52.5193 27.17 52.6276 26.9128L56.4642 16.3977C56.5319 16.1947 56.5657 16.039 56.5657 15.9308C56.5657 15.7278 56.5048 15.5721 56.383 15.4639C56.2748 15.3421 56.1597 15.2812 56.0379 15.2812V15.0782H57.7025L62.2496 27.5015C62.3173 27.691 62.4458 27.8669 62.6353 28.0293C62.8248 28.1782 63.0345 28.2594 63.2646 28.2729V28.4759H60.3617V28.2729C60.47 28.2729 60.5783 28.2323 60.6865 28.1511C60.8083 28.0564 60.8692 27.9346 60.8692 27.7857C60.8692 27.7451 60.8557 27.6842 60.8286 27.603L57.0123 17.0878L53.3787 27.0549Z" fill="white"/>
<path d="M72.8761 28.2729H72.9776C73.0723 28.2729 73.1603 28.2391 73.2415 28.1714C73.3227 28.0902 73.3904 27.9955 73.4445 27.8872C73.5122 27.7654 73.5595 27.6436 73.5866 27.5218C73.6137 27.3865 73.6272 27.2647 73.6272 27.1564V21.6349H67.1313V27.1564C67.1313 27.2647 67.1449 27.3865 67.1719 27.5218C67.199 27.6436 67.2396 27.7587 67.2937 27.8669C67.3479 27.9752 67.4088 28.0699 67.4764 28.1511C67.5576 28.2323 67.6524 28.2729 67.7606 28.2729H67.8621V28.4759H65.0202V28.2729H65.1217C65.2164 28.2729 65.3044 28.2391 65.3856 28.1714C65.4668 28.0902 65.5344 27.9955 65.5886 27.8872C65.6562 27.7654 65.7036 27.6436 65.7307 27.5218C65.7577 27.3865 65.7713 27.2647 65.7713 27.1564V16.3368C65.7713 16.242 65.7577 16.1338 65.7307 16.012C65.7036 15.8902 65.663 15.7751 65.6089 15.6669C65.5547 15.5586 65.4871 15.4706 65.4059 15.403C65.3247 15.3218 65.2299 15.2812 65.1217 15.2812H65.0202V15.0782H67.8621V15.2812H67.7606C67.6524 15.2812 67.5576 15.3218 67.4764 15.403C67.3952 15.4706 67.3276 15.5586 67.2734 15.6669C67.2328 15.7751 67.199 15.8902 67.1719 16.012C67.1449 16.1338 67.1313 16.242 67.1313 16.3368V20.9245H73.6272V16.3368C73.6272 16.242 73.6137 16.1338 73.5866 16.012C73.5595 15.8902 73.5189 15.7751 73.4648 15.6669C73.4107 15.5586 73.343 15.4706 73.2618 15.403C73.1806 15.3218 73.0859 15.2812 72.9776 15.2812H72.8761V15.0782H75.7181V15.2812H75.6166C75.5083 15.2812 75.4136 15.3218 75.3324 15.403C75.2512 15.4706 75.1835 15.5586 75.1294 15.6669C75.0888 15.7751 75.0549 15.8902 75.0279 16.012C75.0008 16.1338 74.9873 16.242 74.9873 16.3368V27.1564C74.9873 27.2647 75.0008 27.3865 75.0279 27.5218C75.0685 27.6436 75.1158 27.7587 75.17 27.8669C75.2241 27.9752 75.285 28.0699 75.3527 28.1511C75.4339 28.2323 75.5218 28.2729 75.6166 28.2729H75.7181V28.4759H72.8761V28.2729Z" fill="white"/>
<path d="M77.4449 28.2729H77.5464C77.6412 28.2729 77.7291 28.2391 77.8103 28.1714C77.8915 28.0902 77.9592 27.9955 78.0133 27.8872C78.0675 27.779 78.1081 27.6639 78.1351 27.5421C78.1757 27.4203 78.196 27.3121 78.196 27.2173V16.3977C78.196 16.3029 78.1825 16.1879 78.1554 16.0526C78.1284 15.9172 78.081 15.7954 78.0133 15.6872C77.9592 15.5789 77.8915 15.4842 77.8103 15.403C77.7291 15.3218 77.6412 15.2812 77.5464 15.2812H77.4449V15.0782H80.3072V15.2812H80.1651C79.9756 15.3083 79.8268 15.4571 79.7185 15.7278C79.6102 15.9849 79.5561 16.2082 79.5561 16.3977V20.7621H80.6929C81.3154 20.7621 81.9244 20.8297 82.5198 20.9651C83.1288 21.0869 83.6634 21.3034 84.1235 21.6146C84.5972 21.9124 84.9761 22.3116 85.2603 22.8123C85.5445 23.2995 85.6866 23.9085 85.6866 24.6393C85.6866 25.2347 85.5648 25.7693 85.3212 26.243C85.0776 26.7166 84.746 27.1226 84.3265 27.4609C83.907 27.7857 83.4062 28.0361 82.8243 28.212C82.2559 28.3879 81.6402 28.4759 80.9771 28.4759H77.4449V28.2729ZM79.8606 27.7654C81.4304 27.7654 82.5537 27.4948 83.2303 26.9534C83.9205 26.4121 84.2656 25.6678 84.2656 24.7205C84.2656 23.7596 83.9205 22.9747 83.2303 22.3657C82.5537 21.7567 81.5522 21.4523 80.226 21.4523H79.5561V27.7654H79.8606ZM87.0466 15.0782H89.9089V15.2812H89.7465C89.6518 15.2947 89.5638 15.3421 89.4826 15.4233C89.4149 15.5045 89.354 15.5992 89.2999 15.7075C89.2593 15.8022 89.2255 15.9105 89.1984 16.0323C89.1713 16.1405 89.1578 16.242 89.1578 16.3368V27.1564C89.1578 27.2647 89.1713 27.3797 89.1984 27.5015C89.2255 27.6233 89.2661 27.7451 89.3202 27.8669C89.3743 27.9752 89.4352 28.0699 89.5029 28.1511C89.5841 28.2188 89.6721 28.2594 89.7668 28.2729H89.9089V28.4759H87.0466V28.2729H87.1481C87.2564 28.2729 87.3511 28.2391 87.4323 28.1714C87.5135 28.0902 87.5812 27.9955 87.6353 27.8872C87.6895 27.7654 87.7301 27.6436 87.7571 27.5218C87.7842 27.3865 87.7977 27.2647 87.7977 27.1564V16.3368C87.7977 16.242 87.7842 16.1338 87.7571 16.012C87.7301 15.8902 87.6895 15.7751 87.6353 15.6669C87.5812 15.5586 87.5135 15.4706 87.4323 15.403C87.3511 15.3218 87.2564 15.2812 87.1481 15.2812H87.0466V15.0782Z" fill="white"/>
<path d="M99.59 12.4189C99.59 12.649 99.5359 12.8858 99.4276 13.1294C99.3194 13.373 99.1637 13.6031 98.9607 13.8196C98.7713 14.0361 98.5345 14.2121 98.2503 14.3474C97.9796 14.4827 97.6751 14.5504 97.3368 14.5504C97.012 14.5504 96.7075 14.4895 96.4233 14.3677C96.1526 14.2324 95.9158 14.0632 95.7128 13.8602C95.5098 13.6572 95.3474 13.4272 95.2256 13.17C95.1038 12.9129 95.0429 12.6625 95.0429 12.4189H95.1647C95.1783 12.5001 95.2189 12.6152 95.2865 12.764C95.3677 12.9129 95.4895 13.0618 95.6519 13.2106C95.8143 13.3595 96.0308 13.4881 96.3015 13.5963C96.5722 13.7046 96.9105 13.7587 97.3165 13.7587C97.736 13.7587 98.0743 13.7046 98.3315 13.5963C98.6021 13.4881 98.8186 13.3595 98.981 13.2106C99.1434 13.0618 99.2585 12.9129 99.3261 12.764C99.3938 12.6152 99.4412 12.5001 99.4682 12.4189H99.59ZM99.9351 28.2729H100.037C100.145 28.2729 100.24 28.2391 100.321 28.1714C100.402 28.0902 100.47 27.9955 100.524 27.8872C100.591 27.7654 100.639 27.6436 100.666 27.5218C100.693 27.3865 100.707 27.2647 100.707 27.1564V17.8592L93.967 26.9737V27.1564C93.967 27.2647 93.9806 27.3865 94.0076 27.5218C94.0482 27.6436 94.0956 27.7587 94.1497 27.8669C94.2039 27.9752 94.2715 28.0699 94.3527 28.1511C94.4339 28.2323 94.5287 28.2729 94.6369 28.2729H94.7384V28.4759H91.8559V28.2729H91.9574C92.0657 28.2729 92.1604 28.2391 92.2416 28.1714C92.3228 28.0902 92.3904 27.9955 92.4446 27.8872C92.5122 27.7654 92.5596 27.6436 92.5867 27.5218C92.6137 27.3865 92.6273 27.2647 92.6273 27.1564V16.3368C92.6273 16.242 92.6137 16.1338 92.5867 16.012C92.5596 15.8902 92.5122 15.7751 92.4446 15.6669C92.3904 15.5586 92.3228 15.4706 92.2416 15.403C92.1604 15.3218 92.0657 15.2812 91.9574 15.2812H91.8559V15.0782H94.7384V15.2812H94.576C94.4813 15.2947 94.3933 15.3421 94.3121 15.4233C94.2445 15.5045 94.1836 15.5992 94.1294 15.7075C94.0753 15.8022 94.0347 15.9105 94.0076 16.0323C93.9806 16.1405 93.967 16.242 93.967 16.3368V25.7152L100.707 16.6007V16.3368C100.707 16.242 100.693 16.1338 100.666 16.012C100.639 15.8902 100.591 15.7751 100.524 15.6669C100.47 15.5586 100.402 15.4706 100.321 15.403C100.24 15.3218 100.145 15.2812 100.037 15.2812H99.9351V15.0782H102.818V15.2812H102.716C102.608 15.2812 102.513 15.3218 102.432 15.403C102.351 15.4706 102.283 15.5586 102.229 15.6669C102.175 15.7751 102.127 15.8902 102.087 16.012C102.06 16.1338 102.046 16.242 102.046 16.3368V27.1564C102.046 27.2647 102.06 27.3797 102.087 27.5015C102.127 27.6233 102.175 27.7451 102.229 27.8669C102.283 27.9752 102.351 28.0699 102.432 28.1511C102.513 28.2323 102.608 28.2729 102.716 28.2729H102.818V28.4759H99.9351V28.2729Z" fill="white"/>
<path d="M110.014 28.2729H110.116C110.224 28.2729 110.319 28.2323 110.4 28.1511C110.481 28.0699 110.549 27.9752 110.603 27.8669C110.671 27.7587 110.718 27.6436 110.745 27.5218C110.772 27.3865 110.786 27.2647 110.786 27.1564V16.3368C110.786 16.242 110.772 16.1338 110.745 16.012C110.718 15.8902 110.671 15.7751 110.603 15.6669C110.549 15.5586 110.481 15.4706 110.4 15.403C110.319 15.3218 110.231 15.2812 110.136 15.2812H110.035V15.0782H112.917V15.2812H112.816C112.708 15.2812 112.613 15.3218 112.532 15.403C112.45 15.4706 112.376 15.5586 112.308 15.6669C112.254 15.7751 112.207 15.8902 112.166 16.012C112.139 16.1338 112.126 16.242 112.126 16.3368V20.5388L116.835 15.8496C116.943 15.7413 116.998 15.6127 116.998 15.4639C116.998 15.3421 116.943 15.2812 116.835 15.2812V15.0782H119.028V15.2812C118.757 15.2947 118.513 15.3759 118.297 15.5248C118.094 15.6736 117.87 15.8699 117.627 16.1135L112.816 20.9245C113.695 20.9515 114.406 21.141 114.947 21.4929C115.489 21.8447 115.915 22.3319 116.226 22.9544L117.83 26.2024C117.925 26.4053 118.046 26.6286 118.195 26.8722C118.358 27.1023 118.534 27.3256 118.723 27.5421C118.926 27.7451 119.149 27.9211 119.393 28.0699C119.636 28.2052 119.894 28.2729 120.164 28.2729V28.4759H119.149C118.757 28.4759 118.419 28.4218 118.134 28.3135C117.85 28.1917 117.6 28.0361 117.383 27.8466C117.18 27.6436 116.998 27.4203 116.835 27.1767C116.686 26.9331 116.551 26.6895 116.429 26.4459L114.785 23.1777C114.528 22.677 114.169 22.2981 113.709 22.0409C113.262 21.7703 112.735 21.6214 112.126 21.5943V27.1564C112.126 27.2647 112.139 27.3797 112.166 27.5015C112.193 27.6233 112.234 27.7451 112.288 27.8669C112.342 27.9752 112.41 28.0699 112.491 28.1511C112.572 28.2188 112.66 28.2594 112.755 28.2729H112.897V28.4759H110.014V28.2729Z" fill="white"/>
<path d="M120.602 15.0782H123.424V15.2812H123.302C123.153 15.2812 123.052 15.3285 122.997 15.4233C122.943 15.5045 122.916 15.5924 122.916 15.6872C122.916 15.7548 122.923 15.8157 122.937 15.8699C122.95 15.924 122.964 15.9646 122.977 15.9917L126.448 23.5837L129.554 16.215C129.568 16.1879 129.588 16.1338 129.615 16.0526C129.642 15.9578 129.656 15.8699 129.656 15.7887C129.656 15.5992 129.588 15.4706 129.453 15.403C129.317 15.3218 129.216 15.2812 129.148 15.2812V15.0782H131.32V15.2812C131.077 15.2812 130.887 15.3488 130.752 15.4842C130.63 15.606 130.535 15.7345 130.468 15.8699L125.596 27.5218C125.433 27.9143 125.217 28.2052 124.946 28.3947C124.676 28.5706 124.385 28.6586 124.073 28.6586C123.87 28.6586 123.688 28.6248 123.525 28.5571C123.363 28.503 123.221 28.4353 123.099 28.3541C122.977 28.2729 122.882 28.1985 122.815 28.1308C122.761 28.0631 122.734 28.0293 122.734 28.0293L123.241 26.9128C123.349 27.17 123.491 27.373 123.667 27.5218C123.843 27.6572 124.026 27.7248 124.215 27.7248C124.337 27.7248 124.459 27.6842 124.581 27.603C124.716 27.5083 124.831 27.3662 124.926 27.1767L125.718 25.2483L121.495 15.9308C121.306 15.5248 121.008 15.3083 120.602 15.2812V15.0782Z" fill="white"/>
<path d="M132.395 15.0782H135.278C136.78 15.0782 137.917 15.3691 138.688 15.9511C139.473 16.5195 139.865 17.3314 139.865 18.387C139.865 18.9554 139.73 19.4629 139.459 19.9095C139.189 20.3561 138.83 20.735 138.383 21.0463C137.95 21.344 137.456 21.5741 136.902 21.7364C136.36 21.8988 135.819 21.98 135.278 21.98H134.506V27.1564C134.506 27.2647 134.52 27.3865 134.547 27.5218C134.574 27.6436 134.615 27.7587 134.669 27.8669C134.736 27.9752 134.804 28.0699 134.872 28.1511C134.953 28.2323 135.048 28.2729 135.156 28.2729H135.257V28.4759H132.395V28.2729H132.497C132.591 28.2729 132.679 28.2323 132.76 28.1511C132.842 28.0699 132.909 27.9752 132.963 27.8669C133.018 27.7587 133.058 27.6436 133.085 27.5218C133.112 27.3865 133.126 27.2647 133.126 27.1564V16.3368C133.126 16.1473 133.072 15.9308 132.963 15.6872C132.855 15.4436 132.7 15.3083 132.497 15.2812H132.395V15.0782ZM134.506 15.7887V21.2696H135.115C135.657 21.2696 136.137 21.1951 136.556 21.0463C136.99 20.8974 137.348 20.7012 137.632 20.4576C137.917 20.214 138.133 19.9366 138.282 19.6253C138.431 19.314 138.505 18.996 138.505 18.6712C138.505 18.2788 138.438 17.9134 138.302 17.575C138.18 17.2232 137.971 16.9187 137.673 16.6616C137.389 16.3909 137.01 16.1811 136.536 16.0323C136.063 15.8699 135.481 15.7887 134.79 15.7887H134.506Z" fill="white"/>
<path d="M148.739 15.606C147.738 15.606 146.865 15.7887 146.121 16.1541C145.39 16.5059 144.781 16.9728 144.294 17.5547C143.806 18.1231 143.441 18.7659 143.197 19.4832C142.967 20.2004 142.852 20.9109 142.852 21.6146C142.852 22.4131 143.008 23.198 143.319 23.9694C143.631 24.7273 144.057 25.4039 144.598 25.9994C145.153 26.5813 145.796 27.0549 146.527 27.4203C147.257 27.7722 148.049 27.9481 148.902 27.9481C149.145 27.9481 149.429 27.9211 149.754 27.8669C150.093 27.8128 150.424 27.7113 150.749 27.5624C151.074 27.4 151.371 27.1767 151.642 26.8925C151.926 26.6083 152.143 26.2362 152.292 25.7761H152.495V28.0293C152.292 28.0293 152.075 28.0564 151.845 28.1105C151.629 28.1646 151.385 28.2255 151.114 28.2932C150.762 28.3879 150.37 28.4759 149.937 28.5571C149.517 28.6383 149.071 28.6789 148.597 28.6789C147.42 28.6789 146.384 28.4759 145.491 28.0699C144.598 27.6639 143.854 27.1361 143.258 26.4865C142.663 25.837 142.216 25.1062 141.919 24.2942C141.621 23.4687 141.472 22.6364 141.472 21.7973C141.472 20.9583 141.621 20.126 141.919 19.3005C142.216 18.475 142.67 17.7374 143.279 17.0878C143.888 16.4247 144.652 15.8902 145.573 15.4842C146.493 15.0782 147.575 14.8752 148.82 14.8752C149.267 14.8752 149.666 14.9158 150.018 14.997C150.384 15.0782 150.708 15.1594 150.993 15.2406C151.195 15.3083 151.378 15.3624 151.541 15.403C151.717 15.43 151.886 15.4436 152.048 15.4436V17.6968H151.845C151.764 17.2773 151.615 16.9322 151.398 16.6616C151.182 16.3774 150.925 16.1608 150.627 16.012C150.343 15.8631 150.032 15.7616 149.693 15.7075C149.369 15.6398 149.051 15.606 148.739 15.606Z" fill="white"/>
<path d="M46.6739 0.476687C48.1541 0.331313 49.1783 0.509727 49.7466 1.01193C50.3149 1.51413 50.5065 2.01634 50.3215 2.51854C50.2422 2.9018 49.8193 3.21898 49.0528 3.47008C48.2863 3.74761 47.2554 3.88638 45.9603 3.88638C44.9427 3.88638 43.8788 3.81369 42.7686 3.66832L41.599 3.54938C41.3744 3.49651 41.0902 3.45026 40.7466 3.41061C40.1783 3.72779 39.577 4.07801 38.9427 4.46127C38.3612 4.93704 37.7532 5.43924 37.1189 5.96788C36.4845 6.49651 35.8766 7.05819 35.2951 7.6529C34.6607 8.31369 33.9669 9.10004 33.2136 10.0119C32.4603 10.9106 31.7598 11.8027 31.1123 12.6881L28.7532 15.8203C26.2951 19.0978 24.1145 21.6089 22.2114 23.3533C20.6387 24.8203 19.0924 25.9635 17.5726 26.7829C18.8413 27.6948 20.1827 28.1507 21.5968 28.1507C22.5616 28.1507 23.3942 28.0318 24.0946 27.7939C24.7158 27.5692 25.4823 27.1463 26.3942 26.5252L26.6717 26.8423C25.2708 27.9921 23.5792 28.567 21.5968 28.567C20.0638 28.567 18.61 28.0318 17.2356 26.9613C16.9977 27.0802 16.7664 27.1926 16.5418 27.2983L15.8083 27.7146L15.1144 28.0119C13.066 28.9767 10.9514 29.4591 8.77083 29.4591C7.27744 29.4591 5.94264 29.1948 4.76642 28.6661C3.56378 28.1243 2.63206 27.3842 1.97127 26.4459C1.28404 25.5208 0.94043 24.4701 0.94043 23.2939C0.94043 22.4877 1.11884 21.708 1.47567 20.9547C1.80607 20.2146 2.28845 19.5802 2.92281 19.0516C3.53074 18.5494 4.21136 18.2256 4.96466 18.0802L5.00431 18.4172C3.9999 18.5758 3.14087 19.1375 2.42721 20.1022C1.71356 21.067 1.35673 22.1441 1.35673 23.3335C1.35673 24.1133 1.53514 24.8533 1.89197 25.5538C2.2488 26.241 2.76422 26.8556 3.43823 27.3974C4.09902 27.9128 4.88537 28.3159 5.79726 28.6067C6.66951 28.8974 7.62105 29.0428 8.65189 29.0428C10.7929 29.0428 12.8149 28.6199 14.718 27.7741L15.1541 27.5956L16.3832 26.9811C16.555 26.9018 16.7334 26.8093 16.9184 26.7036C16.8523 26.6375 16.7796 26.5714 16.7003 26.5053C15.5506 25.3688 14.936 23.6837 14.8567 21.4503H14.0638C12.4779 21.4503 11.2158 21.034 10.2774 20.2014C9.33911 19.3688 8.86995 18.2586 8.86995 16.871C8.86995 15.6022 9.18052 14.2873 9.80167 12.926C10.4492 11.5912 11.3479 10.2961 12.4977 9.04057C13.6211 7.81149 14.9625 6.70797 16.5219 5.72999C20.87 2.95466 25.9911 1.567 31.8854 1.567C34.2907 1.567 36.9537 1.85114 39.8744 2.41942L41.3413 2.6573C43.8127 1.30929 45.5902 0.582414 46.6739 0.476687ZM38.4272 4.34233C39.0219 3.9855 39.5902 3.64849 40.1321 3.33131L40.0528 3.31149C39.9338 3.28506 39.8281 3.26523 39.7356 3.25202L36.9404 2.77625C34.6145 2.36656 32.4933 2.16171 30.577 2.16171C25.3964 2.16171 20.751 3.47008 16.6409 6.08682C14.4338 7.51414 12.6497 9.21237 11.2885 11.1815C9.94043 13.1243 9.26643 15.0207 9.26643 16.871C9.26643 17.73 9.46466 18.4701 9.86114 19.0912C10.284 19.7388 10.8523 20.2278 11.566 20.5582C12.2796 20.9018 13.1387 21.0736 14.1431 21.0736H14.8964C15.0021 19.4084 15.4448 17.763 16.2246 16.1375C16.9911 14.5384 18.0682 13.0119 19.4559 11.5582C20.87 10.0912 22.37 8.90841 23.9559 8.00973C25.5682 7.11105 26.936 6.66171 28.0594 6.66171C29.4867 6.66171 30.2004 7.30929 30.2004 8.60444C30.2004 9.75422 29.5396 11.208 28.218 12.9657C26.9228 14.6837 25.218 16.3423 23.1034 17.9415C22.3105 18.5626 21.4515 19.1177 20.5263 19.6067C19.588 20.0956 18.6893 20.4855 17.8303 20.7763C16.8788 21.0934 16.0329 21.2983 15.2929 21.3908V21.4899C15.2929 22.4415 15.4713 23.3864 15.8281 24.3247C16.1981 25.2498 16.6739 25.9833 17.2554 26.5252C18.4977 25.7851 19.8788 24.6485 21.3986 23.1155C22.2841 22.2036 22.9713 21.4635 23.4603 20.8952C23.9096 20.3666 24.7686 19.2829 26.0374 17.6441C27.6233 15.5163 28.9316 13.8313 29.9625 12.589C30.9537 11.3864 31.9184 10.2961 32.8567 9.3181C34.2841 7.89079 35.4338 6.8203 36.3061 6.10665C36.7026 5.76303 36.9999 5.51854 37.1982 5.37317C37.3435 5.25422 37.4955 5.13528 37.6541 5.01634L38.1299 4.65951L38.4272 4.34233ZM15.3325 20.9745C17.8435 20.6177 20.381 19.4811 22.9448 17.5648C24.2929 16.534 25.4691 15.4767 26.4735 14.393C27.5175 13.2564 28.3171 12.1926 28.8722 11.2014C29.4404 10.1837 29.7246 9.30488 29.7246 8.5648C29.7246 8.08903 29.5792 7.71237 29.2885 7.43484C29.0109 7.18374 28.6012 7.05819 28.0594 7.05819C26.9889 7.05819 25.6739 7.50753 24.1145 8.40621C22.5682 9.30488 21.1211 10.4613 19.773 11.8754C18.4382 13.263 17.3876 14.7432 16.6211 16.3159C15.8545 17.915 15.425 19.4679 15.3325 20.9745ZM43.0264 7.07801L43.2048 7.11766C42.9669 7.59343 42.4515 8.28065 41.6585 9.17933C41.6321 9.21898 41.5858 9.28506 41.5197 9.37757C41.4669 9.45687 41.4074 9.53616 41.3413 9.61546C41.2753 9.68154 41.2026 9.77405 41.1233 9.89299C40.9382 10.1177 40.6541 10.4877 40.2708 11.0031C40.0726 11.2807 39.9008 11.5185 39.7554 11.7168C39.6101 11.9018 39.3854 12.1992 39.0814 12.6089C39.0153 12.7146 38.8766 12.9062 38.6651 13.1837C38.4537 13.4613 38.262 13.7124 38.0902 13.937L35.9493 16.7718L33.7686 19.6463C33.2797 20.3203 32.6387 21.1926 31.8457 22.263L30.2598 24.4437C29.0308 26.1221 28.4162 27.1595 28.4162 27.556C28.4162 27.8467 28.555 27.9921 28.8325 27.9921C29.2158 27.9921 29.903 27.523 30.8942 26.5846C31.8722 25.6727 32.9559 24.4899 34.1453 23.0362L34.403 23.2542C31.6145 26.6375 29.7444 28.3291 28.7929 28.3291C28.2774 28.3291 28.0197 28.0582 28.0197 27.5163C28.0197 27.0009 28.3105 26.2212 28.892 25.1771C29.4603 24.1992 30.0286 23.3071 30.5968 22.5009C31.7598 20.8622 32.6321 19.6992 33.2136 19.0119L35.5131 16.197L37.6938 13.5604L40.0131 10.7652C40.7268 9.89299 41.7312 8.66392 43.0264 7.07801ZM42.7686 2.89519L44.4933 3.0736C45.2202 3.20576 46.0264 3.27184 46.9118 3.27184C48.5242 3.28506 49.4625 2.92162 49.7268 2.18153C49.9911 1.42823 49.2775 1.00532 47.5858 0.912811C46.3435 0.846731 44.4669 1.46127 41.9559 2.75642L42.7686 2.89519Z" fill="white"/>
<path fill-rule="evenodd" clip-rule="evenodd" d="M9.8018 12.9262C10.4494 11.5914 11.3481 10.2962 12.4978 9.04071C13.6212 7.81164 14.9626 6.70812 16.5221 5.73014C20.8701 2.95481 25.9912 1.56714 31.8855 1.56714C34.2908 1.56714 36.9538 1.85128 39.8745 2.41957L41.3415 2.65745C43.8128 1.30943 45.5904 0.582561 46.6741 0.476834C48.1542 0.33146 49.1785 0.509874 49.7467 1.01208C50.315 1.51428 50.5067 2.01648 50.3216 2.51869C50.2423 2.90195 49.8194 3.21913 49.0529 3.47023C48.2864 3.74776 47.2556 3.88653 45.9604 3.88653C44.9428 3.88653 43.8789 3.81384 42.7688 3.66847L41.5992 3.54952C41.3745 3.49666 41.0904 3.4504 40.7467 3.41076C40.1785 3.72794 39.5771 4.07816 38.9428 4.46142C38.3613 4.93719 37.7534 5.43939 37.119 5.96803C36.4846 6.49666 35.8767 7.05833 35.2952 7.65305C34.6608 8.31384 33.967 9.10019 33.2137 10.0121C32.4604 10.9108 31.76 11.8028 31.1124 12.6883L28.7533 15.8205C26.2952 19.098 24.1146 21.609 22.2115 23.3535C20.7113 24.7528 19.2352 25.8575 17.7832 26.6676C17.713 26.7067 17.6428 26.7452 17.5727 26.783C17.6385 26.8303 17.7045 26.8764 17.7707 26.9212C18.9808 27.741 20.2562 28.1509 21.597 28.1509C22.5617 28.1509 23.3943 28.0319 24.0948 27.794C24.7159 27.5694 25.4824 27.1465 26.3943 26.5253L26.6719 26.8425C26.616 26.8883 26.5597 26.9333 26.5029 26.9773C25.1356 28.0372 23.5003 28.5672 21.597 28.5672C20.0639 28.5672 18.6102 28.0319 17.2357 26.9614C16.9978 27.0804 16.7666 27.1927 16.5419 27.2984L15.8084 27.7147L15.1146 28.0121C13.0661 28.9768 10.9516 29.4592 8.77096 29.4592C7.27757 29.4592 5.94277 29.1949 4.76656 28.6663C3.56391 28.1244 2.63219 27.3843 1.9714 26.446C1.28417 25.5209 0.940562 24.4702 0.940562 23.294C0.940562 22.4879 1.11898 21.7081 1.4758 20.9548C1.8062 20.2147 2.28858 19.5804 2.92294 19.0517C3.47331 18.5971 4.08326 18.2887 4.75277 18.1265C4.8228 18.1095 4.89347 18.0941 4.96479 18.0804L5.00444 18.4174C4.00004 18.576 3.141 19.1376 2.42735 20.1024C1.71369 21.0672 1.35686 22.1442 1.35686 23.3337C1.35686 24.1134 1.53528 24.8535 1.8921 25.5539C2.24893 26.2412 2.76435 26.8557 3.43836 27.3976C4.09915 27.913 4.8855 28.3161 5.79739 28.6068C6.66964 28.8976 7.62118 29.0429 8.65202 29.0429C10.793 29.0429 12.815 28.62 14.7181 27.7742L15.1542 27.5958L16.3833 26.9813C16.4932 26.9305 16.6059 26.8744 16.7212 26.8128C16.7861 26.7782 16.8519 26.7418 16.9185 26.7037C16.8672 26.6523 16.8118 26.601 16.7524 26.5496C16.7354 26.5349 16.7181 26.5202 16.7005 26.5055C15.5507 25.3689 14.9362 23.6839 14.8569 21.4504H14.0639C12.478 21.4504 11.2159 21.0341 10.2776 20.2015C9.33924 19.3689 8.87008 18.2588 8.87008 16.8711C8.87008 15.6024 9.18065 14.2874 9.8018 12.9262ZM14.6501 21.6664H14.0639C12.4396 21.6664 11.1217 21.2392 10.1342 20.363C9.14451 19.4848 8.65413 18.3132 8.65413 16.8711C8.65413 15.5664 8.97363 14.2209 9.60533 12.8365L9.60745 12.8319C10.2654 11.4758 11.1767 10.1636 12.3386 8.89487C13.4762 7.65024 14.8327 6.53472 16.4066 5.54763C20.7939 2.74743 25.9564 1.35119 31.8855 1.35119C34.3065 1.35119 36.9825 1.63704 39.9124 2.20694L41.3031 2.43245C42.5153 1.77334 43.5634 1.26246 44.4464 0.901397C45.3422 0.535091 46.0803 0.317787 46.6531 0.261902C48.1421 0.115679 49.2489 0.283931 49.8898 0.850257C50.1899 1.11554 50.4061 1.39406 50.5184 1.68839C50.6309 1.98315 50.6348 2.28307 50.5296 2.57864C50.4726 2.83039 50.3082 3.04153 50.0746 3.21678C49.8377 3.39443 49.517 3.5452 49.1233 3.67442C48.3239 3.96323 47.2659 4.10248 45.9604 4.10248C44.9335 4.10248 43.8612 4.0292 42.7438 3.883L41.5634 3.76295L41.5497 3.75973C41.3508 3.71293 41.0985 3.67062 40.791 3.63343C40.2471 3.93801 39.6726 4.27295 39.0676 4.6383C38.4903 5.11074 37.8868 5.60928 37.2572 6.13393C36.6288 6.65762 36.0265 7.21408 35.4503 7.80333C34.8207 8.45918 34.1307 9.24107 33.3802 10.1496L33.3792 10.1508C32.6288 11.0461 31.9313 11.9344 31.2867 12.8158L31.2849 12.8182L28.9261 15.95C26.4643 19.2324 24.2749 21.7549 22.3581 23.512C20.8806 24.8901 19.4223 25.9881 17.9827 26.8031C19.1332 27.5605 20.3369 27.9349 21.597 27.9349C22.5439 27.9349 23.3513 27.8182 24.0233 27.5902C24.6196 27.3742 25.3683 26.9629 26.2727 26.3468L26.4309 26.2391L26.9811 26.868L26.8089 27.0094C25.3656 28.1939 23.6243 28.7831 21.597 28.7831C20.05 28.7831 18.5868 28.2557 17.2112 27.2148C17.0169 27.3111 16.8269 27.4029 16.6413 27.4903L15.9045 27.9085L15.2032 28.2091C13.1281 29.1858 10.9834 29.6752 8.77096 29.6752C7.25184 29.6752 5.88614 29.4062 4.67803 28.8632C3.44643 28.3084 2.48252 27.5459 1.79641 26.5726C1.08201 25.61 0.724609 24.5147 0.724609 23.294C0.724609 22.4556 0.910252 21.6451 1.27959 20.8646C1.62367 20.0947 2.12612 19.4346 2.78469 18.8858L2.7854 18.8852C3.42041 18.3607 4.13404 18.0208 4.92387 17.8683L5.15211 17.8243L5.24317 18.5983L5.03812 18.6307C4.09965 18.7789 3.28743 19.3028 2.60096 20.2308C1.91454 21.1588 1.57281 22.1909 1.57281 23.3337C1.57281 24.0788 1.74291 24.7851 2.08415 25.4552C2.4254 26.1121 2.91987 26.7034 3.57238 27.2282C4.21015 27.7254 4.97257 28.1172 5.86299 28.4011L5.86569 28.4019C6.71342 28.6845 7.64161 28.827 8.65202 28.827C10.7636 28.827 12.7557 28.4101 14.6304 27.5769L14.6333 27.5756L15.0649 27.399L16.2897 26.7866L16.2928 26.7852C16.3763 26.7466 16.4617 26.7047 16.549 26.6594L16.5487 26.6591C15.3839 25.5077 14.7607 23.8325 14.6501 21.6664ZM17.8304 20.7764C16.8789 21.0936 16.0331 21.2984 15.293 21.3909V21.4901C15.293 22.4416 15.4714 23.3865 15.8282 24.3249C16.1983 25.25 16.674 25.9835 17.2555 26.5253C18.4978 25.7852 19.8789 24.6487 21.3987 23.1156C22.2842 22.2037 22.9714 21.4636 23.4604 20.8953C23.9097 20.3667 24.7688 19.283 26.0375 17.6442C27.6234 15.5165 28.9318 13.8315 29.9626 12.5892C30.9538 11.3865 31.9186 10.2962 32.8569 9.31825C34.2842 7.89093 35.434 6.82045 36.3062 6.10679C36.7027 5.76318 37 5.51869 37.1983 5.37331C37.3437 5.25437 37.4956 5.13543 37.6542 5.01648L38.13 4.65966L38.4274 4.34247C38.9228 4.04518 39.4 3.76165 39.8588 3.49188C39.9173 3.45746 39.9756 3.42326 40.0335 3.38929C40.0343 3.3888 40.0352 3.38832 40.036 3.38784C40.0681 3.36897 40.1002 3.35018 40.1322 3.33146L40.0529 3.31164C39.968 3.29277 39.8898 3.27727 39.8184 3.26513C39.7898 3.26027 39.7622 3.25595 39.7357 3.25217L36.9406 2.77639C34.6146 2.3667 32.4934 2.16186 30.5771 2.16186C25.3965 2.16186 20.7511 3.47023 16.641 6.08697C14.434 7.51428 12.6498 9.21252 11.2886 11.1817C9.94057 13.1244 9.26656 15.0209 9.26656 16.8711C9.26656 17.7301 9.4648 18.4702 9.86127 19.0914C10.2842 19.739 10.8525 20.2279 11.5661 20.5583C12.2798 20.902 13.1388 21.0738 14.1432 21.0738H14.8965C15.0022 19.4086 15.445 17.7632 16.2247 16.1376C16.9912 14.5385 18.0683 13.0121 19.456 11.5583C20.8701 10.0914 22.3701 8.90856 23.956 8.00988C25.5683 7.1112 26.9362 6.66186 28.0595 6.66186C29.4868 6.66186 30.2005 7.30944 30.2005 8.60459C30.2005 9.75437 29.5397 11.2081 28.2181 12.9658C26.923 14.6839 25.2181 16.3425 23.1036 17.9416C22.3106 18.5627 21.4516 19.1178 20.5265 19.6068C19.5881 20.0958 18.6895 20.4857 17.8304 20.7764ZM19.7732 11.8755C21.1212 10.4614 22.5683 9.30503 24.1146 8.40635C25.6741 7.50767 26.989 7.05834 28.0595 7.05834C28.6014 7.05834 29.0111 7.18389 29.2886 7.43499C29.5793 7.71252 29.7247 8.08917 29.7247 8.56494C29.7247 9.30503 29.4406 10.1839 28.8723 11.2015C28.3172 12.1927 27.5177 13.2566 26.4736 14.3931C25.4692 15.4768 24.293 16.5341 22.945 17.5649C20.4554 19.4257 17.9908 20.5512 15.5511 20.9416C15.4783 20.9533 15.4054 20.9643 15.3326 20.9746C15.3371 20.9013 15.3425 20.8278 15.3486 20.7542C15.4678 19.3167 15.892 17.8373 16.6212 16.316C17.3877 14.7434 18.4384 13.2632 19.7732 11.8755ZM16.8156 16.41C16.105 17.8927 15.6908 19.3291 15.5682 20.7201C17.9488 20.329 20.364 19.2242 22.8147 17.3927C24.1538 16.3686 25.3202 15.3198 26.3149 14.2467C27.3511 13.1186 28.1392 12.0685 28.6837 11.0962C29.2434 10.094 29.5088 9.25283 29.5088 8.56494C29.5088 8.13771 29.3805 7.82238 29.1416 7.59322C28.9183 7.39242 28.5699 7.27429 28.0595 7.27429C27.0446 7.27429 25.7691 7.70221 24.2229 8.59317C22.6959 9.48069 21.2647 10.6239 19.9295 12.0245L19.9288 12.0252C18.6083 13.3981 17.5713 14.8597 16.8156 16.41ZM23.2353 18.1127C22.4323 18.7416 21.5629 19.3033 20.6274 19.7977L20.6263 19.7983C19.6797 20.2916 18.7708 20.6861 17.8997 20.981L17.8987 20.9813C17.0172 21.2751 16.2205 21.4752 15.5095 21.5794C15.5203 22.4726 15.6931 23.3613 16.0294 24.2463C16.3647 25.0841 16.7851 25.751 17.2861 26.2544C18.4708 25.5258 19.7902 24.4313 21.2445 22.9644C22.1281 22.0544 22.8115 21.3183 23.2963 20.755C23.7418 20.2307 24.5974 19.1516 25.8655 17.5136C27.4518 15.3853 28.7623 13.6976 29.7963 12.4515C30.7903 11.2454 31.7586 10.1511 32.701 9.16874L32.7041 9.16551C34.1319 7.73771 35.2869 6.66202 36.1671 5.94161C36.5601 5.60105 36.8607 5.3535 37.0659 5.20257C37.2125 5.0828 37.3654 4.96319 37.5247 4.84372L37.9854 4.4982L38.2904 4.1728L38.3163 4.1573C38.7332 3.90713 39.1372 3.66667 39.5283 3.43592L36.9031 2.98908C34.5868 2.58108 32.4784 2.37781 30.5771 2.37781C25.4352 2.37781 20.8308 3.67573 16.7577 6.26869C14.5723 7.68206 12.8097 9.36096 11.4662 11.3045C10.1363 13.2211 9.48251 15.0757 9.48251 16.8711C9.48251 17.6955 9.67223 18.3934 10.0427 18.9742C10.443 19.5869 10.9796 20.0488 11.6568 20.3624L11.6598 20.3637C12.3375 20.69 13.1628 20.8578 14.1432 20.8578H14.6955C14.825 19.232 15.2707 17.6272 16.03 16.0443C16.8075 14.4221 17.8985 12.8773 19.2998 11.4092L19.3005 11.4085C20.7274 9.92828 22.2436 8.73204 23.8495 7.82199L23.8509 7.82124C25.4769 6.9149 26.8829 6.44591 28.0595 6.44591C28.8016 6.44591 29.3984 6.61379 29.8104 6.98762C30.2263 7.36506 30.4164 7.91802 30.4164 8.60459C30.4164 9.82785 29.7185 11.3297 28.3907 13.0956C27.0814 14.8324 25.3616 16.5046 23.2353 18.1127ZM44.4934 3.07375L42.7688 2.89534L41.956 2.75657C42.0645 2.7006 42.1718 2.6459 42.278 2.59247C44.628 1.40957 46.3974 0.849734 47.586 0.912958C49.2776 1.00547 49.9912 1.42838 49.7269 2.18168C49.4626 2.92177 48.5243 3.28521 46.9119 3.27199C46.0265 3.27199 45.2203 3.20591 44.4934 3.07375ZM49.5233 2.10971C49.577 1.95657 49.5735 1.84327 49.5401 1.75572C49.5061 1.6669 49.4297 1.5741 49.2798 1.4853C48.9706 1.30204 48.4143 1.17454 47.5743 1.12859C46.4888 1.07093 44.8509 1.56481 42.6388 2.65407L42.7981 2.68126L44.5239 2.8598L44.5321 2.86128C45.244 2.99072 46.037 3.05604 46.9119 3.05604H46.9137C47.7071 3.06255 48.3139 2.97568 48.7469 2.80795C49.1749 2.6422 49.4178 2.40463 49.5233 2.10971ZM42.9434 6.83848L43.5217 6.967L43.3981 7.21438C43.1475 7.7154 42.6186 8.4171 41.83 9.31166C41.8011 9.35438 41.7566 9.41776 41.6976 9.50049C41.6406 9.58567 41.5771 9.67011 41.5074 9.75385L41.5011 9.76138L41.4942 9.76831C41.4419 9.82053 41.3782 9.9003 41.3031 10.0129L41.297 10.022L41.2901 10.0304C41.1089 10.2504 40.8279 10.6162 40.4455 11.1304C40.2474 11.4077 40.0755 11.6458 39.9297 11.8446L39.9276 11.8475L39.9254 11.8503C39.7827 12.0319 39.5612 12.325 39.2599 12.731C39.1863 12.8475 39.0433 13.0441 38.837 13.3148C38.6257 13.5921 38.4342 13.8431 38.2624 14.0677C38.2622 14.068 38.2621 14.0682 38.2619 14.0684L36.1217 16.9021L33.9436 19.7733C33.9431 19.7739 33.9426 19.7745 33.9422 19.7752C33.4529 20.4496 32.8121 21.3216 32.0199 22.3911C32.0197 22.3913 32.0196 22.3915 32.0194 22.3917L30.4342 24.5714C29.8213 25.4084 29.3651 26.0809 29.0631 26.5908C28.9119 26.8459 28.8018 27.0563 28.7301 27.2237C28.6558 27.397 28.6323 27.5027 28.6323 27.5561C28.6323 27.6707 28.6598 27.7165 28.6766 27.7341C28.6917 27.7499 28.7298 27.7763 28.8326 27.7763C28.953 27.7763 29.1726 27.6949 29.5137 27.462C29.8439 27.2367 30.254 26.8935 30.7459 26.4279L30.747 26.4268C31.7157 25.5236 32.7927 24.3486 33.9783 22.8996L34.1173 22.7296L34.7054 23.2272L34.5698 23.3917C33.1729 25.0865 32.0005 26.3645 31.0541 27.2207C30.581 27.6486 30.1593 27.9759 29.7899 28.1973C29.4251 28.416 29.0891 28.5452 28.793 28.5452C28.4992 28.5452 28.2398 28.4675 28.0567 28.2749C27.8755 28.0844 27.8039 27.8181 27.8039 27.5165C27.8039 27.2221 27.8861 26.8707 28.0356 26.4697C28.186 26.0663 28.4095 25.6 28.7035 25.0722L28.7054 25.0688C29.2764 24.0861 29.8481 23.1887 30.4205 22.3767L30.4209 22.3761C31.5833 20.738 32.4597 19.569 33.0476 18.8741C33.048 18.8736 33.0484 18.8731 33.0489 18.8726L35.3469 16.0595L37.5275 13.4229L39.8461 10.6286C39.8463 10.6284 39.8465 10.6282 39.8466 10.628C40.5602 9.75587 41.5644 8.52707 42.8592 6.94156L42.9434 6.83848ZM40.0133 10.7654L37.6939 13.5605L35.5133 16.1971L33.2137 19.0121C32.6322 19.6993 31.76 20.8623 30.597 22.5011C30.0287 23.3072 29.4604 24.1993 28.8921 25.1773C28.3106 26.2213 28.0199 27.0011 28.0199 27.5165C28.0199 28.0583 28.2776 28.3293 28.793 28.3293C29.7445 28.3293 31.6146 26.6376 34.4031 23.2544L34.1454 23.0363C34.0996 23.0924 34.0539 23.148 34.0084 23.2032C32.8726 24.5808 31.8346 25.708 30.8943 26.5848C29.9031 27.5231 29.2159 27.9923 28.8326 27.9923C28.5551 27.9923 28.4163 27.8469 28.4163 27.5561C28.4163 27.1597 29.0309 26.1222 30.26 24.4438L31.8459 22.2632C32.6388 21.1927 33.2798 20.3205 33.7688 19.6464L35.9494 16.772L38.0904 13.9372C38.2622 13.7125 38.4538 13.4614 38.6652 13.1839C38.8767 12.9064 39.0155 12.7147 39.0816 12.609C39.3855 12.1993 39.6102 11.9019 39.7556 11.7169C39.9009 11.5187 40.0727 11.2808 40.271 11.0033C40.6542 10.4879 40.9384 10.1178 41.1234 9.89314C41.2027 9.77419 41.2754 9.68168 41.3415 9.6156C41.4075 9.53631 41.467 9.45701 41.5199 9.37772C41.586 9.28521 41.6322 9.21913 41.6586 9.17948C42.3162 8.43429 42.7829 7.83449 43.0587 7.38009C43.0721 7.3581 43.085 7.33645 43.0974 7.31515C43.1221 7.27287 43.1451 7.23193 43.1663 7.19233C43.1799 7.16694 43.1928 7.1421 43.2049 7.11781L43.0265 7.07816C42.9779 7.13764 42.9297 7.19662 42.882 7.2551C41.6564 8.75576 40.7002 9.92585 40.0133 10.7654Z" fill="white"/>
</svg>
