<svg width="262" height="29" viewBox="0 0 262 29" fill="none" xmlns="http://www.w3.org/2000/svg">
<path d="M22.241 4.34105L22.1221 4.42034C22.6639 5.34545 22.9349 6.45559 22.9349 7.75074V8.48422L22.8952 8.60316C22.9745 8.57673 23.0274 8.56352 23.0538 8.56352L23.2322 8.52387C24.8578 8.12739 26.3644 7.63841 27.7521 7.05691C29.219 6.43576 30.3754 5.81462 31.2212 5.19347C32.3314 4.32122 32.8864 3.52166 32.8864 2.79479C32.8864 2.42475 32.7146 2.14061 32.371 1.94237C32.001 1.75735 31.4855 1.66483 30.8247 1.66483C28.4723 1.66483 25.6111 2.55691 22.241 4.34105ZM21.7653 4.61858C20.9988 5.04149 20.1529 5.58995 19.2278 6.26396C18.3952 6.87189 17.4569 7.61858 16.4128 8.50404C15.501 9.27057 14.7807 9.93797 14.2521 10.5062L14.6485 10.427L15.7587 10.1891L17.0472 9.95118C17.219 9.89832 17.4503 9.83885 17.741 9.77277C18.0054 9.70669 18.3027 9.64722 18.6331 9.59435C18.8049 9.55471 18.9239 9.52827 18.9899 9.51506C19.056 9.50184 19.1684 9.47541 19.3269 9.43576C19.4855 9.39612 19.6309 9.36308 19.7631 9.33664L21.1507 9.01946L22.4988 8.68246C22.5252 8.44457 22.5384 8.16043 22.5384 7.83004C22.5384 6.68026 22.2807 5.60977 21.7653 4.61858ZM6.50095 23.9071V24.0261C6.50095 25.2023 6.82474 26.1208 7.47231 26.7816C8.11989 27.4688 8.98553 27.8124 10.0692 27.8124C11.1661 27.8124 12.3159 27.4952 13.5186 26.8609C14.6948 26.253 15.8842 25.3477 17.0869 24.145C18.3424 22.8895 19.3666 21.5085 20.1595 20.0018C20.9525 18.4952 21.349 17.1737 21.349 16.0371C21.349 15.3102 21.1639 14.7023 20.7939 14.2133L20.7543 14.3322C19.9084 15.5349 19.0891 16.5525 18.2961 17.3851C17.4106 18.3234 16.512 19.1296 15.6001 19.8036C14.7278 20.4776 13.6838 21.145 12.4679 21.8058C11.3181 22.4137 10.2476 22.8895 9.25646 23.2331C8.27848 23.5767 7.35998 23.8014 6.50095 23.9071ZM5.92606 23.5503H6.045C6.08465 21.6208 6.59346 19.645 7.57143 17.623C8.54941 15.6142 9.93707 13.6516 11.7344 11.7353L11.8137 11.656C9.73884 12.2243 7.8754 12.9908 6.22342 13.9556C4.59786 14.9071 3.32253 15.9446 2.39742 17.0679C1.47231 18.1913 1.00976 19.3212 1.00976 20.4578C1.00976 21.4226 1.37319 22.1891 2.10007 22.7574C2.82694 23.3389 3.7917 23.6296 4.99434 23.6296C5.19258 23.6296 5.50315 23.6032 5.92606 23.5503ZM20.7543 13.5591C20.7675 13.5195 20.7873 13.4732 20.8137 13.4203C20.8269 13.4071 20.8468 13.3741 20.8732 13.3212C21.6529 11.9732 22.1816 10.5922 22.4591 9.17805H22.3203L19.8622 9.77277C18.8974 9.98422 17.9855 10.1759 17.1265 10.3477L15.6001 10.6847C15.5869 10.6847 15.045 10.8036 13.9745 11.0415L13.6772 11.0811L13.3996 11.3587C12.7124 12.1252 12.0582 12.8917 11.4371 13.6582C10.8291 14.4248 10.2807 15.1648 9.7917 15.8785C9.31593 16.5789 8.8798 17.2662 8.48333 17.9402C7.33355 19.949 6.68597 21.8058 6.5406 23.5107C8.19258 23.2463 9.92386 22.6582 11.7344 21.7463C12.5538 21.3366 13.4062 20.8344 14.2917 20.2397C15.1772 19.6318 15.9899 18.9974 16.73 18.3366C17.4701 17.6891 18.1507 17.0018 18.7719 16.275C19.4062 15.5481 19.9679 14.7882 20.4569 13.9952L20.4965 13.8763C20.0604 13.4798 19.4657 13.2816 18.7124 13.2816C17.7741 13.2816 16.8093 13.5591 15.8181 14.1142C14.8137 14.6957 13.8886 15.4886 13.0428 16.493C12.1706 17.5107 11.4239 18.6869 10.8027 20.0217L10.4657 19.9226C10.9415 18.6406 11.6419 17.471 12.567 16.4137C13.4789 15.33 14.4965 14.4776 15.6199 13.8565C16.7565 13.2221 17.8137 12.9049 18.7917 12.9049C19.5847 12.9049 20.2388 13.123 20.7543 13.5591ZM21.0318 13.8763C21.6001 14.6032 21.8842 15.5151 21.8842 16.612C21.8842 17.4181 21.719 18.2574 21.3886 19.1296C21.0582 20.0018 20.5758 20.9005 19.9415 21.8256C19.2939 22.7375 18.5076 23.6362 17.5825 24.5217C14.9657 26.9798 12.4745 28.2089 10.1089 28.2089C9.2895 28.2089 8.58906 28.0437 8.00756 27.7133C7.41284 27.4093 6.94368 26.927 6.60007 26.2662C6.26967 25.6318 6.08465 24.8587 6.045 23.9468H5.92606C5.50315 23.9996 5.17936 24.0261 4.95469 24.0261C3.65954 24.0261 2.61548 23.6891 1.82253 23.0151C1.01637 22.3675 0.613281 21.5018 0.613281 20.4181C0.613281 18.5811 1.68377 16.8036 3.82474 15.0855C5.96571 13.3543 8.78069 12.0062 12.2697 11.0415H12.3886L12.4679 10.9225C13.1816 10.1692 14.0604 9.37629 15.1045 8.54369C16.175 7.68466 17.2983 6.85867 18.4745 6.06572C19.5979 5.2992 20.6155 4.68466 21.5274 4.2221C21.0913 3.62739 20.5362 3.18466 19.8622 2.89391C19.1485 2.58995 18.349 2.43796 17.4635 2.43796C16.1287 2.43796 14.8732 2.74854 13.697 3.36968C12.5208 3.97761 11.5032 4.84325 10.6441 5.9666C9.71901 7.16924 9.21681 8.37189 9.13751 9.57453H8.76086C8.84016 8.30581 9.30932 7.08334 10.1684 5.90713C11.0274 4.75735 12.1177 3.82563 13.4393 3.11197C14.7741 2.41153 16.1287 2.06131 17.5032 2.06131C19.4988 2.06131 20.9591 2.7155 21.8842 4.02387L22.0032 3.98422C23.2322 3.34986 24.3622 2.83444 25.393 2.43796C26.3842 2.06792 27.3622 1.77056 28.3269 1.54589C29.2653 1.34765 30.1111 1.24854 30.8644 1.24854C31.6309 1.24854 32.2388 1.38069 32.6882 1.64501C33.1111 1.92254 33.3225 2.3058 33.3225 2.79479C33.3225 3.50845 32.9062 4.25514 32.0736 5.03488C31.241 5.8014 30.0516 6.52167 28.5054 7.19567C26.9855 7.8829 25.241 8.47761 23.2719 8.97982C23.0472 9.03268 22.9084 9.05911 22.8556 9.05911C22.578 10.7507 21.9701 12.3565 21.0318 13.8763Z" fill="white"/>
<path d="M23.1761 12.0557H25.9977V12.2587H25.8759C25.7271 12.2587 25.6256 12.306 25.5714 12.4008C25.5173 12.482 25.4902 12.5699 25.4902 12.6647C25.4902 12.7323 25.497 12.7932 25.5105 12.8474C25.5241 12.9015 25.5376 12.9421 25.5511 12.9692L29.0224 20.5612L32.1282 13.1925C32.1417 13.1654 32.162 13.1113 32.1891 13.0301C32.2162 12.9353 32.2297 12.8474 32.2297 12.7662C32.2297 12.5767 32.162 12.4481 32.0267 12.3805C31.8914 12.2993 31.7899 12.2587 31.7222 12.2587V12.0557H33.8943V12.2587C33.6507 12.2587 33.4612 12.3263 33.3259 12.4617C33.2041 12.5835 33.1093 12.712 33.0417 12.8474L28.1698 24.4993C28.0074 24.8918 27.7909 25.1827 27.5202 25.3722C27.2495 25.5481 26.9586 25.6361 26.6473 25.6361C26.4443 25.6361 26.2616 25.6023 26.0992 25.5346C25.9368 25.4805 25.7947 25.4128 25.6729 25.3316C25.5511 25.2504 25.4564 25.176 25.3887 25.1083C25.3346 25.0406 25.3075 25.0068 25.3075 25.0068L25.815 23.8903C25.9233 24.1475 26.0654 24.3504 26.2413 24.4993C26.4173 24.6346 26.6 24.7023 26.7894 24.7023C26.9112 24.7023 27.033 24.6617 27.1548 24.5805C27.2901 24.4858 27.4052 24.3437 27.4999 24.1542L28.2916 22.2258L24.0693 12.9083C23.8798 12.5023 23.5821 12.2857 23.1761 12.2587V12.0557Z" fill="white"/>
<path d="M38.2074 12.0557H41.0697V12.2587H40.9073C40.8126 12.2722 40.7246 12.3196 40.6434 12.4008C40.5757 12.482 40.5148 12.5767 40.4607 12.685C40.4066 12.7932 40.366 12.915 40.3389 13.0504C40.3118 13.1722 40.2983 13.2804 40.2983 13.3751V13.4766C41.2321 13.5037 42.0779 13.6593 42.8357 13.9435C43.6071 14.2142 44.2702 14.5864 44.8251 15.06C45.38 15.5337 45.8063 16.0885 46.104 16.7246C46.4152 17.3471 46.5709 18.0237 46.5709 18.7545C46.5709 19.553 46.3949 20.277 46.0431 20.9266C45.7048 21.5762 45.2446 22.131 44.6627 22.5912C44.0808 23.0513 43.4109 23.4167 42.6531 23.6873C41.9087 23.9445 41.1238 24.0798 40.2983 24.0933V24.1948C40.2983 24.2895 40.3118 24.3978 40.3389 24.5196C40.366 24.6414 40.4066 24.7564 40.4607 24.8647C40.5284 24.973 40.6028 25.0677 40.684 25.1489C40.7652 25.2166 40.8599 25.2504 40.9682 25.2504H41.0697V25.4534H38.2074V25.2504H38.3089C38.4037 25.2504 38.4916 25.2166 38.5728 25.1489C38.6676 25.0677 38.742 24.973 38.7961 24.8647C38.8503 24.7564 38.8909 24.6414 38.9179 24.5196C38.9585 24.3978 38.9788 24.2895 38.9788 24.1948V24.0933C38.0315 24.0663 37.1722 23.9174 36.4008 23.6467C35.6294 23.3625 34.9663 22.9836 34.4114 22.51C33.8701 22.0228 33.4438 21.4611 33.1326 20.8251C32.8348 20.189 32.686 19.4988 32.686 18.7545C32.686 17.9696 32.8484 17.2591 33.1732 16.6231C33.5115 15.9735 33.9648 15.4254 34.5332 14.9788C35.1016 14.5187 35.7647 14.1601 36.5226 13.9029C37.294 13.6458 38.1127 13.5037 38.9788 13.4766V13.3751C38.9788 13.2804 38.9585 13.1722 38.9179 13.0504C38.8909 12.915 38.8503 12.7932 38.7961 12.685C38.742 12.5767 38.6743 12.482 38.5931 12.4008C38.5119 12.3196 38.424 12.2722 38.3292 12.2587H38.2074V12.0557ZM34.0054 18.5515C34.0054 19.147 34.1408 19.7357 34.4114 20.3176C34.6956 20.886 35.0678 21.4002 35.5279 21.8604C35.988 22.307 36.5158 22.6723 37.1113 22.9565C37.7067 23.2407 38.3292 23.3964 38.9788 23.4234V14.1465C38.1668 14.1601 37.4496 14.3022 36.8271 14.5728C36.2046 14.8435 35.6835 15.1886 35.264 15.6081C34.8445 16.0141 34.5265 16.481 34.3099 17.0088C34.1069 17.523 34.0054 18.0373 34.0054 18.5515ZM45.2311 18.9575C45.2311 18.3621 45.1025 17.7802 44.8454 17.2118C44.5883 16.6434 44.2364 16.1359 43.7898 15.6893C43.3432 15.2427 42.8222 14.8841 42.2268 14.6134C41.6313 14.3292 40.9885 14.1736 40.2983 14.1465V23.4234C41.0562 23.3964 41.7396 23.2543 42.3486 22.9971C42.9575 22.7265 43.4718 22.3882 43.8913 21.9822C44.3244 21.5626 44.6559 21.0958 44.886 20.5815C45.1161 20.0537 45.2311 19.5124 45.2311 18.9575Z" fill="white"/>
<path d="M56.4298 25.2504H56.5313C56.6396 25.2504 56.7343 25.2166 56.8155 25.1489C56.8967 25.0677 56.9644 24.973 57.0185 24.8647C57.0862 24.7429 57.1335 24.6211 57.1606 24.4993C57.1876 24.364 57.2012 24.2422 57.2012 24.1339V14.8367L50.4617 23.9512V24.1339C50.4617 24.2422 50.4753 24.364 50.5023 24.4993C50.5429 24.6211 50.5903 24.7361 50.6444 24.8444C50.6986 24.9527 50.7662 25.0474 50.8474 25.1286C50.9286 25.2098 51.0233 25.2504 51.1316 25.2504H51.2331V25.4534H48.3506V25.2504H48.4521C48.5603 25.2504 48.6551 25.2166 48.7363 25.1489C48.8175 25.0677 48.8851 24.973 48.9393 24.8647C49.0069 24.7429 49.0543 24.6211 49.0814 24.4993C49.1084 24.364 49.122 24.2422 49.122 24.1339V13.3142C49.122 13.2195 49.1084 13.1113 49.0814 12.9895C49.0543 12.8677 49.0069 12.7526 48.9393 12.6444C48.8851 12.5361 48.8175 12.4481 48.7363 12.3805C48.6551 12.2993 48.5603 12.2587 48.4521 12.2587H48.3506V12.0557H51.2331V12.2587H51.0707C50.976 12.2722 50.888 12.3196 50.8068 12.4008C50.7392 12.482 50.6782 12.5767 50.6241 12.685C50.57 12.7797 50.5294 12.888 50.5023 13.0098C50.4753 13.118 50.4617 13.2195 50.4617 13.3142V22.6926L57.2012 13.5781V13.3142C57.2012 13.2195 57.1876 13.1113 57.1606 12.9895C57.1335 12.8677 57.0862 12.7526 57.0185 12.6444C56.9644 12.5361 56.8967 12.4481 56.8155 12.3805C56.7343 12.2993 56.6396 12.2587 56.5313 12.2587H56.4298V12.0557H59.3123V12.2587H59.2108C59.1026 12.2587 59.0078 12.2993 58.9266 12.3805C58.8454 12.4481 58.7778 12.5361 58.7236 12.6444C58.6695 12.7526 58.6221 12.8677 58.5815 12.9895C58.5545 13.1113 58.541 13.2195 58.541 13.3142V24.1339C58.541 24.2422 58.5545 24.3572 58.5815 24.479C58.6221 24.6008 58.6695 24.7226 58.7236 24.8444C58.7778 24.9527 58.8454 25.0474 58.9266 25.1286C59.0078 25.2098 59.1026 25.2504 59.2108 25.2504H59.3123V25.4534H56.4298V25.2504Z" fill="white"/>
<path d="M68.9702 9.39643C68.9702 9.62649 68.916 9.86332 68.8078 10.1069C68.6995 10.3505 68.5439 10.5806 68.3409 10.7971C68.1514 11.0136 67.9146 11.1896 67.6304 11.3249C67.3597 11.4602 67.0552 11.5279 66.7169 11.5279C66.3921 11.5279 66.0876 11.467 65.8034 11.3452C65.5328 11.2099 65.296 11.0407 65.093 10.8377C64.89 10.6347 64.7276 10.4046 64.6058 10.1475C64.484 9.89039 64.4231 9.64003 64.4231 9.39643H64.5449C64.5584 9.47763 64.599 9.59266 64.6667 9.74152C64.7479 9.89039 64.8697 10.0393 65.0321 10.1881C65.1945 10.337 65.411 10.4655 65.6816 10.5738C65.9523 10.6821 66.2906 10.7362 66.6966 10.7362C67.1161 10.7362 67.4545 10.6821 67.7116 10.5738C67.9823 10.4655 68.1988 10.337 68.3612 10.1881C68.5236 10.0393 68.6386 9.89039 68.7063 9.74152C68.7739 9.59266 68.8213 9.47763 68.8484 9.39643H68.9702ZM69.3153 25.2504H69.4168C69.525 25.2504 69.6198 25.2166 69.701 25.1489C69.7822 25.0677 69.8498 24.973 69.904 24.8647C69.9716 24.7429 70.019 24.6211 70.0461 24.4993C70.0731 24.364 70.0866 24.2422 70.0866 24.1339V14.8367L63.3472 23.9512V24.1339C63.3472 24.2422 63.3607 24.364 63.3878 24.4993C63.4284 24.6211 63.4758 24.7361 63.5299 24.8444C63.584 24.9527 63.6517 25.0474 63.7329 25.1286C63.8141 25.2098 63.9088 25.2504 64.0171 25.2504H64.1186V25.4534H61.236V25.2504H61.3375C61.4458 25.2504 61.5405 25.2166 61.6217 25.1489C61.7029 25.0677 61.7706 24.973 61.8247 24.8647C61.8924 24.7429 61.9398 24.6211 61.9668 24.4993C61.9939 24.364 62.0074 24.2422 62.0074 24.1339V13.3142C62.0074 13.2195 61.9939 13.1113 61.9668 12.9895C61.9398 12.8677 61.8924 12.7526 61.8247 12.6444C61.7706 12.5361 61.7029 12.4481 61.6217 12.3805C61.5405 12.2993 61.4458 12.2587 61.3375 12.2587H61.236V12.0557H64.1186V12.2587H63.9562C63.8614 12.2722 63.7735 12.3196 63.6923 12.4008C63.6246 12.482 63.5637 12.5767 63.5096 12.685C63.4555 12.7797 63.4149 12.888 63.3878 13.0098C63.3607 13.118 63.3472 13.2195 63.3472 13.3142V22.6926L70.0866 13.5781V13.3142C70.0866 13.2195 70.0731 13.1113 70.0461 12.9895C70.019 12.8677 69.9716 12.7526 69.904 12.6444C69.8498 12.5361 69.7822 12.4481 69.701 12.3805C69.6198 12.2993 69.525 12.2587 69.4168 12.2587H69.3153V12.0557H72.1978V12.2587H72.0963C71.988 12.2587 71.8933 12.2993 71.8121 12.3805C71.7309 12.4481 71.6632 12.5361 71.6091 12.6444C71.555 12.7526 71.5076 12.8677 71.467 12.9895C71.4399 13.1113 71.4264 13.2195 71.4264 13.3142V24.1339C71.4264 24.2422 71.4399 24.3572 71.467 24.479C71.5076 24.6008 71.555 24.7226 71.6091 24.8444C71.6632 24.9527 71.7309 25.0474 71.8121 25.1286C71.8933 25.2098 71.988 25.2504 72.0963 25.2504H72.1978V25.4534H69.3153V25.2504Z" fill="white"/>
<path d="M81.267 12.5835C80.2655 12.5835 79.3926 12.7662 78.6483 13.1316C77.9175 13.4834 77.3085 13.9503 76.8213 14.5322C76.3342 15.1006 75.9688 15.7434 75.7252 16.4607C75.4951 17.1779 75.3801 17.8884 75.3801 18.5921C75.3801 19.3906 75.5357 20.1755 75.847 20.9469C76.1582 21.7047 76.5845 22.3814 77.1258 22.9768C77.6807 23.5588 78.3235 24.0324 79.0543 24.3978C79.7851 24.7497 80.5768 24.9256 81.4294 24.9256C81.6729 24.9256 81.9571 24.8985 82.2819 24.8444C82.6203 24.7903 82.9518 24.6888 83.2766 24.5399C83.6014 24.3775 83.8991 24.1542 84.1698 23.87C84.454 23.5858 84.6705 23.2137 84.8194 22.7535H85.0224V25.0068C84.8194 25.0068 84.6029 25.0339 84.3728 25.088C84.1563 25.1421 83.9127 25.203 83.642 25.2707C83.2901 25.3654 82.8977 25.4534 82.4646 25.5346C82.0451 25.6158 81.5985 25.6564 81.1249 25.6564C79.9475 25.6564 78.9122 25.4534 78.019 25.0474C77.1258 24.6414 76.3815 24.1136 75.7861 23.464C75.1906 22.8144 74.744 22.0837 74.4463 21.2717C74.1486 20.4462 73.9997 19.6139 73.9997 18.7748C73.9997 17.9358 74.1486 17.1035 74.4463 16.278C74.744 15.4525 75.1974 14.7149 75.8064 14.0653C76.4154 13.4022 77.18 12.8677 78.1002 12.4617C79.0205 12.0557 80.1031 11.8527 81.3482 11.8527C81.7947 11.8527 82.194 11.8933 82.5458 11.9745C82.9112 12.0557 83.236 12.1369 83.5202 12.2181C83.7232 12.2857 83.9059 12.3399 84.0683 12.3805C84.2442 12.4075 84.4134 12.4211 84.5758 12.4211V14.6743H84.3728C84.2916 14.2548 84.1427 13.9097 83.9262 13.639C83.7097 13.3548 83.4525 13.1383 83.1548 12.9895C82.8706 12.8406 82.5594 12.7391 82.221 12.685C81.8962 12.6173 81.5782 12.5835 81.267 12.5835Z" fill="white"/>
<path d="M86.7691 25.2504H86.8706C86.9789 25.2504 87.0736 25.2098 87.1548 25.1286C87.236 25.0474 87.3036 24.9527 87.3578 24.8444C87.4254 24.7361 87.4728 24.6211 87.4999 24.4993C87.5269 24.364 87.5405 24.2422 87.5405 24.1339V13.3142C87.5405 13.2195 87.5269 13.1113 87.4999 12.9895C87.4728 12.8677 87.4254 12.7526 87.3578 12.6444C87.3036 12.5361 87.236 12.4481 87.1548 12.3805C87.0736 12.2993 86.9856 12.2587 86.8909 12.2587H86.7894V12.0557H89.6719V12.2587H89.5704C89.4622 12.2587 89.3674 12.2993 89.2862 12.3805C89.205 12.4481 89.1306 12.5361 89.0629 12.6444C89.0088 12.7526 88.9614 12.8677 88.9208 12.9895C88.8938 13.1113 88.8802 13.2195 88.8802 13.3142V17.5163L93.5897 12.8271C93.698 12.7188 93.7521 12.5902 93.7521 12.4414C93.7521 12.3196 93.698 12.2587 93.5897 12.2587V12.0557H95.7821V12.2587C95.5114 12.2722 95.2678 12.3534 95.0513 12.5023C94.8483 12.6511 94.625 12.8474 94.3814 13.091L89.5704 17.902C90.4501 17.929 91.1606 18.1185 91.7019 18.4703C92.2432 18.8222 92.6695 19.3094 92.9808 19.9319L94.5844 23.1798C94.6792 23.3828 94.8009 23.6061 94.9498 23.8497C95.1122 24.0798 95.2881 24.3031 95.4776 24.5196C95.6806 24.7226 95.9039 24.8985 96.1475 25.0474C96.3911 25.1827 96.6482 25.2504 96.9189 25.2504V25.4534H95.9039C95.5114 25.4534 95.1731 25.3993 94.8889 25.291C94.6047 25.1692 94.3544 25.0136 94.1378 24.8241C93.9348 24.6211 93.7521 24.3978 93.5897 24.1542C93.4409 23.9106 93.3055 23.667 93.1837 23.4234L91.5395 20.1552C91.2824 19.6545 90.9237 19.2756 90.4636 19.0184C90.017 18.7478 89.4892 18.5989 88.8802 18.5718V24.1339C88.8802 24.2422 88.8938 24.3572 88.9208 24.479C88.9479 24.6008 88.9885 24.7226 89.0426 24.8444C89.0968 24.9527 89.1644 25.0474 89.2456 25.1286C89.3268 25.1963 89.4148 25.2369 89.5095 25.2504H89.6516V25.4534H86.7691V25.2504Z" fill="white"/>
<path d="M103.522 11.8527C104.578 11.8527 105.525 12.0421 106.364 12.4211C107.203 12.7865 107.913 13.2872 108.495 13.9232C109.091 14.5458 109.544 15.2765 109.855 16.1156C110.18 16.9411 110.343 17.8072 110.343 18.7139C110.343 19.7289 110.153 20.6627 109.774 21.5153C109.409 22.3679 108.901 23.0986 108.252 23.7076C107.602 24.3166 106.844 24.797 105.978 25.1489C105.126 25.4872 104.212 25.6564 103.238 25.6564C102.196 25.6564 101.255 25.4669 100.416 25.088C99.5906 24.7091 98.8869 24.2083 98.3049 23.5858C97.7366 22.9633 97.2967 22.2461 96.9855 21.4341C96.6742 20.6221 96.5186 19.7763 96.5186 18.8966C96.5186 18.0305 96.6742 17.1779 96.9855 16.3389C97.2967 15.4863 97.7501 14.7285 98.3455 14.0653C98.9545 13.4022 99.6921 12.8677 100.558 12.4617C101.424 12.0557 102.412 11.8527 103.522 11.8527ZM103.502 24.9459C104.408 24.9053 105.2 24.7023 105.877 24.3369C106.567 23.958 107.142 23.4843 107.602 22.9159C108.062 22.334 108.401 21.698 108.617 21.0078C108.847 20.3176 108.962 19.6342 108.962 18.9575C108.962 18.2132 108.827 17.4621 108.556 16.7043C108.286 15.9464 107.9 15.263 107.399 14.654C106.898 14.0315 106.296 13.5308 105.592 13.1519C104.902 12.7594 104.124 12.5632 103.258 12.5632C102.419 12.5632 101.668 12.7526 101.005 13.1316C100.342 13.4969 99.7733 13.9706 99.2996 14.5525C98.8395 15.1344 98.4876 15.784 98.244 16.5013C98.0005 17.2185 97.8787 17.9223 97.8787 18.6124C97.8787 19.3568 98.0208 20.1078 98.3049 20.8657C98.5891 21.61 98.9816 22.2867 99.4823 22.8956C99.983 23.5046 100.572 23.9986 101.248 24.3775C101.939 24.7564 102.69 24.9459 103.502 24.9459Z" fill="white"/>
<path d="M112.124 25.2504H112.225C112.333 25.2504 112.428 25.2166 112.509 25.1489C112.591 25.0677 112.658 24.973 112.712 24.8647C112.78 24.7564 112.827 24.6414 112.855 24.5196C112.895 24.3978 112.915 24.2828 112.915 24.1745V13.3142C112.915 13.2195 112.895 13.1113 112.855 12.9895C112.827 12.8677 112.78 12.7526 112.712 12.6444C112.658 12.5361 112.591 12.4481 112.509 12.3805C112.428 12.2993 112.333 12.2587 112.225 12.2587H112.124V12.0557H119.939V13.9435H119.736C119.709 13.6323 119.587 13.3616 119.371 13.1316C119.154 12.888 118.816 12.7662 118.356 12.7662H114.275V17.902H117.645C117.956 17.902 118.214 17.8072 118.417 17.6178C118.633 17.4283 118.741 17.205 118.741 16.9479H118.944V19.4853H118.741C118.741 19.2417 118.64 19.032 118.437 18.856C118.234 18.6801 117.97 18.5921 117.645 18.5921H114.275V24.7429H118.721C118.978 24.7429 119.202 24.682 119.391 24.5602C119.58 24.4384 119.736 24.2963 119.858 24.1339C119.993 23.958 120.088 23.7753 120.142 23.5858C120.21 23.3828 120.244 23.2137 120.244 23.0783H120.447V25.4534H112.124V25.2504Z" fill="white"/>
<path d="M127.249 25.2504H127.351C127.459 25.2504 127.554 25.2166 127.635 25.1489C127.716 25.0677 127.784 24.973 127.838 24.8647C127.892 24.7429 127.933 24.6211 127.96 24.4993C127.987 24.364 128 24.2422 128 24.1339V13.3142C128 13.2195 127.98 13.1113 127.939 12.9895C127.912 12.8677 127.872 12.7526 127.818 12.6444C127.764 12.5361 127.696 12.4481 127.615 12.3805C127.533 12.2993 127.446 12.2587 127.351 12.2587H127.249V12.0557H137.643V12.2587H137.48C137.386 12.2587 137.304 12.2993 137.237 12.3805C137.169 12.4481 137.108 12.5429 137.054 12.6647C137.013 12.7729 136.98 12.888 136.952 13.0098C136.925 13.1316 136.912 13.233 136.912 13.3142V24.1339C136.912 24.2422 136.919 24.3572 136.932 24.479C136.959 24.6008 136.993 24.7226 137.034 24.8444C137.088 24.9527 137.149 25.0474 137.216 25.1286C137.298 25.2098 137.386 25.2504 137.48 25.2504H137.643V25.4534H134.801V25.2504H134.983C135.078 25.2504 135.159 25.2098 135.227 25.1286C135.308 25.0474 135.369 24.9527 135.41 24.8444C135.464 24.7361 135.498 24.6211 135.511 24.4993C135.538 24.364 135.552 24.2422 135.552 24.1339V12.7662H129.36V24.1339C129.36 24.2422 129.374 24.364 129.401 24.4993C129.428 24.6211 129.462 24.7361 129.503 24.8444C129.557 24.9527 129.624 25.0474 129.706 25.1286C129.787 25.2098 129.881 25.2504 129.99 25.2504H130.091V25.4534H127.249V25.2504Z" fill="white"/>
<path d="M139.559 12.0557H142.442C143.944 12.0557 145.081 12.3466 145.852 12.9286C146.637 13.4969 147.03 14.3089 147.03 15.3645C147.03 15.9329 146.894 16.4404 146.624 16.887C146.353 17.3336 145.994 17.7125 145.548 18.0237C145.115 18.3215 144.621 18.5515 144.066 18.7139C143.525 18.8763 142.983 18.9575 142.442 18.9575H141.671V24.1339C141.671 24.2422 141.684 24.364 141.711 24.4993C141.738 24.6211 141.779 24.7361 141.833 24.8444C141.901 24.9527 141.968 25.0474 142.036 25.1286C142.117 25.2098 142.212 25.2504 142.32 25.2504H142.422V25.4534H139.559V25.2504H139.661C139.756 25.2504 139.844 25.2098 139.925 25.1286C140.006 25.0474 140.074 24.9527 140.128 24.8444C140.182 24.7361 140.222 24.6211 140.25 24.4993C140.277 24.364 140.29 24.2422 140.29 24.1339V13.3142C140.29 13.1248 140.236 12.9083 140.128 12.6647C140.02 12.4211 139.864 12.2857 139.661 12.2587H139.559V12.0557ZM141.671 12.7662V18.247H142.28C142.821 18.247 143.301 18.1726 143.721 18.0237C144.154 17.8749 144.512 17.6787 144.797 17.4351C145.081 17.1915 145.297 16.914 145.446 16.6028C145.595 16.2915 145.67 15.9735 145.67 15.6487C145.67 15.2562 145.602 14.8908 145.467 14.5525C145.345 14.2007 145.135 13.8962 144.837 13.639C144.553 13.3684 144.174 13.1586 143.701 13.0098C143.227 12.8474 142.645 12.7662 141.955 12.7662H141.671Z" fill="white"/>
<path d="M155.599 11.8527C156.655 11.8527 157.602 12.0421 158.441 12.4211C159.28 12.7865 159.991 13.2872 160.572 13.9232C161.168 14.5458 161.621 15.2765 161.933 16.1156C162.257 16.9411 162.42 17.8072 162.42 18.7139C162.42 19.7289 162.23 20.6627 161.851 21.5153C161.486 22.3679 160.978 23.0986 160.329 23.7076C159.679 24.3166 158.921 24.797 158.055 25.1489C157.203 25.4872 156.289 25.6564 155.315 25.6564C154.273 25.6564 153.332 25.4669 152.493 25.088C151.668 24.7091 150.964 24.2083 150.382 23.5858C149.814 22.9633 149.374 22.2461 149.063 21.4341C148.751 20.6221 148.596 19.7763 148.596 18.8966C148.596 18.0305 148.751 17.1779 149.063 16.3389C149.374 15.4863 149.827 14.7285 150.423 14.0653C151.032 13.4022 151.769 12.8677 152.635 12.4617C153.501 12.0557 154.489 11.8527 155.599 11.8527ZM155.579 24.9459C156.485 24.9053 157.277 24.7023 157.954 24.3369C158.644 23.958 159.219 23.4843 159.679 22.9159C160.139 22.334 160.478 21.698 160.694 21.0078C160.924 20.3176 161.039 19.6342 161.039 18.9575C161.039 18.2132 160.904 17.4621 160.633 16.7043C160.363 15.9464 159.977 15.263 159.476 14.654C158.976 14.0315 158.373 13.5308 157.67 13.1519C156.979 12.7594 156.201 12.5632 155.335 12.5632C154.496 12.5632 153.745 12.7526 153.082 13.1316C152.419 13.4969 151.85 13.9706 151.377 14.5525C150.917 15.1344 150.565 15.784 150.321 16.5013C150.078 17.2185 149.956 17.9223 149.956 18.6124C149.956 19.3568 150.098 20.1078 150.382 20.8657C150.666 21.61 151.059 22.2867 151.559 22.8956C152.06 23.5046 152.649 23.9986 153.326 24.3775C154.016 24.7564 154.767 24.9459 155.579 24.9459Z" fill="white"/>
<path d="M170.791 12.5835C169.79 12.5835 168.917 12.7662 168.173 13.1316C167.442 13.4834 166.833 13.9503 166.346 14.5322C165.858 15.1006 165.493 15.7434 165.249 16.4607C165.019 17.1779 164.904 17.8884 164.904 18.5921C164.904 19.3906 165.06 20.1755 165.371 20.9469C165.682 21.7047 166.109 22.3814 166.65 22.9768C167.205 23.5588 167.848 24.0324 168.579 24.3978C169.309 24.7497 170.101 24.9256 170.954 24.9256C171.197 24.9256 171.481 24.8985 171.806 24.8444C172.145 24.7903 172.476 24.6888 172.801 24.5399C173.126 24.3775 173.423 24.1542 173.694 23.87C173.978 23.5858 174.195 23.2137 174.344 22.7535H174.547V25.0068C174.344 25.0068 174.127 25.0339 173.897 25.088C173.681 25.1421 173.437 25.203 173.166 25.2707C172.814 25.3654 172.422 25.4534 171.989 25.5346C171.569 25.6158 171.123 25.6564 170.649 25.6564C169.472 25.6564 168.436 25.4534 167.543 25.0474C166.65 24.6414 165.906 24.1136 165.31 23.464C164.715 22.8144 164.268 22.0837 163.971 21.2717C163.673 20.4462 163.524 19.6139 163.524 18.7748C163.524 17.9358 163.673 17.1035 163.971 16.278C164.268 15.4525 164.722 14.7149 165.331 14.0653C165.94 13.4022 166.704 12.8677 167.624 12.4617C168.545 12.0557 169.627 11.8527 170.872 11.8527C171.319 11.8527 171.718 11.8933 172.07 11.9745C172.435 12.0557 172.76 12.1369 173.044 12.2181C173.247 12.2857 173.43 12.3399 173.593 12.3805C173.768 12.4075 173.938 12.4211 174.1 12.4211V14.6743H173.897C173.816 14.2548 173.667 13.9097 173.45 13.639C173.234 13.3548 172.977 13.1383 172.679 12.9895C172.395 12.8406 172.084 12.7391 171.745 12.685C171.421 12.6173 171.102 12.5835 170.791 12.5835Z" fill="white"/>
<path d="M181.211 25.2504H181.313V25.4534H178.43V25.2504H178.532C178.64 25.2504 178.735 25.2098 178.816 25.1286C178.897 25.0474 178.965 24.9527 179.019 24.8444C179.086 24.7361 179.134 24.6211 179.161 24.4993C179.188 24.364 179.201 24.2422 179.201 24.1339V12.8068H176.847C176.63 12.8068 176.441 12.8541 176.278 12.9489C176.116 13.0436 175.981 13.1654 175.872 13.3142C175.764 13.4496 175.683 13.6052 175.629 13.7811C175.575 13.9435 175.548 14.1059 175.548 14.2683H175.344V12.0557H184.459V14.2683H184.256C184.256 14.1059 184.229 13.9435 184.175 13.7811C184.121 13.6052 184.039 13.4496 183.931 13.3142C183.823 13.1654 183.688 13.0436 183.525 12.9489C183.363 12.8541 183.173 12.8068 182.957 12.8068H180.561V24.1339C180.561 24.2422 180.575 24.364 180.602 24.4993C180.629 24.6211 180.67 24.7361 180.724 24.8444C180.792 24.9527 180.859 25.0474 180.927 25.1286C181.008 25.2098 181.103 25.2504 181.211 25.2504Z" fill="white"/>
<path d="M185.551 12.0557H188.433C189.935 12.0557 191.072 12.3466 191.843 12.9286C192.628 13.4969 193.021 14.3089 193.021 15.3645C193.021 15.9329 192.885 16.4404 192.615 16.887C192.344 17.3336 191.986 17.7125 191.539 18.0237C191.106 18.3215 190.612 18.5515 190.057 18.7139C189.516 18.8763 188.974 18.9575 188.433 18.9575H187.662V24.1339C187.662 24.2422 187.675 24.364 187.702 24.4993C187.729 24.6211 187.77 24.7361 187.824 24.8444C187.892 24.9527 187.959 25.0474 188.027 25.1286C188.108 25.2098 188.203 25.2504 188.311 25.2504H188.413V25.4534H185.551V25.2504H185.652C185.747 25.2504 185.835 25.2098 185.916 25.1286C185.997 25.0474 186.065 24.9527 186.119 24.8444C186.173 24.7361 186.214 24.6211 186.241 24.4993C186.268 24.364 186.281 24.2422 186.281 24.1339V13.3142C186.281 13.1248 186.227 12.9083 186.119 12.6647C186.011 12.4211 185.855 12.2857 185.652 12.2587H185.551V12.0557ZM187.662 12.7662V18.247H188.271C188.812 18.247 189.292 18.1726 189.712 18.0237C190.145 17.8749 190.504 17.6787 190.788 17.4351C191.072 17.1915 191.289 16.914 191.437 16.6028C191.586 16.2915 191.661 15.9735 191.661 15.6487C191.661 15.2562 191.593 14.8908 191.458 14.5525C191.336 14.2007 191.126 13.8962 190.828 13.639C190.544 13.3684 190.165 13.1586 189.692 13.0098C189.218 12.8474 188.636 12.7662 187.946 12.7662H187.662Z" fill="white"/>
<path d="M199.431 25.2504H199.533C199.857 25.2504 200.02 25.1015 200.02 24.8038C200.02 24.6955 199.999 24.5805 199.959 24.4587L198.132 19.5259H194.579L192.813 24.3775C192.773 24.4858 192.752 24.5873 192.752 24.682C192.752 24.8579 192.8 25 192.895 25.1083C192.989 25.203 193.091 25.2504 193.199 25.2504H193.301V25.4534H191.047V25.2504H191.149C191.325 25.2504 191.494 25.1489 191.656 24.9459C191.832 24.7294 191.974 24.479 192.083 24.1948L196.731 11.8121L201.278 24.073C201.373 24.3437 201.502 24.6076 201.664 24.8647C201.84 25.1218 202.063 25.2504 202.334 25.2504H202.435V25.4534H199.431V25.2504ZM194.782 18.8357H197.909L196.346 14.5931L194.782 18.8357Z" fill="white"/>
<path d="M211.75 25.2504H211.851C211.946 25.2504 212.034 25.2166 212.115 25.1489C212.196 25.0677 212.264 24.973 212.318 24.8647C212.386 24.7429 212.433 24.6211 212.46 24.4993C212.487 24.364 212.501 24.2422 212.501 24.1339V18.6124H206.005V24.1339C206.005 24.2422 206.018 24.364 206.046 24.4993C206.073 24.6211 206.113 24.7361 206.167 24.8444C206.221 24.9527 206.282 25.0474 206.35 25.1286C206.431 25.2098 206.526 25.2504 206.634 25.2504H206.736V25.4534H203.894V25.2504H203.995C204.09 25.2504 204.178 25.2166 204.259 25.1489C204.34 25.0677 204.408 24.973 204.462 24.8647C204.53 24.7429 204.577 24.6211 204.604 24.4993C204.631 24.364 204.645 24.2422 204.645 24.1339V13.3142C204.645 13.2195 204.631 13.1113 204.604 12.9895C204.577 12.8677 204.537 12.7526 204.482 12.6444C204.428 12.5361 204.361 12.4481 204.279 12.3805C204.198 12.2993 204.104 12.2587 203.995 12.2587H203.894V12.0557H206.736V12.2587H206.634C206.526 12.2587 206.431 12.2993 206.35 12.3805C206.269 12.4481 206.201 12.5361 206.147 12.6444C206.106 12.7526 206.073 12.8677 206.046 12.9895C206.018 13.1113 206.005 13.2195 206.005 13.3142V17.902H212.501V13.3142C212.501 13.2195 212.487 13.1113 212.46 12.9895C212.433 12.8677 212.393 12.7526 212.338 12.6444C212.284 12.5361 212.217 12.4481 212.135 12.3805C212.054 12.2993 211.959 12.2587 211.851 12.2587H211.75V12.0557H214.592V12.2587H214.49C214.382 12.2587 214.287 12.2993 214.206 12.3805C214.125 12.4481 214.057 12.5361 214.003 12.6444C213.962 12.7526 213.929 12.8677 213.901 12.9895C213.874 13.1113 213.861 13.2195 213.861 13.3142V24.1339C213.861 24.2422 213.874 24.364 213.901 24.4993C213.942 24.6211 213.989 24.7361 214.044 24.8444C214.098 24.9527 214.159 25.0474 214.226 25.1286C214.307 25.2098 214.395 25.2504 214.49 25.2504H214.592V25.4534H211.75V25.2504Z" fill="white"/>
<path d="M223.423 12.5835C222.422 12.5835 221.549 12.7662 220.805 13.1316C220.074 13.4834 219.465 13.9503 218.978 14.5322C218.491 15.1006 218.125 15.7434 217.882 16.4607C217.652 17.1779 217.537 17.8884 217.537 18.5921C217.537 19.3906 217.692 20.1755 218.003 20.9469C218.315 21.7047 218.741 22.3814 219.282 22.9768C219.837 23.5588 220.48 24.0324 221.211 24.3978C221.942 24.7497 222.733 24.9256 223.586 24.9256C223.829 24.9256 224.114 24.8985 224.438 24.8444C224.777 24.7903 225.108 24.6888 225.433 24.5399C225.758 24.3775 226.056 24.1542 226.326 23.87C226.61 23.5858 226.827 23.2137 226.976 22.7535H227.179V25.0068C226.976 25.0068 226.759 25.0339 226.529 25.088C226.313 25.1421 226.069 25.203 225.798 25.2707C225.447 25.3654 225.054 25.4534 224.621 25.5346C224.202 25.6158 223.755 25.6564 223.281 25.6564C222.104 25.6564 221.069 25.4534 220.175 25.0474C219.282 24.6414 218.538 24.1136 217.943 23.464C217.347 22.8144 216.9 22.0837 216.603 21.2717C216.305 20.4462 216.156 19.6139 216.156 18.7748C216.156 17.9358 216.305 17.1035 216.603 16.278C216.9 15.4525 217.354 14.7149 217.963 14.0653C218.572 13.4022 219.336 12.8677 220.257 12.4617C221.177 12.0557 222.26 11.8527 223.505 11.8527C223.951 11.8527 224.35 11.8933 224.702 11.9745C225.068 12.0557 225.392 12.1369 225.677 12.2181C225.88 12.2857 226.062 12.3399 226.225 12.3805C226.401 12.4075 226.57 12.4211 226.732 12.4211V14.6743H226.529C226.448 14.2548 226.299 13.9097 226.083 13.639C225.866 13.3548 225.609 13.1383 225.311 12.9895C225.027 12.8406 224.716 12.7391 224.377 12.685C224.053 12.6173 223.735 12.5835 223.423 12.5835Z" fill="white"/>
<path d="M233.843 25.2504H233.945V25.4534H231.062V25.2504H231.164C231.272 25.2504 231.367 25.2098 231.448 25.1286C231.529 25.0474 231.597 24.9527 231.651 24.8444C231.719 24.7361 231.766 24.6211 231.793 24.4993C231.82 24.364 231.834 24.2422 231.834 24.1339V12.8068H229.479C229.262 12.8068 229.073 12.8541 228.91 12.9489C228.748 13.0436 228.613 13.1654 228.504 13.3142C228.396 13.4496 228.315 13.6052 228.261 13.7811C228.207 13.9435 228.18 14.1059 228.18 14.2683H227.977V12.0557H237.091V14.2683H236.888C236.888 14.1059 236.861 13.9435 236.807 13.7811C236.753 13.6052 236.672 13.4496 236.563 13.3142C236.455 13.1654 236.32 13.0436 236.157 12.9489C235.995 12.8541 235.806 12.8068 235.589 12.8068H233.194V24.1339C233.194 24.2422 233.207 24.364 233.234 24.4993C233.261 24.6211 233.302 24.7361 233.356 24.8444C233.424 24.9527 233.491 25.0474 233.559 25.1286C233.64 25.2098 233.735 25.2504 233.843 25.2504Z" fill="white"/>
<path d="M238.203 25.2504H238.305C238.399 25.2504 238.487 25.2098 238.568 25.1286C238.65 25.0474 238.717 24.9527 238.771 24.8444C238.839 24.7361 238.886 24.6211 238.914 24.4993C238.941 24.364 238.954 24.2422 238.954 24.1339V13.3345C238.954 13.2398 238.941 13.1316 238.914 13.0098C238.886 12.888 238.839 12.7729 238.771 12.6647C238.717 12.5429 238.643 12.4481 238.548 12.3805C238.467 12.2993 238.372 12.2587 238.264 12.2587H238.162V12.0557H241.492C242.75 12.0557 243.731 12.3331 244.435 12.888C245.152 13.4428 245.511 14.1804 245.511 15.1006C245.511 15.4931 245.443 15.8449 245.308 16.1562C245.173 16.4674 244.997 16.7449 244.78 16.9885C244.577 17.2321 244.354 17.4418 244.11 17.6178C243.867 17.7802 243.637 17.9155 243.42 18.0237C243.988 18.132 244.462 18.3147 244.841 18.5718C245.22 18.829 245.524 19.1267 245.755 19.465C245.998 19.7898 246.167 20.1417 246.262 20.5206C246.357 20.8995 246.404 21.2717 246.404 21.6371C246.404 22.3408 246.276 22.9362 246.018 23.4234C245.761 23.8971 245.416 24.2895 244.983 24.6008C244.564 24.8985 244.076 25.1151 243.522 25.2504C242.98 25.3857 242.419 25.4534 241.837 25.4534H238.203V25.2504ZM245.024 21.7589C244.915 20.7168 244.564 19.9116 243.968 19.3432C243.373 18.7748 242.534 18.4906 241.451 18.4906H240.314V24.7835H241.492C242.588 24.7835 243.447 24.5399 244.07 24.0527C244.706 23.552 245.024 22.8618 245.024 21.9822V21.7589ZM244.191 15.2833C244.151 14.4984 243.873 13.8759 243.359 13.4157C242.858 12.9556 242.182 12.7256 241.329 12.7256H240.314V17.8411H241.37C241.938 17.8411 242.398 17.7666 242.75 17.6178C243.116 17.4689 243.407 17.2794 243.623 17.0494C243.84 16.8058 243.988 16.5419 244.07 16.2577C244.151 15.9735 244.191 15.6961 244.191 15.4254V15.2833Z" fill="white"/>
<path d="M254.976 11.8527C256.031 11.8527 256.979 12.0421 257.818 12.4211C258.657 12.7865 259.367 13.2872 259.949 13.9232C260.545 14.5458 260.998 15.2765 261.309 16.1156C261.634 16.9411 261.796 17.8072 261.796 18.7139C261.796 19.7289 261.607 20.6627 261.228 21.5153C260.863 22.3679 260.355 23.0986 259.706 23.7076C259.056 24.3166 258.298 24.797 257.432 25.1489C256.579 25.4872 255.666 25.6564 254.692 25.6564C253.65 25.6564 252.709 25.4669 251.87 25.088C251.044 24.7091 250.341 24.2083 249.759 23.5858C249.19 22.9633 248.751 22.2461 248.439 21.4341C248.128 20.6221 247.972 19.7763 247.972 18.8966C247.972 18.0305 248.128 17.1779 248.439 16.3389C248.751 15.4863 249.204 14.7285 249.799 14.0653C250.408 13.4022 251.146 12.8677 252.012 12.4617C252.878 12.0557 253.866 11.8527 254.976 11.8527ZM254.955 24.9459C255.862 24.9053 256.654 24.7023 257.331 24.3369C258.021 23.958 258.596 23.4843 259.056 22.9159C259.516 22.334 259.854 21.698 260.071 21.0078C260.301 20.3176 260.416 19.6342 260.416 18.9575C260.416 18.2132 260.281 17.4621 260.01 16.7043C259.739 15.9464 259.354 15.263 258.853 14.654C258.352 14.0315 257.75 13.5308 257.046 13.1519C256.356 12.7594 255.578 12.5632 254.712 12.5632C253.873 12.5632 253.122 12.7526 252.459 13.1316C251.795 13.4969 251.227 13.9706 250.753 14.5525C250.293 15.1344 249.941 15.784 249.698 16.5013C249.454 17.2185 249.332 17.9223 249.332 18.6124C249.332 19.3568 249.475 20.1078 249.759 20.8657C250.043 21.61 250.435 22.2867 250.936 22.8956C251.437 23.5046 252.026 23.9986 252.702 24.3775C253.392 24.7564 254.143 24.9459 254.955 24.9459Z" fill="white"/>
<path d="M22.2186 4.1765L22.0996 4.25579C22.6415 5.1809 22.9124 6.29103 22.9124 7.58619V8.31967L22.8728 8.43861C22.9521 8.41218 23.0049 8.39897 23.0314 8.39897L23.2098 8.35932C24.8353 7.96284 26.3419 7.47385 27.7296 6.89236C29.1966 6.27121 30.3529 5.65007 31.1988 5.02892C32.3089 4.15667 32.864 3.35711 32.864 2.63024C32.864 2.2602 32.6922 1.97606 32.3485 1.77782C31.9785 1.5928 31.4631 1.50028 30.8023 1.50028C28.4499 1.50028 25.5886 2.39235 22.2186 4.1765ZM21.7428 4.45403C20.9763 4.87694 20.1305 5.4254 19.2054 6.0994C18.3728 6.70733 17.4344 7.45403 16.3904 8.33949C15.4785 9.10601 14.7582 9.77341 14.2296 10.3417L14.6261 10.2624L15.7362 10.0245L17.0247 9.78663C17.1966 9.73377 17.4278 9.6743 17.7186 9.60822C17.9829 9.54214 18.2803 9.48267 18.6107 9.4298C18.7825 9.39015 18.9014 9.36372 18.9675 9.35051C19.0336 9.33729 19.1459 9.31086 19.3045 9.27121C19.4631 9.23156 19.6084 9.19852 19.7406 9.17209L21.1283 8.85491L22.4763 8.51791C22.5027 8.28002 22.5159 7.99588 22.5159 7.66548C22.5159 6.5157 22.2582 5.44522 21.7428 4.45403ZM6.47849 23.7426V23.8615C6.47849 25.0377 6.80228 25.9562 7.44985 26.617C8.09743 27.3043 8.96307 27.6479 10.0468 27.6479C11.1437 27.6479 12.2935 27.3307 13.4961 26.6963C14.6723 26.0884 15.8618 25.1831 17.0644 23.9805C18.3199 22.725 19.3441 21.3439 20.1371 19.8373C20.93 18.3307 21.3265 17.0091 21.3265 15.8725C21.3265 15.1457 21.1415 14.5377 20.7714 14.0487L20.7318 14.1677C19.886 15.3703 19.0666 16.388 18.2736 17.2206C17.3882 18.1589 16.4895 18.965 15.5776 19.6391C14.7054 20.3131 13.6613 20.9805 12.4455 21.6413C11.2957 22.2492 10.2252 22.725 9.234 23.0686C8.25602 23.4122 7.33752 23.6369 6.47849 23.7426ZM5.9036 23.3858H6.02254C6.06219 21.4562 6.571 19.4805 7.54897 17.4584C8.52695 15.4496 9.91461 13.4871 11.712 11.5708L11.7913 11.4915C9.71638 12.0598 7.85294 12.8263 6.20095 13.791C4.5754 14.7426 3.30007 15.78 2.37496 16.9034C1.44985 18.0267 0.987296 19.1567 0.987296 20.2932C0.987296 21.258 1.35073 22.0245 2.07761 22.5928C2.80448 23.1743 3.76924 23.465 4.97188 23.465C5.17012 23.465 5.48069 23.4386 5.9036 23.3858ZM20.7318 13.3946C20.745 13.3549 20.7648 13.3087 20.7913 13.2558C20.8045 13.2426 20.8243 13.2095 20.8507 13.1567C21.6305 11.8087 22.1591 10.4276 22.4366 9.0135H22.2979L19.8397 9.60822C18.875 9.81967 17.9631 10.0113 17.104 10.1831L15.5776 10.5201C15.5644 10.5201 15.0225 10.6391 13.9521 10.8769L13.6547 10.9166L13.3772 11.1941C12.6899 11.9606 12.0358 12.7272 11.4146 13.4937C10.8067 14.2602 10.2582 15.0003 9.76924 15.7139C9.29347 16.4144 8.85734 17.1016 8.46087 17.7756C7.31109 19.7844 6.66351 21.6413 6.51814 23.3461C8.17012 23.0818 9.9014 22.4937 11.712 21.5818C12.5314 21.1721 13.3838 20.6699 14.2692 20.0752C15.1547 19.4673 15.9675 18.8329 16.7076 18.1721C17.4477 17.5245 18.1283 16.8373 18.7494 16.1104C19.3838 15.3835 19.9455 14.6236 20.4344 13.8307L20.4741 13.7117C20.038 13.3153 19.4433 13.117 18.6899 13.117C17.7516 13.117 16.7869 13.3946 15.7957 13.9496C14.7913 14.5311 13.8662 15.3241 13.0203 16.3285C12.1481 17.3461 11.4014 18.5223 10.7803 19.8571L10.4432 19.758C10.919 18.4761 11.6195 17.3065 12.5446 16.2492C13.4565 15.1655 14.4741 14.3131 15.5974 13.6919C16.734 13.0576 17.7913 12.7404 18.7692 12.7404C19.5622 12.7404 20.2164 12.9584 20.7318 13.3946ZM21.0093 13.7117C21.5776 14.4386 21.8618 15.3505 21.8618 16.4474C21.8618 17.2536 21.6966 18.0928 21.3662 18.965C21.0358 19.8373 20.5534 20.736 19.919 21.6611C19.2714 22.573 18.4851 23.4717 17.56 24.3571C14.9432 26.8153 12.4521 28.0443 10.0864 28.0443C9.26704 28.0443 8.5666 27.8791 7.9851 27.5488C7.39038 27.2448 6.92122 26.7624 6.57761 26.1016C6.24721 25.4673 6.06219 24.6941 6.02254 23.7822H5.9036C5.48069 23.8351 5.1569 23.8615 4.93223 23.8615C3.63708 23.8615 2.59302 23.5245 1.80007 22.8505C0.993904 22.2029 0.59082 21.3373 0.59082 20.2536C0.59082 18.4166 1.66131 16.6391 3.80228 14.921C5.94325 13.1897 8.75822 11.8417 12.2472 10.8769H12.3662L12.4455 10.758C13.1591 10.0047 14.038 9.21174 15.082 8.37914C16.1525 7.52011 17.2759 6.69412 18.4521 5.90117C19.5754 5.13465 20.593 4.52011 21.5049 4.05755C21.0688 3.46284 20.5137 3.02011 19.8397 2.72936C19.1261 2.42539 18.3265 2.27341 17.441 2.27341C16.1062 2.27341 14.8507 2.58398 13.6745 3.20513C12.4983 3.81306 11.4807 4.6787 10.6217 5.80205C9.69655 7.00469 9.19435 8.20733 9.11505 9.40998H8.7384C8.8177 8.14126 9.28686 6.91879 10.1459 5.74258C11.0049 4.5928 12.0952 3.66108 13.4168 2.94742C14.7516 2.24698 16.1062 1.89676 17.4807 1.89676C19.4763 1.89676 20.9366 2.55095 21.8618 3.85932L21.9807 3.81967C23.2098 3.18531 24.3397 2.66989 25.3706 2.27341C26.3618 1.90337 27.3397 1.60601 28.3045 1.38134C29.2428 1.1831 30.0886 1.08398 30.8419 1.08398C31.6085 1.08398 32.2164 1.21614 32.6657 1.48046C33.0886 1.75799 33.3001 2.14125 33.3001 2.63024C33.3001 3.3439 32.8838 4.09059 32.0512 4.87033C31.2186 5.63685 30.0292 6.35711 28.4829 7.03112C26.9631 7.71835 25.2186 8.31306 23.2494 8.81526C23.0248 8.86813 22.886 8.89456 22.8331 8.89456C22.5556 10.5862 21.9477 12.1919 21.0093 13.7117Z" fill="white"/>
<path fill-rule="evenodd" clip-rule="evenodd" d="M13.417 2.94804C14.7518 2.2476 16.1064 1.89738 17.4808 1.89738C19.4764 1.89738 20.9368 2.55157 21.8619 3.85994L21.9808 3.82029C23.2099 3.18593 24.3399 2.67051 25.3707 2.27403C26.3619 1.90399 27.3399 1.60663 28.3046 1.38196C29.2429 1.18372 30.0888 1.08461 30.8421 1.08461C31.6086 1.08461 32.2165 1.21676 32.6659 1.48108C33.0888 1.75861 33.3002 2.14187 33.3002 2.63086C33.3002 3.34452 32.8839 4.09121 32.0513 4.87095C31.2187 5.63747 30.0293 6.35774 28.483 7.03174C26.9632 7.71897 25.2187 8.31368 23.2496 8.81589C23.0249 8.86875 22.8861 8.89518 22.8333 8.89518C22.5557 10.5868 21.9478 12.1925 21.0095 13.7124C21.5777 14.4392 21.8619 15.3511 21.8619 16.448C21.8619 17.2542 21.6967 18.0934 21.3663 18.9657C21.0359 19.8379 20.5535 20.7366 19.9192 21.6617C19.2716 22.5736 18.4852 23.4723 17.5601 24.3577C14.9434 26.8159 12.4522 28.045 10.0866 28.045C9.26717 28.045 8.56673 27.8798 7.98523 27.5494C7.39052 27.2454 6.92135 26.763 6.57774 26.1022C6.24734 25.4679 6.06232 24.6947 6.02267 23.7829H5.90373C5.88186 23.7856 5.86026 23.7882 5.83892 23.7908C5.82822 23.7921 5.81759 23.7934 5.80703 23.7947C5.43115 23.8397 5.13959 23.8621 4.93236 23.8621C3.63721 23.8621 2.59316 23.5251 1.8002 22.8511C0.994037 22.2036 0.590953 21.3379 0.590953 20.2542C0.590953 18.4172 1.66144 16.6397 3.80241 14.9216C5.94338 13.1903 8.75836 11.8423 12.2473 10.8776H12.3663L12.4456 10.7586C13.1592 10.0053 14.0381 9.21236 15.0821 8.37976C16.1526 7.52073 17.276 6.69474 18.4522 5.90179C19.4963 5.18933 20.4491 4.60818 21.3105 4.15832C21.3759 4.12418 21.4407 4.0908 21.5051 4.05817C21.4614 3.99869 21.4166 3.94072 21.3706 3.88428C20.9567 3.37641 20.4465 2.99165 19.8399 2.72998C19.1262 2.42602 18.3266 2.27403 17.4412 2.27403C16.1064 2.27403 14.8509 2.58461 13.6747 3.20575C12.4984 3.81368 11.4808 4.67932 10.6218 5.80267C9.69668 7.00531 9.19448 8.20796 9.11519 9.4106H8.73853C8.74304 9.33847 8.74881 9.26648 8.75584 9.19465C8.87244 8.00302 9.33583 6.85254 10.146 5.7432C11.0051 4.59342 12.0954 3.6617 13.417 2.94804ZM19.7548 2.92849C19.0716 2.63754 18.3015 2.48999 17.4412 2.48999C16.1414 2.48999 14.9205 2.79204 13.7755 3.39671L13.7738 3.3976C12.6278 3.98992 11.6344 4.83406 10.7933 5.93385L10.793 5.93434C9.88718 7.11186 9.4065 8.27469 9.33067 9.42481L9.31737 9.62655H8.50866L8.523 9.39713C8.60523 8.08156 9.09193 6.82034 9.97163 5.61583L9.97301 5.61394C10.8517 4.43786 11.9665 3.48587 13.3143 2.75802L13.3166 2.75681C14.6793 2.04172 16.0681 1.68143 17.4808 1.68143C19.4588 1.68143 20.9594 2.31117 21.9385 3.59919C23.151 2.9754 24.2694 2.46625 25.2932 2.07247L25.2952 2.07171C26.2944 1.69866 27.2813 1.39854 28.2556 1.17164L28.26 1.17063C29.2092 0.970086 30.0703 0.868652 30.8421 0.868652C31.6302 0.868652 32.2808 1.00402 32.7754 1.29494L32.7799 1.29763L32.7843 1.30053C33.2656 1.61633 33.5162 2.06615 33.5162 2.63086C33.5162 3.43185 33.0498 4.23177 32.1989 5.02857L32.1976 5.02983C31.3412 5.81828 30.1286 6.5499 28.5707 7.2291C27.0376 7.92225 25.2812 8.52061 23.3029 9.02514L23.299 9.02614C23.1865 9.05262 23.093 9.07304 23.0196 9.08707C22.7343 10.7035 22.1506 12.2413 21.2702 13.6998C21.8124 14.4503 22.0778 15.3707 22.0778 16.448C22.0778 17.2841 21.9065 18.1493 21.5682 19.0422C21.2307 19.9334 20.7395 20.8473 20.0973 21.7838L20.0953 21.7868C19.4387 22.7113 18.643 23.6202 17.7094 24.5138L17.708 24.5151C15.0714 26.9919 12.5297 28.2609 10.0866 28.2609C9.24002 28.2609 8.50244 28.0905 7.8827 27.7395C7.24552 27.4127 6.74724 26.8962 6.38621 26.202C6.06522 25.5857 5.87851 24.8533 5.81931 24.0107C5.44645 24.055 5.14952 24.0781 4.93236 24.0781C3.60011 24.0781 2.50315 23.731 1.66261 23.0176C0.804219 22.327 0.375 21.3987 0.375 20.2542C0.375 18.3246 1.501 16.4916 3.66693 14.7534C5.83693 12.9988 8.68097 11.6397 12.1898 10.6694L12.218 10.6616H12.2507L12.2761 10.6235L12.2888 10.6101C13.0109 9.84786 13.8976 9.04823 14.9472 8.21113C16.0223 7.34843 17.1502 6.51909 18.331 5.72307C19.3654 5.01728 20.3133 4.43781 21.1744 3.98581C20.7877 3.52211 20.3152 3.17029 19.7548 2.92849ZM7.44999 26.6177C8.09757 27.3049 8.9632 27.6485 10.0469 27.6485C11.1438 27.6485 12.2936 27.3313 13.4962 26.697C14.6725 26.089 15.8619 25.1837 17.0645 23.9811C18.32 22.7256 19.3443 21.3445 20.1372 19.8379C20.9302 18.3313 21.3266 17.0097 21.3266 15.8732C21.3266 15.253 21.192 14.7195 20.9227 14.2725C20.9123 14.2553 20.9017 14.2383 20.891 14.2213C20.8536 14.1625 20.8138 14.1051 20.7716 14.0494L20.7319 14.1683C20.7087 14.2013 20.6855 14.2342 20.6623 14.267C19.8411 15.4267 19.045 16.4114 18.2738 17.2212C17.3883 18.1595 16.4896 18.9657 15.5777 19.6397C14.7055 20.3137 13.6614 20.9811 12.4456 21.6419C11.2958 22.2498 10.2253 22.7256 9.23413 23.0692C8.25616 23.4128 7.33765 23.6375 6.47862 23.7432V23.8621C6.47862 25.0384 6.80241 25.9569 7.44999 26.6177ZM6.69498 23.9324C6.70761 25.0334 7.01857 25.8689 7.60422 26.4665L7.60719 26.4695C8.2078 27.1069 9.01308 27.4325 10.0469 27.4325C11.1013 27.4325 12.2166 27.1278 13.3955 26.5059L13.3971 26.5051C14.5488 25.9098 15.7207 25.0195 16.9118 23.8284C18.1527 22.5876 19.1637 21.2239 19.9461 19.7373C20.7302 18.2475 21.1107 16.9615 21.1107 15.8732C21.1107 15.325 21.0001 14.8586 20.7853 14.4668C19.9785 15.6003 19.1937 16.5684 18.4306 17.3696C17.5382 18.3153 16.6307 19.1297 15.708 19.812C14.825 20.4941 13.7714 21.1671 12.5487 21.8316L12.5465 21.8328C11.3893 22.4447 10.3087 22.9252 9.30509 23.2732C8.38661 23.5958 7.51642 23.8161 6.69498 23.9324ZM23.2099 8.35994C24.8355 7.96346 26.3421 7.47448 27.7297 6.89298C29.1967 6.27183 30.3531 5.65069 31.1989 5.02954C32.309 4.15729 32.8641 3.35773 32.8641 2.63086C32.8641 2.26082 32.6923 1.97668 32.3487 1.77844C31.9786 1.59342 31.4632 1.5009 30.8024 1.5009C28.45 1.5009 25.5888 2.39298 22.2187 4.17712L22.0998 4.25641C22.6416 5.18152 22.9125 6.29166 22.9125 7.58681V8.32029L22.8729 8.43923C22.9522 8.4128 23.0051 8.39959 23.0315 8.39959L23.2099 8.35994ZM23.1285 8.15681L23.1609 8.1496C24.7757 7.75566 26.2705 7.2703 27.6459 6.69398C29.1026 6.07714 30.2413 5.46437 31.0682 4.85759C32.1692 3.99194 32.6481 3.24955 32.6481 2.63086C32.6481 2.34643 32.525 2.13139 32.2463 1.96871C31.9191 1.80684 31.4438 1.71686 30.8024 1.71686C28.5165 1.71686 25.7149 2.57916 22.3892 4.33129C22.8848 5.25693 23.1285 6.34457 23.1285 7.58681V8.15681ZM20.8509 13.1573C21.5909 11.878 22.1047 10.5689 22.3924 9.23008C22.4078 9.15818 22.4226 9.08619 22.4368 9.01412H22.298L19.8399 9.60884C18.8751 9.82029 17.9632 10.0119 17.1042 10.1837L15.5777 10.5207C15.5645 10.5207 15.0227 10.6397 13.9522 10.8776L13.6548 10.9172L13.3773 11.1947C12.6901 11.9613 12.0359 12.7278 11.4147 13.4943C10.8068 14.2608 10.2584 15.0009 9.76937 15.7146C9.2936 16.415 8.85748 17.1022 8.461 17.7762C7.361 19.6981 6.72066 21.4808 6.53998 23.1244C6.5318 23.1988 6.52456 23.2729 6.51827 23.3467C6.59147 23.335 6.66483 23.3227 6.73834 23.3097C8.32384 23.0297 9.98176 22.4539 11.7121 21.5824C12.5315 21.1727 13.3839 20.6705 14.2694 20.0758C15.1548 19.4679 15.9676 18.8335 16.7077 18.1727C17.4478 17.5251 18.1284 16.8379 18.7496 16.111C19.3839 15.3842 19.9456 14.6243 20.4346 13.8313L20.4742 13.7124C20.0381 13.3159 19.4434 13.1177 18.6901 13.1177C17.7518 13.1177 16.787 13.3952 15.7958 13.9502C14.7914 14.5317 13.8663 15.3247 13.0205 16.3291C12.1482 17.3467 11.4015 18.5229 10.7804 19.8577L10.4434 19.7586C10.4685 19.6909 10.4943 19.6234 10.5207 19.5563C10.9938 18.3533 11.6685 17.2512 12.5447 16.2498C13.4566 15.1661 14.4742 14.3137 15.5976 13.6925C16.7341 13.0582 17.7914 12.741 18.7694 12.741C19.4735 12.741 20.0682 12.9129 20.5535 13.2568C20.6147 13.3002 20.6742 13.3463 20.7319 13.3952C20.7451 13.3555 20.765 13.3093 20.7914 13.2564C20.801 13.2468 20.814 13.2268 20.8306 13.1964C20.8368 13.1849 20.8436 13.1718 20.8509 13.1573ZM20.6557 13.0647C20.6564 13.0634 20.657 13.0621 20.6577 13.0607L20.6607 13.0549L20.6639 13.0492C21.3779 11.8148 21.877 10.5549 22.1628 9.26901L19.8861 9.81983C18.921 10.0314 18.0085 10.2231 17.1487 10.3951L15.6013 10.7367H15.5972C15.5954 10.737 15.5934 10.7374 15.5913 10.7379C15.5741 10.7414 15.5485 10.7468 15.514 10.7542C15.4451 10.7689 15.3431 10.7912 15.2077 10.8209C14.9371 10.8803 14.5342 10.9694 13.999 11.0884L13.99 11.0904L13.7558 11.1216L13.5342 11.3433C12.8509 12.1055 12.2006 12.8675 11.5832 13.6294C10.9784 14.392 10.4333 15.1276 9.94777 15.8363C9.47478 16.5326 9.04149 17.2154 8.64782 17.8846C7.57211 19.7642 6.94732 21.4974 6.76166 23.0861C8.30441 22.8065 9.92198 22.2422 11.615 21.3895L11.6155 21.3893C12.4252 20.9844 13.2693 20.4873 14.148 19.8972C15.0262 19.2942 15.8314 18.6656 16.5639 18.0116L16.5655 18.0102C17.298 17.3693 17.9712 16.6895 18.5854 15.9707L18.5868 15.969C19.1981 15.2687 19.7405 14.5378 20.2146 13.7764C19.8388 13.487 19.3371 13.3336 18.6901 13.3336C17.7962 13.3336 16.8679 13.5976 15.9027 14.1379C14.923 14.7053 14.0171 15.4809 13.1857 16.4682L13.1844 16.4697C12.3262 17.4709 11.5898 18.6302 10.9762 19.9489L10.8978 20.1174L10.1604 19.9005L10.2409 19.6835C10.7258 18.3769 11.4396 17.1852 12.3808 16.1091C13.3075 15.0082 14.3446 14.1387 15.4926 13.5038C16.651 12.8573 17.7444 12.525 18.7694 12.525C19.5004 12.525 20.133 12.7019 20.6557 13.0647ZM15.7363 10.0251L14.6262 10.263L14.2297 10.3423C14.3119 10.2539 14.3988 10.1632 14.4903 10.07C14.987 9.56404 15.6204 8.98742 16.3905 8.34012C17.4346 7.45465 18.3729 6.70796 19.2055 6.10003C20.0554 5.4808 20.8384 4.96755 21.5545 4.56027C21.6178 4.52423 21.6806 4.48903 21.7429 4.45465C21.7763 4.51874 21.8085 4.58316 21.8397 4.64792C22.2906 5.58461 22.5161 6.59067 22.5161 7.66611C22.5161 7.9965 22.5029 8.28064 22.4764 8.51853L21.1284 8.85553L19.7407 9.17271C19.6086 9.19915 19.4632 9.23219 19.3046 9.27183C19.146 9.31148 19.0337 9.33791 18.9676 9.35113C18.9015 9.36434 18.7826 9.39078 18.6108 9.43042C18.2804 9.48329 17.983 9.54276 17.7187 9.60884C17.428 9.67492 17.1967 9.73439 17.0249 9.78725L15.7363 10.0251ZM16.9735 9.57714C17.1508 9.52312 17.3831 9.46369 17.6686 9.39877C17.9376 9.33161 18.238 9.27155 18.5694 9.21835C18.7372 9.17964 18.8566 9.15309 18.9253 9.13937C18.9858 9.12727 19.0936 9.10198 19.2522 9.06233C19.4123 9.02231 19.5601 8.98867 19.6955 8.96154L21.0781 8.6455L22.276 8.34604C22.292 8.14993 22.3001 7.9235 22.3001 7.66611C22.3001 6.6269 22.0835 5.65702 21.651 4.75381C20.9465 5.15517 20.1738 5.66171 19.3328 6.27444C18.5056 6.87847 17.5715 7.62171 16.5302 8.50481L16.5295 8.50543C15.8791 9.05212 15.3289 9.54632 14.8778 9.98826L15.6941 9.81333L16.9735 9.57714ZM5.90373 23.3864H6.02267C6.06232 21.4569 6.57113 19.4811 7.54911 17.4591C8.48862 15.5293 9.80623 13.6421 11.5019 11.7977C11.5714 11.7222 11.6414 11.6468 11.7121 11.5714L11.7914 11.4921C11.7499 11.5035 11.7085 11.5149 11.6671 11.5264C11.6664 11.5267 11.6656 11.5269 11.6649 11.5271C11.5708 11.5533 11.4772 11.58 11.384 11.607C9.47184 12.1623 7.74421 12.8905 6.20109 13.7917C4.57554 14.7432 3.30021 15.7806 2.37509 16.904C1.44998 18.0273 0.987429 19.1573 0.987429 20.2939C0.987429 21.2586 1.35087 22.0251 2.07774 22.5934C2.80461 23.1749 3.76937 23.4657 4.97201 23.4657C5.17025 23.4657 5.48082 23.4392 5.90373 23.3864ZM6.30999 13.9781C4.70034 14.9204 3.44674 15.9424 2.5418 17.0413C1.63943 18.137 1.20338 19.22 1.20338 20.2939C1.20338 21.1957 1.53894 21.8981 2.21075 22.4233L2.21265 22.4248C2.89127 22.9677 3.80392 23.2497 4.97201 23.2497C5.14644 23.2497 5.42463 23.2273 5.81259 23.18C5.88317 21.2793 6.39925 19.3405 7.3547 17.365L7.35494 17.3645C8.25995 15.5056 9.51008 13.6896 11.1026 11.9161C9.34124 12.453 7.74403 13.1407 6.30999 13.9781Z" fill="white"/>
</svg>
