<svg width="390" height="264" viewBox="0 0 390 264" fill="none" xmlns="http://www.w3.org/2000/svg">
<rect width="390" height="238" transform="translate(0 9)" fill="#477A8D"/>
<g filter="url(#filter0_f_832_928)">
<ellipse cx="200.782" cy="132.089" rx="74.7537" ry="76.9852" transform="rotate(-17.4438 200.782 132.089)" fill="#B6D3DE" fill-opacity="0.76"/>
</g>
<g filter="url(#filter1_f_832_928)">
<path d="M164.662 65.9001C202.316 52.6297 242.435 76.111 254.268 118.345C263.734 152.136 246.989 188.131 216.862 198.748C192.762 207.242 167.083 192.213 159.51 165.182C153.451 143.555 164.171 120.521 183.449 113.727C198.874 108.29 215.305 117.907 220.152 135.209C224.03 149.05 217.17 163.794 204.83 168.143C194.96 171.622 184.442 165.466 181.341 154.396C178.859 145.537 183.252 136.103 191.146 133.321C197.463 131.095 204.196 135.035 206.181 142.121C207.77 147.792 204.957 153.829 199.906 155.61" stroke="#B3D2DC" stroke-opacity="0.8" stroke-width="12" stroke-miterlimit="10"/>
</g>
<path d="M311.037 53.0662C314.335 58.1734 314.378 65.138 311.47 73.463C308.565 81.7804 302.743 91.367 294.465 101.617C277.912 122.113 251.613 145.172 219.487 165.918C187.36 186.665 155.524 201.149 130.033 207.804C117.285 211.132 106.152 212.494 97.3757 211.72C88.5917 210.945 82.2613 208.041 78.9632 202.934C75.665 197.827 75.6225 190.862 78.53 182.537C81.4349 174.22 87.2569 164.633 95.535 154.383C112.088 133.887 138.387 110.829 170.513 90.082C202.64 69.3354 234.476 54.8515 259.967 48.1966C272.715 44.8684 283.848 43.5059 292.624 44.28C301.408 45.0549 307.739 47.9589 311.037 53.0662Z" stroke="#D3ECF4" stroke-opacity="0.7"/>
<path d="M326.916 134.39C326.823 138.755 323.599 142.959 317.569 146.807C311.558 150.644 302.872 154.048 292.125 156.84C270.638 162.424 241.023 165.534 208.38 164.835C175.736 164.136 146.282 159.76 125.053 153.262C114.436 150.012 105.904 146.239 100.062 142.149C94.2028 138.046 91.1622 133.707 91.2557 129.342C91.3492 124.977 94.5728 120.772 100.603 116.924C106.614 113.088 115.299 109.684 126.047 106.891C147.534 101.308 177.149 98.1975 209.792 98.8967C242.435 99.5959 271.89 103.971 293.118 110.47C303.736 113.72 312.268 117.493 318.109 121.583C323.969 125.686 327.01 130.025 326.916 134.39Z" stroke="#D3ECF4" stroke-opacity="0.7"/>
<path d="M310.338 70.9485L311.616 77.2016L317.869 78.4796L311.616 79.7577L310.338 86.0108L309.06 79.7577L302.807 78.4796L309.06 77.2016L310.338 70.9485Z" fill="#D3ECF4" fill-opacity="0.8"/>
<path d="M171.633 86.0356L172.153 88.5832L174.701 89.1039L172.153 89.6246L171.633 92.1721L171.112 89.6246L168.564 89.1039L171.112 88.5832L171.633 86.0356Z" fill="#D3ECF4" fill-opacity="0.8"/>
<path d="M150.987 196.538L151.887 200.938L156.287 201.838L151.887 202.737L150.987 207.137L150.088 202.737L145.687 201.838L150.088 200.938L150.987 196.538Z" fill="#D3ECF4" fill-opacity="0.8"/>
<g filter="url(#filter2_f_832_928)">
<path d="M164.662 65.9001C202.316 52.6297 242.435 76.111 254.268 118.345C263.734 152.136 246.989 188.131 216.862 198.748C192.762 207.242 167.083 192.213 159.51 165.182C153.451 143.555 164.171 120.521 183.449 113.727C198.874 108.29 215.305 117.907 220.152 135.209C224.03 149.05 217.17 163.794 204.83 168.143C194.96 171.622 184.442 165.466 181.341 154.396C178.859 145.537 183.252 136.103 191.146 133.321C197.463 131.095 204.196 135.035 206.181 142.121C207.77 147.792 204.957 153.829 199.906 155.61" stroke="white" stroke-opacity="0.89" stroke-miterlimit="10"/>
</g>
<path d="M164.662 65.9001C202.316 52.6297 242.435 76.111 254.268 118.345C263.734 152.136 246.989 188.131 216.862 198.748C192.762 207.242 167.083 192.213 159.51 165.182C153.451 143.555 164.171 120.521 183.449 113.727C198.874 108.29 215.305 117.907 220.152 135.209C224.03 149.05 217.17 163.794 204.83 168.143C194.96 171.622 184.442 165.466 181.341 154.396C178.859 145.537 183.252 136.103 191.146 133.321C197.463 131.095 204.196 135.035 206.181 142.121C207.77 147.792 204.957 153.829 199.906 155.61" stroke="white" stroke-opacity="0.39" stroke-miterlimit="10"/>
<defs>
<filter id="filter0_f_832_928" x="70.8047" y="0.281738" width="259.955" height="263.615" filterUnits="userSpaceOnUse" color-interpolation-filters="sRGB">
<feFlood flood-opacity="0" result="BackgroundImageFix"/>
<feBlend mode="normal" in="SourceGraphic" in2="BackgroundImageFix" result="shape"/>
<feGaussianBlur stdDeviation="27.5" result="effect1_foregroundBlur_832_928"/>
</filter>
<filter id="filter1_f_832_928" x="145.943" y="50.0625" width="122.842" height="163.189" filterUnits="userSpaceOnUse" color-interpolation-filters="sRGB">
<feFlood flood-opacity="0" result="BackgroundImageFix"/>
<feBlend mode="normal" in="SourceGraphic" in2="BackgroundImageFix" result="shape"/>
<feGaussianBlur stdDeviation="3" result="effect1_foregroundBlur_832_928"/>
</filter>
<filter id="filter2_f_832_928" x="154.328" y="58.6819" width="106.074" height="145.95" filterUnits="userSpaceOnUse" color-interpolation-filters="sRGB">
<feFlood flood-opacity="0" result="BackgroundImageFix"/>
<feBlend mode="normal" in="SourceGraphic" in2="BackgroundImageFix" result="shape"/>
<feGaussianBlur stdDeviation="1.5" result="effect1_foregroundBlur_832_928"/>
</filter>
</defs>
</svg>
