<svg width="24" height="54" viewBox="0 0 24 54" fill="none" xmlns="http://www.w3.org/2000/svg">
<path d="M18.4506 2.05169L17.8008 2.07001L18.4506 2.05169ZM17.9527 0.700247C18.1992 0.439358 18.6106 0.427761 18.8715 0.67435L23.123 4.69274C23.3839 4.93933 23.3955 5.35072 23.1489 5.61161C22.9023 5.8725 22.4909 5.8841 22.23 5.63751L18.4509 2.06561L14.879 5.8447C14.6325 6.10559 14.2211 6.11719 13.9602 5.8706C13.6993 5.62401 13.6877 5.21262 13.9343 4.95173L17.9527 0.700247ZM17.8008 2.07001L17.7753 1.16505L19.0748 1.12842L19.1003 2.03338L17.8008 2.07001ZM0.715674 52.6167C12.2582 38.3454 18.3179 20.4175 17.8008 2.07001L19.1003 2.03338C19.6262 20.6909 13.464 38.9217 1.72645 53.4342L0.715674 52.6167Z" fill="#477A8D"/>
</svg>
