<svg width="623" height="88" viewBox="0 0 623 88" fill="none" xmlns="http://www.w3.org/2000/svg">
<path d="M75.2615 46.7984H75.4365C75.5999 46.7984 75.7515 46.7284 75.8915 46.5884C76.0315 46.4484 76.1482 46.2851 76.2415 46.0984C76.3582 45.9118 76.4399 45.7134 76.4865 45.5034C76.5332 45.2701 76.5565 45.0601 76.5565 44.8734V26.2534C76.5565 26.0901 76.5332 25.9034 76.4865 25.6934C76.4399 25.4834 76.3582 25.2851 76.2415 25.0984C76.1482 24.8884 76.0199 24.7251 75.8565 24.6084C75.7165 24.4684 75.5532 24.3984 75.3665 24.3984H75.1915V24.0484H80.9315C83.1015 24.0484 84.7932 24.5268 86.0065 25.4834C87.2432 26.4401 87.8615 27.7118 87.8615 29.2984C87.8615 29.9751 87.7449 30.5818 87.5115 31.1184C87.2782 31.6551 86.9749 32.1334 86.6015 32.5534C86.2515 32.9734 85.8665 33.3351 85.4465 33.6384C85.0265 33.9184 84.6299 34.1518 84.2565 34.3384C85.2365 34.5251 86.0532 34.8401 86.7065 35.2834C87.3599 35.7268 87.8849 36.2401 88.2815 36.8234C88.7015 37.3834 88.9932 37.9901 89.1565 38.6434C89.3199 39.2968 89.4015 39.9384 89.4015 40.5684C89.4015 41.7818 89.1799 42.8084 88.7365 43.6484C88.2932 44.4651 87.6982 45.1418 86.9515 45.6784C86.2282 46.1918 85.3882 46.5651 84.4315 46.7984C83.4982 47.0318 82.5299 47.1484 81.5265 47.1484H75.2615V46.7984ZM87.0215 40.7784C86.8349 38.9818 86.2282 37.5934 85.2015 36.6134C84.1749 35.6334 82.7282 35.1434 80.8615 35.1434H78.9015V45.9934H80.9315C82.8215 45.9934 84.3032 45.5734 85.3765 44.7334C86.4732 43.8701 87.0215 42.6801 87.0215 41.1634V40.7784ZM85.5865 29.6134C85.5165 28.2601 85.0382 27.1868 84.1515 26.3934C83.2882 25.6001 82.1215 25.2034 80.6515 25.2034H78.9015V34.0234H80.7215C81.7015 34.0234 82.4949 33.8951 83.1015 33.6384C83.7315 33.3818 84.2332 33.0551 84.6065 32.6584C84.9799 32.2384 85.2365 31.7834 85.3765 31.2934C85.5165 30.8034 85.5865 30.3251 85.5865 29.8584V29.6134ZM105.756 46.7984H105.931C106.491 46.7984 106.771 46.5418 106.771 46.0284C106.771 45.8418 106.736 45.6434 106.666 45.4334L103.516 36.9284H97.3905L94.3455 45.2934C94.2755 45.4801 94.2405 45.6551 94.2405 45.8184C94.2405 46.1218 94.3222 46.3668 94.4855 46.5534C94.6489 46.7168 94.8239 46.7984 95.0105 46.7984H95.1855V47.1484H91.3005V46.7984H91.4755C91.7789 46.7984 92.0705 46.6234 92.3505 46.2734C92.6539 45.9001 92.8989 45.4684 93.0855 44.9784L101.101 23.6284L108.941 44.7684C109.104 45.2351 109.326 45.6901 109.606 46.1334C109.909 46.5768 110.294 46.7984 110.761 46.7984H110.936V47.1484H105.756V46.7984ZM97.7405 35.7384H103.131L100.436 28.4234L97.7405 35.7384ZM126.995 46.7984H127.17C127.333 46.7984 127.485 46.7401 127.625 46.6234C127.765 46.4834 127.882 46.3201 127.975 46.1334C128.092 45.9234 128.173 45.7134 128.22 45.5034C128.267 45.2701 128.29 45.0601 128.29 44.8734V35.3534H117.09V44.8734C117.09 45.0601 117.113 45.2701 117.16 45.5034C117.207 45.7134 117.277 45.9118 117.37 46.0984C117.463 46.2851 117.568 46.4484 117.685 46.5884C117.825 46.7284 117.988 46.7984 118.175 46.7984H118.35V47.1484H113.45V46.7984H113.625C113.788 46.7984 113.94 46.7401 114.08 46.6234C114.22 46.4834 114.337 46.3201 114.43 46.1334C114.547 45.9234 114.628 45.7134 114.675 45.5034C114.722 45.2701 114.745 45.0601 114.745 44.8734V26.2184C114.745 26.0551 114.722 25.8684 114.675 25.6584C114.628 25.4484 114.558 25.2501 114.465 25.0634C114.372 24.8768 114.255 24.7251 114.115 24.6084C113.975 24.4684 113.812 24.3984 113.625 24.3984H113.45V24.0484H118.35V24.3984H118.175C117.988 24.3984 117.825 24.4684 117.685 24.6084C117.545 24.7251 117.428 24.8768 117.335 25.0634C117.265 25.2501 117.207 25.4484 117.16 25.6584C117.113 25.8684 117.09 26.0551 117.09 26.2184V34.1284H128.29V26.2184C128.29 26.0551 128.267 25.8684 128.22 25.6584C128.173 25.4484 128.103 25.2501 128.01 25.0634C127.917 24.8768 127.8 24.7251 127.66 24.6084C127.52 24.4684 127.357 24.3984 127.17 24.3984H126.995V24.0484H131.895V24.3984H131.72C131.533 24.3984 131.37 24.4684 131.23 24.6084C131.09 24.7251 130.973 24.8768 130.88 25.0634C130.81 25.2501 130.752 25.4484 130.705 25.6584C130.658 25.8684 130.635 26.0551 130.635 26.2184V44.8734C130.635 45.0601 130.658 45.2701 130.705 45.5034C130.775 45.7134 130.857 45.9118 130.95 46.0984C131.043 46.2851 131.148 46.4484 131.265 46.5884C131.405 46.7284 131.557 46.7984 131.72 46.7984H131.895V47.1484H126.995V46.7984ZM143.658 46.7984H143.833V47.1484H138.863V46.7984H139.038C139.224 46.7984 139.388 46.7284 139.528 46.5884C139.668 46.4484 139.784 46.2851 139.878 46.0984C139.994 45.9118 140.076 45.7134 140.123 45.5034C140.169 45.2701 140.193 45.0601 140.193 44.8734V25.3434H136.133C135.759 25.3434 135.433 25.4251 135.153 25.5884C134.873 25.7518 134.639 25.9618 134.453 26.2184C134.266 26.4518 134.126 26.7201 134.033 27.0234C133.939 27.3034 133.893 27.5834 133.893 27.8634H133.543V24.0484H149.258V27.8634H148.908C148.908 27.5834 148.861 27.3034 148.768 27.0234C148.674 26.7201 148.534 26.4518 148.348 26.2184C148.161 25.9618 147.928 25.7518 147.648 25.5884C147.368 25.4251 147.041 25.3434 146.668 25.3434H142.538V44.8734C142.538 45.0601 142.561 45.2701 142.608 45.5034C142.654 45.7134 142.724 45.9118 142.818 46.0984C142.934 46.2851 143.051 46.4484 143.168 46.5884C143.308 46.7284 143.471 46.7984 143.658 46.7984ZM161.124 23.6984C162.944 23.6984 164.577 24.0251 166.024 24.6784C167.471 25.3084 168.696 26.1718 169.699 27.2684C170.726 28.3418 171.507 29.6018 172.044 31.0484C172.604 32.4718 172.884 33.9651 172.884 35.5284C172.884 37.2784 172.557 38.8884 171.904 40.3584C171.274 41.8284 170.399 43.0884 169.279 44.1384C168.159 45.1884 166.852 46.0168 165.359 46.6234C163.889 47.2068 162.314 47.4984 160.634 47.4984C158.837 47.4984 157.216 47.1718 155.769 46.5184C154.346 45.8651 153.132 45.0018 152.129 43.9284C151.149 42.8551 150.391 41.6184 149.854 40.2184C149.317 38.8184 149.049 37.3601 149.049 35.8434C149.049 34.3501 149.317 32.8801 149.854 31.4334C150.391 29.9634 151.172 28.6568 152.199 27.5134C153.249 26.3701 154.521 25.4484 156.014 24.7484C157.507 24.0484 159.211 23.6984 161.124 23.6984ZM161.089 46.2734C162.652 46.2034 164.017 45.8534 165.184 45.2234C166.374 44.5701 167.366 43.7534 168.159 42.7734C168.952 41.7701 169.536 40.6734 169.909 39.4834C170.306 38.2934 170.504 37.1151 170.504 35.9484C170.504 34.6651 170.271 33.3701 169.804 32.0634C169.337 30.7568 168.672 29.5784 167.809 28.5284C166.946 27.4551 165.907 26.5918 164.694 25.9384C163.504 25.2618 162.162 24.9234 160.669 24.9234C159.222 24.9234 157.927 25.2501 156.784 25.9034C155.641 26.5334 154.661 27.3501 153.844 28.3534C153.051 29.3568 152.444 30.4768 152.024 31.7134C151.604 32.9501 151.394 34.1634 151.394 35.3534C151.394 36.6368 151.639 37.9318 152.129 39.2384C152.619 40.5218 153.296 41.6884 154.159 42.7384C155.022 43.7884 156.037 44.6401 157.204 45.2934C158.394 45.9468 159.689 46.2734 161.089 46.2734ZM175.955 46.7984H176.13C176.293 46.7984 176.445 46.7284 176.585 46.5884C176.725 46.4484 176.842 46.2851 176.935 46.0984C177.052 45.9118 177.133 45.7134 177.18 45.5034C177.227 45.2701 177.25 45.0601 177.25 44.8734V26.2534C177.25 26.0901 177.227 25.9034 177.18 25.6934C177.133 25.4834 177.052 25.2851 176.935 25.0984C176.842 24.8884 176.713 24.7251 176.55 24.6084C176.41 24.4684 176.247 24.3984 176.06 24.3984H175.885V24.0484H181.625C183.795 24.0484 185.487 24.5268 186.7 25.4834C187.937 26.4401 188.555 27.7118 188.555 29.2984C188.555 29.9751 188.438 30.5818 188.205 31.1184C187.972 31.6551 187.668 32.1334 187.295 32.5534C186.945 32.9734 186.56 33.3351 186.14 33.6384C185.72 33.9184 185.323 34.1518 184.95 34.3384C185.93 34.5251 186.747 34.8401 187.4 35.2834C188.053 35.7268 188.578 36.2401 188.975 36.8234C189.395 37.3834 189.687 37.9901 189.85 38.6434C190.013 39.2968 190.095 39.9384 190.095 40.5684C190.095 41.7818 189.873 42.8084 189.43 43.6484C188.987 44.4651 188.392 45.1418 187.645 45.6784C186.922 46.1918 186.082 46.5651 185.125 46.7984C184.192 47.0318 183.223 47.1484 182.22 47.1484H175.955V46.7984ZM187.715 40.7784C187.528 38.9818 186.922 37.5934 185.895 36.6134C184.868 35.6334 183.422 35.1434 181.555 35.1434H179.595V45.9934H181.625C183.515 45.9934 184.997 45.5734 186.07 44.7334C187.167 43.8701 187.715 42.6801 187.715 41.1634V40.7784ZM186.28 29.6134C186.21 28.2601 185.732 27.1868 184.845 26.3934C183.982 25.6001 182.815 25.2034 181.345 25.2034H179.595V34.0234H181.415C182.395 34.0234 183.188 33.8951 183.795 33.6384C184.425 33.3818 184.927 33.0551 185.3 32.6584C185.673 32.2384 185.93 31.7834 186.07 31.2934C186.21 30.8034 186.28 30.3251 186.28 29.8584V29.6134ZM206.449 46.7984H206.624C207.184 46.7984 207.464 46.5418 207.464 46.0284C207.464 45.8418 207.429 45.6434 207.359 45.4334L204.209 36.9284H198.084L195.039 45.2934C194.969 45.4801 194.934 45.6551 194.934 45.8184C194.934 46.1218 195.016 46.3668 195.179 46.5534C195.342 46.7168 195.517 46.7984 195.704 46.7984H195.879V47.1484H191.994V46.7984H192.169C192.472 46.7984 192.764 46.6234 193.044 46.2734C193.347 45.9001 193.592 45.4684 193.779 44.9784L201.794 23.6284L209.634 44.7684C209.797 45.2351 210.019 45.6901 210.299 46.1334C210.602 46.5768 210.987 46.7984 211.454 46.7984H211.629V47.1484H206.449V46.7984ZM198.434 35.7384H203.824L201.129 28.4234L198.434 35.7384ZM225.028 46.7984H225.203C225.367 46.7984 225.518 46.7284 225.658 46.5884C225.822 46.4484 225.95 46.2851 226.043 46.0984C226.137 45.9118 226.207 45.7134 226.253 45.5034C226.323 45.2701 226.358 45.0601 226.358 44.8734V35.3884C225.845 35.4351 225.355 35.5984 224.888 35.8784C224.445 36.1584 224.013 36.5318 223.593 36.9984C223.197 37.4651 222.812 37.9901 222.438 38.5734C222.088 39.1568 221.75 39.7634 221.423 40.3934C221.167 40.8601 220.887 41.3618 220.583 41.8984C220.28 42.4118 219.977 42.9368 219.673 43.4734C219.113 44.5001 218.378 45.3751 217.468 46.0984C216.558 46.7984 215.508 47.1484 214.318 47.1484H212.463V46.7984C213 46.7984 213.502 46.6818 213.968 46.4484C214.458 46.2151 214.902 45.9234 215.298 45.5734C215.695 45.2234 216.045 44.8384 216.348 44.4184C216.675 43.9984 216.943 43.6018 217.153 43.2284L219.918 38.2584C220.245 37.6984 220.595 37.1618 220.968 36.6484C221.365 36.1118 221.96 35.6801 222.753 35.3534C221.773 35.2834 220.898 35.0968 220.128 34.7934C219.358 34.4901 218.705 34.0934 218.168 33.6034C217.632 33.1134 217.223 32.5651 216.943 31.9584C216.663 31.3284 216.523 30.6751 216.523 29.9984C216.523 29.1351 216.722 28.3418 217.118 27.6184C217.515 26.8718 218.075 26.2418 218.798 25.7284C219.522 25.1918 220.397 24.7834 221.423 24.5034C222.473 24.2001 223.64 24.0484 224.923 24.0484H229.963V24.3984H229.788C229.625 24.3984 229.473 24.4684 229.333 24.6084C229.193 24.7251 229.077 24.8768 228.983 25.0634C228.89 25.2501 228.82 25.4484 228.773 25.6584C228.727 25.8684 228.703 26.0551 228.703 26.2184V44.8734C228.703 45.0601 228.727 45.2701 228.773 45.5034C228.82 45.7134 228.89 45.9118 228.983 46.0984C229.077 46.2851 229.193 46.4484 229.333 46.5884C229.473 46.7284 229.625 46.7984 229.788 46.7984H229.963V47.1484H225.028V46.7984ZM218.728 29.4734C218.728 30.1501 218.868 30.7801 219.148 31.3634C219.428 31.9234 219.813 32.4134 220.303 32.8334C220.793 33.2534 221.365 33.5801 222.018 33.8134C222.672 34.0468 223.383 34.1634 224.153 34.1634H226.358V25.2384H225.833C223.57 25.2384 221.82 25.6118 220.583 26.3584C219.347 27.1051 218.728 28.1434 218.728 29.4734ZM242.366 46.7984H242.541C242.728 46.7984 242.891 46.7401 243.031 46.6234C243.171 46.4834 243.288 46.3201 243.381 46.1334C243.474 45.9234 243.544 45.7134 243.591 45.5034C243.638 45.2701 243.661 45.0601 243.661 44.8734V26.2184C243.661 26.0551 243.626 25.8684 243.556 25.6584C243.509 25.4484 243.439 25.2501 243.346 25.0634C243.253 24.8768 243.136 24.7251 242.996 24.6084C242.856 24.4684 242.704 24.3984 242.541 24.3984H242.366V24.0484H260.286V24.3984H260.006C259.843 24.3984 259.703 24.4684 259.586 24.6084C259.469 24.7251 259.364 24.8884 259.271 25.0984C259.201 25.2851 259.143 25.4834 259.096 25.6934C259.049 25.9034 259.026 26.0784 259.026 26.2184V44.8734C259.026 45.0601 259.038 45.2584 259.061 45.4684C259.108 45.6784 259.166 45.8884 259.236 46.0984C259.329 46.2851 259.434 46.4484 259.551 46.5884C259.691 46.7284 259.843 46.7984 260.006 46.7984H260.286V47.1484H255.386V46.7984H255.701C255.864 46.7984 256.004 46.7284 256.121 46.5884C256.261 46.4484 256.366 46.2851 256.436 46.0984C256.529 45.9118 256.588 45.7134 256.611 45.5034C256.658 45.2701 256.681 45.0601 256.681 44.8734V25.2734H246.006V44.8734C246.006 45.0601 246.029 45.2701 246.076 45.5034C246.123 45.7134 246.181 45.9118 246.251 46.0984C246.344 46.2851 246.461 46.4484 246.601 46.5884C246.741 46.7284 246.904 46.7984 247.091 46.7984H247.266V47.1484H242.366V46.7984ZM275.946 24.9584C274.219 24.9584 272.714 25.2734 271.431 25.9034C270.171 26.5101 269.121 27.3151 268.281 28.3184C267.441 29.2984 266.811 30.4068 266.391 31.6434C265.994 32.8801 265.796 34.1051 265.796 35.3184C265.796 36.6951 266.064 38.0484 266.601 39.3784C267.137 40.6851 267.872 41.8518 268.806 42.8784C269.762 43.8818 270.871 44.6984 272.131 45.3284C273.391 45.9351 274.756 46.2384 276.226 46.2384C276.646 46.2384 277.136 46.1918 277.696 46.0984C278.279 46.0051 278.851 45.8301 279.411 45.5734C279.971 45.2934 280.484 44.9084 280.951 44.4184C281.441 43.9284 281.814 43.2868 282.071 42.4934H282.421V46.3784C282.071 46.3784 281.697 46.4251 281.301 46.5184C280.927 46.6118 280.507 46.7168 280.041 46.8334C279.434 46.9968 278.757 47.1484 278.011 47.2884C277.287 47.4284 276.517 47.4984 275.701 47.4984C273.671 47.4984 271.886 47.1484 270.346 46.4484C268.806 45.7484 267.522 44.8384 266.496 43.7184C265.469 42.5984 264.699 41.3384 264.186 39.9384C263.672 38.5151 263.416 37.0801 263.416 35.6334C263.416 34.1868 263.672 32.7518 264.186 31.3284C264.699 29.9051 265.481 28.6334 266.531 27.5134C267.581 26.3701 268.899 25.4484 270.486 24.7484C272.072 24.0484 273.939 23.6984 276.086 23.6984C276.856 23.6984 277.544 23.7684 278.151 23.9084C278.781 24.0484 279.341 24.1884 279.831 24.3284C280.181 24.4451 280.496 24.5384 280.776 24.6084C281.079 24.6551 281.371 24.6784 281.651 24.6784V28.5634H281.301C281.161 27.8401 280.904 27.2451 280.531 26.7784C280.157 26.2884 279.714 25.9151 279.201 25.6584C278.711 25.4018 278.174 25.2268 277.591 25.1334C277.031 25.0168 276.482 24.9584 275.946 24.9584ZM299.362 46.7984H299.537C299.724 46.7984 299.887 46.7401 300.027 46.6234C300.167 46.4834 300.284 46.3201 300.377 46.1334C300.494 45.9234 300.576 45.7134 300.622 45.5034C300.669 45.2701 300.692 45.0601 300.692 44.8734V28.8434L289.072 44.5584V44.8734C289.072 45.0601 289.096 45.2701 289.142 45.5034C289.212 45.7134 289.294 45.9118 289.387 46.0984C289.481 46.2851 289.597 46.4484 289.737 46.5884C289.877 46.7284 290.041 46.7984 290.227 46.7984H290.402V47.1484H285.432V46.7984H285.607C285.794 46.7984 285.957 46.7401 286.097 46.6234C286.237 46.4834 286.354 46.3201 286.447 46.1334C286.564 45.9234 286.646 45.7134 286.692 45.5034C286.739 45.2701 286.762 45.0601 286.762 44.8734V26.2184C286.762 26.0551 286.739 25.8684 286.692 25.6584C286.646 25.4484 286.564 25.2501 286.447 25.0634C286.354 24.8768 286.237 24.7251 286.097 24.6084C285.957 24.4684 285.794 24.3984 285.607 24.3984H285.432V24.0484H290.402V24.3984H290.122C289.959 24.4218 289.807 24.5034 289.667 24.6434C289.551 24.7834 289.446 24.9468 289.352 25.1334C289.259 25.2968 289.189 25.4834 289.142 25.6934C289.096 25.8801 289.072 26.0551 289.072 26.2184V42.3884L300.692 26.6734V26.2184C300.692 26.0551 300.669 25.8684 300.622 25.6584C300.576 25.4484 300.494 25.2501 300.377 25.0634C300.284 24.8768 300.167 24.7251 300.027 24.6084C299.887 24.4684 299.724 24.3984 299.537 24.3984H299.362V24.0484H304.332V24.3984H304.157C303.971 24.3984 303.807 24.4684 303.667 24.6084C303.527 24.7251 303.411 24.8768 303.317 25.0634C303.224 25.2501 303.142 25.4484 303.072 25.6584C303.026 25.8684 303.002 26.0551 303.002 26.2184V44.8734C303.002 45.0601 303.026 45.2584 303.072 45.4684C303.142 45.6784 303.224 45.8884 303.317 46.0984C303.411 46.2851 303.527 46.4484 303.667 46.5884C303.807 46.7284 303.971 46.7984 304.157 46.7984H304.332V47.1484H299.362V46.7984ZM313.669 35.5634L308.804 26.4634C308.688 26.2768 308.548 26.0668 308.384 25.8334C308.244 25.5768 308.093 25.3434 307.929 25.1334C307.766 24.9234 307.579 24.7484 307.369 24.6084C307.183 24.4684 306.984 24.3984 306.774 24.3984V24.0484H311.744V24.3984C311.604 24.3984 311.441 24.4918 311.254 24.6784C311.091 24.8651 311.009 25.0984 311.009 25.3784C311.009 25.5418 311.056 25.7051 311.149 25.8684L315.104 33.2184L318.709 26.2184C318.709 26.1484 318.744 26.0784 318.814 26.0084C318.861 25.8918 318.908 25.7751 318.954 25.6584C319.024 25.5184 319.059 25.3901 319.059 25.2734C319.059 24.9001 318.931 24.6668 318.674 24.5734C318.418 24.4568 318.254 24.3984 318.184 24.3984V24.0484H322.069V24.3984C321.673 24.3984 321.288 24.6201 320.914 25.0634C320.564 25.4834 320.284 25.9034 320.074 26.3234L315.804 34.4784L321.264 44.7684C321.381 44.9784 321.521 45.2001 321.684 45.4334C321.848 45.6668 322.023 45.8884 322.209 46.0984C322.396 46.3084 322.583 46.4834 322.769 46.6234C322.979 46.7401 323.189 46.7984 323.399 46.7984V47.1484H318.429V46.7984C318.569 46.7984 318.709 46.7051 318.849 46.5184C318.989 46.3318 319.059 46.1101 319.059 45.8534C319.059 45.6901 318.989 45.4801 318.849 45.2234L314.404 36.8934L310.029 45.2234C309.959 45.3634 309.889 45.5268 309.819 45.7134C309.773 45.9001 309.749 46.0751 309.749 46.2384C309.749 46.6118 309.924 46.7984 310.274 46.7984V47.1484H306.459V46.7984C306.623 46.7984 306.809 46.7518 307.019 46.6584C307.229 46.5418 307.439 46.4018 307.649 46.2384C307.859 46.0751 308.058 45.8884 308.244 45.6784C308.431 45.4684 308.583 45.2701 308.699 45.0834L313.669 35.5634ZM335.645 23.6984C337.465 23.6984 339.099 24.0251 340.545 24.6784C341.992 25.3084 343.217 26.1718 344.22 27.2684C345.247 28.3418 346.029 29.6018 346.565 31.0484C347.125 32.4718 347.405 33.9651 347.405 35.5284C347.405 37.2784 347.079 38.8884 346.425 40.3584C345.795 41.8284 344.92 43.0884 343.8 44.1384C342.68 45.1884 341.374 46.0168 339.88 46.6234C338.41 47.2068 336.835 47.4984 335.155 47.4984C333.359 47.4984 331.737 47.1718 330.29 46.5184C328.867 45.8651 327.654 45.0018 326.65 43.9284C325.67 42.8551 324.912 41.6184 324.375 40.2184C323.839 38.8184 323.57 37.3601 323.57 35.8434C323.57 34.3501 323.839 32.8801 324.375 31.4334C324.912 29.9634 325.694 28.6568 326.72 27.5134C327.77 26.3701 329.042 25.4484 330.535 24.7484C332.029 24.0484 333.732 23.6984 335.645 23.6984ZM335.61 46.2734C337.174 46.2034 338.539 45.8534 339.705 45.2234C340.895 44.5701 341.887 43.7534 342.68 42.7734C343.474 41.7701 344.057 40.6734 344.43 39.4834C344.827 38.2934 345.025 37.1151 345.025 35.9484C345.025 34.6651 344.792 33.3701 344.325 32.0634C343.859 30.7568 343.194 29.5784 342.33 28.5284C341.467 27.4551 340.429 26.5918 339.215 25.9384C338.025 25.2618 336.684 24.9234 335.19 24.9234C333.744 24.9234 332.449 25.2501 331.305 25.9034C330.162 26.5334 329.182 27.3501 328.365 28.3534C327.572 29.3568 326.965 30.4768 326.545 31.7134C326.125 32.9501 325.915 34.1634 325.915 35.3534C325.915 36.6368 326.16 37.9318 326.65 39.2384C327.14 40.5218 327.817 41.6884 328.68 42.7384C329.544 43.7884 330.559 44.6401 331.725 45.2934C332.915 45.9468 334.21 46.2734 335.61 46.2734ZM354.981 23.6984C357.128 23.6984 358.983 24.0251 360.546 24.6784C362.133 25.3084 363.439 26.1484 364.466 27.1984C365.493 28.2484 366.251 29.4501 366.741 30.8034C367.254 32.1568 367.511 33.5451 367.511 34.9684C367.511 36.7184 367.184 38.3634 366.531 39.9034C365.878 41.4434 364.979 42.7968 363.836 43.9634C362.693 45.1068 361.351 46.0168 359.811 46.6934C358.271 47.3468 356.614 47.6734 354.841 47.6734C353.721 47.6734 352.776 47.5684 352.006 47.3584C351.259 47.1484 350.618 46.9501 350.081 46.7634C349.824 46.6701 349.556 46.5884 349.276 46.5184C348.996 46.4251 348.751 46.3784 348.541 46.3784V42.8084H348.891C349.171 43.6018 349.568 44.2318 350.081 44.6984C350.594 45.1651 351.143 45.5268 351.726 45.7834C352.333 46.0168 352.939 46.1684 353.546 46.2384C354.153 46.3084 354.666 46.3434 355.086 46.3434C356.556 46.3434 357.898 46.0401 359.111 45.4334C360.324 44.8268 361.374 44.0218 362.261 43.0184C363.171 41.9918 363.871 40.8134 364.361 39.4834C364.874 38.1534 365.143 36.7651 365.166 35.3184H356.101C355.518 35.3184 355.051 35.4701 354.701 35.7734C354.351 36.0768 354.176 36.4384 354.176 36.8584H353.861V32.4834H354.176C354.176 32.9268 354.351 33.3118 354.701 33.6384C355.074 33.9651 355.541 34.1284 356.101 34.1284H365.131C364.991 33.0084 364.664 31.9001 364.151 30.8034C363.661 29.7068 362.984 28.7268 362.121 27.8634C361.258 26.9768 360.208 26.2651 358.971 25.7284C357.758 25.1918 356.346 24.9234 354.736 24.9234C354.199 24.9234 353.651 24.9584 353.091 25.0284C352.554 25.0984 352.053 25.2501 351.586 25.4834C351.119 25.6934 350.711 26.0201 350.361 26.4634C350.034 26.9068 349.801 27.4901 349.661 28.2134H349.311V24.6434C349.591 24.6434 349.871 24.6201 350.151 24.5734C350.431 24.5034 350.723 24.4218 351.026 24.3284C351.516 24.1884 352.076 24.0484 352.706 23.9084C353.359 23.7684 354.118 23.6984 354.981 23.6984ZM384.436 46.7984H384.611C384.775 46.7984 384.926 46.7401 385.066 46.6234C385.206 46.4834 385.323 46.3201 385.416 46.1334C385.533 45.9234 385.615 45.7134 385.661 45.5034C385.708 45.2701 385.731 45.0601 385.731 44.8734V35.3534H374.531V44.8734C374.531 45.0601 374.555 45.2701 374.601 45.5034C374.648 45.7134 374.718 45.9118 374.811 46.0984C374.905 46.2851 375.01 46.4484 375.126 46.5884C375.266 46.7284 375.43 46.7984 375.616 46.7984H375.791V47.1484H370.891V46.7984H371.066C371.23 46.7984 371.381 46.7401 371.521 46.6234C371.661 46.4834 371.778 46.3201 371.871 46.1334C371.988 45.9234 372.07 45.7134 372.116 45.5034C372.163 45.2701 372.186 45.0601 372.186 44.8734V26.2184C372.186 26.0551 372.163 25.8684 372.116 25.6584C372.07 25.4484 372 25.2501 371.906 25.0634C371.813 24.8768 371.696 24.7251 371.556 24.6084C371.416 24.4684 371.253 24.3984 371.066 24.3984H370.891V24.0484H375.791V24.3984H375.616C375.43 24.3984 375.266 24.4684 375.126 24.6084C374.986 24.7251 374.87 24.8768 374.776 25.0634C374.706 25.2501 374.648 25.4484 374.601 25.6584C374.555 25.8684 374.531 26.0551 374.531 26.2184V34.1284H385.731V26.2184C385.731 26.0551 385.708 25.8684 385.661 25.6584C385.615 25.4484 385.545 25.2501 385.451 25.0634C385.358 24.8768 385.241 24.7251 385.101 24.6084C384.961 24.4684 384.798 24.3984 384.611 24.3984H384.436V24.0484H389.336V24.3984H389.161C388.975 24.3984 388.811 24.4684 388.671 24.6084C388.531 24.7251 388.415 24.8768 388.321 25.0634C388.251 25.2501 388.193 25.4484 388.146 25.6584C388.1 25.8684 388.076 26.0551 388.076 26.2184V44.8734C388.076 45.0601 388.1 45.2701 388.146 45.5034C388.216 45.7134 388.298 45.9118 388.391 46.0984C388.485 46.2851 388.59 46.4484 388.706 46.5884C388.846 46.7284 388.998 46.7984 389.161 46.7984H389.336V47.1484H384.436V46.7984ZM392.244 46.7984H392.419C392.606 46.7984 392.769 46.7401 392.909 46.6234C393.049 46.4834 393.166 46.3201 393.259 46.1334C393.376 45.9468 393.457 45.7484 393.504 45.5384C393.574 45.3284 393.609 45.1301 393.609 44.9434V26.2184C393.609 26.0551 393.574 25.8684 393.504 25.6584C393.457 25.4484 393.376 25.2501 393.259 25.0634C393.166 24.8768 393.049 24.7251 392.909 24.6084C392.769 24.4684 392.606 24.3984 392.419 24.3984H392.244V24.0484H405.719V27.3034H405.369C405.322 26.7668 405.112 26.3001 404.739 25.9034C404.366 25.4834 403.782 25.2734 402.989 25.2734H395.954V34.1284H401.764C402.301 34.1284 402.744 33.9651 403.094 33.6384C403.467 33.3118 403.654 32.9268 403.654 32.4834H404.004V36.8584H403.654C403.654 36.4384 403.479 36.0768 403.129 35.7734C402.779 35.4701 402.324 35.3184 401.764 35.3184H395.954V45.9234H403.619C404.062 45.9234 404.447 45.8184 404.774 45.6084C405.101 45.3984 405.369 45.1534 405.579 44.8734C405.812 44.5701 405.976 44.2551 406.069 43.9284C406.186 43.5784 406.244 43.2868 406.244 43.0534H406.594V47.1484H392.244V46.7984ZM409.196 24.0484H414.166C416.756 24.0484 418.716 24.5501 420.046 25.5534C421.4 26.5334 422.076 27.9334 422.076 29.7534C422.076 30.7334 421.843 31.6084 421.376 32.3784C420.91 33.1484 420.291 33.8018 419.521 34.3384C418.775 34.8518 417.923 35.2484 416.966 35.5284C416.033 35.8084 415.1 35.9484 414.166 35.9484H412.836V44.8734C412.836 45.0601 412.86 45.2701 412.906 45.5034C412.953 45.7134 413.023 45.9118 413.116 46.0984C413.233 46.2851 413.35 46.4484 413.466 46.5884C413.606 46.7284 413.77 46.7984 413.956 46.7984H414.131V47.1484H409.196V46.7984H409.371C409.535 46.7984 409.686 46.7284 409.826 46.5884C409.966 46.4484 410.083 46.2851 410.176 46.0984C410.27 45.9118 410.34 45.7134 410.386 45.5034C410.433 45.2701 410.456 45.0601 410.456 44.8734V26.2184C410.456 25.8918 410.363 25.5184 410.176 25.0984C409.99 24.6784 409.721 24.4451 409.371 24.3984H409.196V24.0484ZM412.836 25.2734V34.7234H413.886C414.82 34.7234 415.648 34.5951 416.371 34.3384C417.118 34.0818 417.736 33.7434 418.226 33.3234C418.716 32.9034 419.09 32.4251 419.346 31.8884C419.603 31.3518 419.731 30.8034 419.731 30.2434C419.731 29.5668 419.615 28.9368 419.381 28.3534C419.171 27.7468 418.81 27.2218 418.296 26.7784C417.806 26.3118 417.153 25.9501 416.336 25.6934C415.52 25.4134 414.516 25.2734 413.326 25.2734H412.836ZM429.921 46.7984H430.096V47.1484H425.056V46.7984H425.231C425.418 46.7984 425.581 46.7401 425.721 46.6234C425.861 46.4834 425.978 46.3201 426.071 46.1334C426.188 45.9468 426.27 45.7484 426.316 45.5384C426.363 45.3284 426.386 45.1301 426.386 44.9434V26.2184C426.386 26.0551 426.363 25.8684 426.316 25.6584C426.27 25.4484 426.188 25.2501 426.071 25.0634C425.978 24.8768 425.861 24.7251 425.721 24.6084C425.581 24.4684 425.418 24.3984 425.231 24.3984H425.056V24.0484H438.531V27.7584H438.181C438.181 26.9184 437.995 26.3001 437.621 25.9034C437.271 25.4834 436.711 25.2734 435.941 25.2734H428.766V44.9434C428.766 45.1301 428.79 45.3284 428.836 45.5384C428.883 45.7484 428.953 45.9468 429.046 46.1334C429.163 46.3201 429.291 46.4834 429.431 46.6234C429.571 46.7401 429.735 46.7984 429.921 46.7984ZM440.642 46.7984H440.817C441.004 46.7984 441.167 46.7401 441.307 46.6234C441.447 46.4834 441.564 46.3201 441.657 46.1334C441.774 45.9468 441.856 45.7484 441.902 45.5384C441.972 45.3284 442.007 45.1301 442.007 44.9434V26.2184C442.007 26.0551 441.972 25.8684 441.902 25.6584C441.856 25.4484 441.774 25.2501 441.657 25.0634C441.564 24.8768 441.447 24.7251 441.307 24.6084C441.167 24.4684 441.004 24.3984 440.817 24.3984H440.642V24.0484H454.117V27.3034H453.767C453.721 26.7668 453.511 26.3001 453.137 25.9034C452.764 25.4834 452.181 25.2734 451.387 25.2734H444.352V34.1284H450.162C450.699 34.1284 451.142 33.9651 451.492 33.6384C451.866 33.3118 452.052 32.9268 452.052 32.4834H452.402V36.8584H452.052C452.052 36.4384 451.877 36.0768 451.527 35.7734C451.177 35.4701 450.722 35.3184 450.162 35.3184H444.352V45.9234H452.017C452.461 45.9234 452.846 45.8184 453.172 45.6084C453.499 45.3984 453.767 45.1534 453.977 44.8734C454.211 44.5701 454.374 44.2551 454.467 43.9284C454.584 43.5784 454.642 43.2868 454.642 43.0534H454.992V47.1484H440.642V46.7984ZM466.485 46.7984H466.66V47.1484H461.69V46.7984H461.865C462.051 46.7984 462.215 46.7284 462.355 46.5884C462.495 46.4484 462.611 46.2851 462.705 46.0984C462.821 45.9118 462.903 45.7134 462.95 45.5034C462.996 45.2701 463.02 45.0601 463.02 44.8734V25.3434H458.96C458.586 25.3434 458.26 25.4251 457.98 25.5884C457.7 25.7518 457.466 25.9618 457.28 26.2184C457.093 26.4518 456.953 26.7201 456.86 27.0234C456.766 27.3034 456.72 27.5834 456.72 27.8634H456.37V24.0484H472.085V27.8634H471.735C471.735 27.5834 471.688 27.3034 471.595 27.0234C471.501 26.7201 471.361 26.4518 471.175 26.2184C470.988 25.9618 470.755 25.7518 470.475 25.5884C470.195 25.4251 469.868 25.3434 469.495 25.3434H465.365V44.8734C465.365 45.0601 465.388 45.2701 465.435 45.5034C465.481 45.7134 465.551 45.9118 465.645 46.0984C465.761 46.2851 465.878 46.4484 465.995 46.5884C466.135 46.7284 466.298 46.7984 466.485 46.7984ZM487.932 46.7984H488.107C488.293 46.7984 488.457 46.7401 488.597 46.6234C488.737 46.4834 488.853 46.3201 488.947 46.1334C489.063 45.9234 489.145 45.7134 489.192 45.5034C489.238 45.2701 489.262 45.0601 489.262 44.8734V28.8434L477.642 44.5584V44.8734C477.642 45.0601 477.665 45.2701 477.712 45.5034C477.782 45.7134 477.863 45.9118 477.957 46.0984C478.05 46.2851 478.167 46.4484 478.307 46.5884C478.447 46.7284 478.61 46.7984 478.797 46.7984H478.972V47.1484H474.002V46.7984H474.177C474.363 46.7984 474.527 46.7401 474.667 46.6234C474.807 46.4834 474.923 46.3201 475.017 46.1334C475.133 45.9234 475.215 45.7134 475.262 45.5034C475.308 45.2701 475.332 45.0601 475.332 44.8734V26.2184C475.332 26.0551 475.308 25.8684 475.262 25.6584C475.215 25.4484 475.133 25.2501 475.017 25.0634C474.923 24.8768 474.807 24.7251 474.667 24.6084C474.527 24.4684 474.363 24.3984 474.177 24.3984H474.002V24.0484H478.972V24.3984H478.692C478.528 24.4218 478.377 24.5034 478.237 24.6434C478.12 24.7834 478.015 24.9468 477.922 25.1334C477.828 25.2968 477.758 25.4834 477.712 25.6934C477.665 25.8801 477.642 26.0551 477.642 26.2184V42.3884L489.262 26.6734V26.2184C489.262 26.0551 489.238 25.8684 489.192 25.6584C489.145 25.4484 489.063 25.2501 488.947 25.0634C488.853 24.8768 488.737 24.7251 488.597 24.6084C488.457 24.4684 488.293 24.3984 488.107 24.3984H487.932V24.0484H492.902V24.3984H492.727C492.54 24.3984 492.377 24.4684 492.237 24.6084C492.097 24.7251 491.98 24.8768 491.887 25.0634C491.793 25.2501 491.712 25.4484 491.642 25.6584C491.595 25.8684 491.572 26.0551 491.572 26.2184V44.8734C491.572 45.0601 491.595 45.2584 491.642 45.4684C491.712 45.6784 491.793 45.8884 491.887 46.0984C491.98 46.2851 492.097 46.4484 492.237 46.5884C492.377 46.7284 492.54 46.7984 492.727 46.7984H492.902V47.1484H487.932V46.7984ZM496.219 46.7984H496.394C496.58 46.7984 496.744 46.7284 496.884 46.5884C497.024 46.4484 497.14 46.2851 497.234 46.0984C497.35 45.9118 497.432 45.7134 497.479 45.5034C497.525 45.2701 497.549 45.0601 497.549 44.8734V26.2184C497.549 26.0551 497.525 25.8684 497.479 25.6584C497.432 25.4484 497.35 25.2501 497.234 25.0634C497.14 24.8768 497.024 24.7251 496.884 24.6084C496.744 24.4684 496.592 24.3984 496.429 24.3984H496.254V24.0484H501.224V24.3984H501.049C500.862 24.3984 500.699 24.4684 500.559 24.6084C500.419 24.7251 500.29 24.8768 500.174 25.0634C500.08 25.2501 499.999 25.4484 499.929 25.6584C499.882 25.8684 499.859 26.0551 499.859 26.2184V33.4634L507.979 25.3784C508.165 25.1918 508.259 24.9701 508.259 24.7134C508.259 24.5034 508.165 24.3984 507.979 24.3984V24.0484H511.759V24.3984C511.292 24.4218 510.872 24.5618 510.499 24.8184C510.149 25.0751 509.764 25.4134 509.344 25.8334L501.049 34.1284C502.565 34.1751 503.79 34.5018 504.724 35.1084C505.657 35.7151 506.392 36.5551 506.929 37.6284L509.694 43.2284C509.857 43.5784 510.067 43.9634 510.324 44.3834C510.604 44.7801 510.907 45.1651 511.234 45.5384C511.584 45.8884 511.969 46.1918 512.389 46.4484C512.809 46.6818 513.252 46.7984 513.719 46.7984V47.1484H511.969C511.292 47.1484 510.709 47.0551 510.219 46.8684C509.729 46.6584 509.297 46.3901 508.924 46.0634C508.574 45.7134 508.259 45.3284 507.979 44.9084C507.722 44.4884 507.489 44.0684 507.279 43.6484L504.444 38.0134C504 37.1501 503.382 36.4968 502.589 36.0534C501.819 35.5868 500.909 35.3301 499.859 35.2834V44.8734C499.859 45.0601 499.882 45.2584 499.929 45.4684C499.975 45.6784 500.045 45.8884 500.139 46.0984C500.232 46.2851 500.349 46.4484 500.489 46.5884C500.629 46.7051 500.78 46.7751 500.944 46.7984H501.189V47.1484H496.219V46.7984ZM529.174 46.7984H529.349C529.909 46.7984 530.189 46.5418 530.189 46.0284C530.189 45.8418 530.154 45.6434 530.084 45.4334L526.934 36.9284H520.809L517.764 45.2934C517.694 45.4801 517.659 45.6551 517.659 45.8184C517.659 46.1218 517.74 46.3668 517.904 46.5534C518.067 46.7168 518.242 46.7984 518.429 46.7984H518.604V47.1484H514.719V46.7984H514.894C515.197 46.7984 515.489 46.6234 515.769 46.2734C516.072 45.9001 516.317 45.4684 516.504 44.9784L524.519 23.6284L532.359 44.7684C532.522 45.2351 532.744 45.6901 533.024 46.1334C533.327 46.5768 533.712 46.7984 534.179 46.7984H534.354V47.1484H529.174V46.7984ZM521.159 35.7384H526.549L523.854 28.4234L521.159 35.7384ZM536.693 45.6434C536.693 45.1768 536.845 44.7801 537.148 44.4534C537.475 44.1268 537.871 43.9634 538.338 43.9634C538.805 43.9634 539.201 44.1268 539.528 44.4534C539.855 44.7801 540.018 45.1768 540.018 45.6434C540.018 46.1101 539.855 46.5068 539.528 46.8334C539.201 47.1368 538.805 47.2884 538.338 47.2884C537.871 47.2884 537.475 47.1368 537.148 46.8334C536.845 46.5068 536.693 46.1101 536.693 45.6434ZM2.42461 82.7984H2.59961C2.78628 82.7984 2.94961 82.7401 3.08961 82.6234C3.22961 82.4834 3.34628 82.3201 3.43961 82.1334C3.55628 81.9468 3.63794 81.7484 3.68461 81.5384C3.75461 81.3284 3.78961 81.1301 3.78961 80.9434V62.2184C3.78961 62.0551 3.75461 61.8684 3.68461 61.6584C3.63794 61.4484 3.55628 61.2501 3.43961 61.0634C3.34628 60.8768 3.22961 60.7251 3.08961 60.6084C2.94961 60.4684 2.78628 60.3984 2.59961 60.3984H2.42461V60.0484H15.2346V63.3734H14.8846C14.8846 62.8368 14.6979 62.3701 14.3246 61.9734C13.9513 61.5534 13.3796 61.3434 12.6096 61.3434H6.13461V69.8484H7.74461C8.81794 69.8484 9.87961 69.9534 10.9296 70.1634C12.0029 70.3734 12.9596 70.7351 13.7996 71.2484C14.6629 71.7384 15.3513 72.4151 15.8646 73.2784C16.4013 74.1418 16.6696 75.2268 16.6696 76.5334C16.6696 77.5601 16.4713 78.4818 16.0746 79.2984C15.7013 80.1151 15.1646 80.8151 14.4646 81.3984C13.7646 81.9584 12.9246 82.3901 11.9446 82.6934C10.9879 82.9968 9.93794 83.1484 8.79461 83.1484H2.42461V82.7984ZM7.49961 81.9234C8.66628 81.9234 9.66961 81.7951 10.5096 81.5384C11.3729 81.2818 12.0846 80.9318 12.6446 80.4884C13.2046 80.0218 13.6129 79.4851 13.8696 78.8784C14.1496 78.2484 14.2896 77.5718 14.2896 76.8484C14.2896 75.1451 13.6829 73.7568 12.4696 72.6834C11.2563 71.5868 9.52961 71.0384 7.28961 71.0384H6.13461V81.9234H7.49961ZM19.8904 82.7984H20.0654C20.2521 82.7984 20.4154 82.7401 20.5554 82.6234C20.6954 82.4834 20.8121 82.3201 20.9054 82.1334C21.0221 81.9468 21.1038 81.7484 21.1504 81.5384C21.2204 81.3284 21.2554 81.1301 21.2554 80.9434V62.2184C21.2554 62.0551 21.2204 61.8684 21.1504 61.6584C21.1038 61.4484 21.0221 61.2501 20.9054 61.0634C20.8121 60.8768 20.6954 60.7251 20.5554 60.6084C20.4154 60.4684 20.2521 60.3984 20.0654 60.3984H19.8904V60.0484H33.3654V63.3034H33.0154C32.9688 62.7668 32.7588 62.3001 32.3854 61.9034C32.0121 61.4834 31.4288 61.2734 30.6354 61.2734H23.6004V70.1284H29.4104C29.9471 70.1284 30.3904 69.9651 30.7404 69.6384C31.1138 69.3118 31.3004 68.9268 31.3004 68.4834H31.6504V72.8584H31.3004C31.3004 72.4384 31.1254 72.0768 30.7754 71.7734C30.4254 71.4701 29.9704 71.3184 29.4104 71.3184H23.6004V81.9234H31.2654C31.7088 81.9234 32.0938 81.8184 32.4204 81.6084C32.7471 81.3984 33.0154 81.1534 33.2254 80.8734C33.4588 80.5701 33.6221 80.2551 33.7154 79.9284C33.8321 79.5784 33.8904 79.2868 33.8904 79.0534H34.2404V83.1484H19.8904V82.7984ZM48.0356 60.9584C46.309 60.9584 44.804 61.2734 43.5206 61.9034C42.2606 62.5101 41.2106 63.3151 40.3706 64.3184C39.5306 65.2984 38.9006 66.4068 38.4806 67.6434C38.084 68.8801 37.8856 70.1051 37.8856 71.3184C37.8856 72.6951 38.154 74.0484 38.6906 75.3784C39.2273 76.6851 39.9623 77.8518 40.8956 78.8784C41.8523 79.8818 42.9606 80.6984 44.2206 81.3284C45.4806 81.9351 46.8456 82.2384 48.3156 82.2384C48.7356 82.2384 49.2256 82.1918 49.7856 82.0984C50.369 82.0051 50.9406 81.8301 51.5006 81.5734C52.0606 81.2934 52.574 80.9084 53.0406 80.4184C53.5306 79.9284 53.904 79.2868 54.1606 78.4934H54.5106V82.3784C54.1606 82.3784 53.7873 82.4251 53.3906 82.5184C53.0173 82.6118 52.5973 82.7168 52.1306 82.8334C51.524 82.9968 50.8473 83.1484 50.1006 83.2884C49.3773 83.4284 48.6073 83.4984 47.7906 83.4984C45.7606 83.4984 43.9756 83.1484 42.4356 82.4484C40.8956 81.7484 39.6123 80.8384 38.5856 79.7184C37.559 78.5984 36.789 77.3384 36.2756 75.9384C35.7623 74.5151 35.5056 73.0801 35.5056 71.6334C35.5056 70.1868 35.7623 68.7518 36.2756 67.3284C36.789 65.9051 37.5706 64.6334 38.6206 63.5134C39.6706 62.3701 40.989 61.4484 42.5756 60.7484C44.1623 60.0484 46.029 59.6984 48.1756 59.6984C48.9456 59.6984 49.634 59.7684 50.2406 59.9084C50.8706 60.0484 51.4306 60.1884 51.9206 60.3284C52.2706 60.4451 52.5856 60.5384 52.8656 60.6084C53.169 60.6551 53.4606 60.6784 53.7406 60.6784V64.5634H53.3906C53.2506 63.8401 52.994 63.2451 52.6206 62.7784C52.2473 62.2884 51.804 61.9151 51.2906 61.6584C50.8006 61.4018 50.264 61.2268 49.6806 61.1334C49.1206 61.0168 48.5723 60.9584 48.0356 60.9584ZM57.5223 82.7984H57.6973C57.8839 82.7984 58.0473 82.7284 58.1873 82.5884C58.3273 82.4484 58.4439 82.2851 58.5373 82.0984C58.6539 81.9118 58.7356 81.7134 58.7823 81.5034C58.8289 81.2701 58.8523 81.0601 58.8523 80.8734V62.2184C58.8523 62.0551 58.8289 61.8684 58.7823 61.6584C58.7356 61.4484 58.6539 61.2501 58.5373 61.0634C58.4439 60.8768 58.3273 60.7251 58.1873 60.6084C58.0473 60.4684 57.8956 60.3984 57.7323 60.3984H57.5573V60.0484H62.5273V60.3984H62.3523C62.1656 60.3984 62.0023 60.4684 61.8623 60.6084C61.7223 60.7251 61.5939 60.8768 61.4773 61.0634C61.3839 61.2501 61.3023 61.4484 61.2323 61.6584C61.1856 61.8684 61.1623 62.0551 61.1623 62.2184V69.4634L69.2823 61.3784C69.4689 61.1918 69.5623 60.9701 69.5623 60.7134C69.5623 60.5034 69.4689 60.3984 69.2823 60.3984V60.0484H73.0623V60.3984C72.5956 60.4218 72.1756 60.5618 71.8023 60.8184C71.4523 61.0751 71.0673 61.4134 70.6473 61.8334L62.3523 70.1284C63.8689 70.1751 65.0939 70.5018 66.0273 71.1084C66.9606 71.7151 67.6956 72.5551 68.2323 73.6284L70.9973 79.2284C71.1606 79.5784 71.3706 79.9634 71.6273 80.3834C71.9073 80.7801 72.2106 81.1651 72.5373 81.5384C72.8873 81.8884 73.2723 82.1918 73.6923 82.4484C74.1123 82.6818 74.5556 82.7984 75.0223 82.7984V83.1484H73.2723C72.5956 83.1484 72.0123 83.0551 71.5223 82.8684C71.0323 82.6584 70.6006 82.3901 70.2273 82.0634C69.8773 81.7134 69.5623 81.3284 69.2823 80.9084C69.0256 80.4884 68.7923 80.0684 68.5823 79.6484L65.7473 74.0134C65.3039 73.1501 64.6856 72.4968 63.8923 72.0534C63.1223 71.5868 62.2123 71.3301 61.1623 71.2834V80.8734C61.1623 81.0601 61.1856 81.2584 61.2323 81.4684C61.2789 81.6784 61.3489 81.8884 61.4423 82.0984C61.5356 82.2851 61.6523 82.4484 61.7923 82.5884C61.9323 82.7051 62.0839 82.7751 62.2473 82.7984H62.4923V83.1484H57.5223V82.7984ZM86.4071 59.6984C88.2271 59.6984 89.8604 60.0251 91.3071 60.6784C92.7538 61.3084 93.9788 62.1718 94.9821 63.2684C96.0088 64.3418 96.7904 65.6018 97.3271 67.0484C97.8871 68.4718 98.1671 69.9651 98.1671 71.5284C98.1671 73.2784 97.8404 74.8884 97.1871 76.3584C96.5571 77.8284 95.6821 79.0884 94.5621 80.1384C93.4421 81.1884 92.1354 82.0168 90.6421 82.6234C89.1721 83.2068 87.5971 83.4984 85.9171 83.4984C84.1204 83.4984 82.4988 83.1718 81.0521 82.5184C79.6288 81.8651 78.4154 81.0018 77.4121 79.9284C76.4321 78.8551 75.6738 77.6184 75.1371 76.2184C74.6004 74.8184 74.3321 73.3601 74.3321 71.8434C74.3321 70.3501 74.6004 68.8801 75.1371 67.4334C75.6738 65.9634 76.4554 64.6568 77.4821 63.5134C78.5321 62.3701 79.8038 61.4484 81.2971 60.7484C82.7904 60.0484 84.4938 59.6984 86.4071 59.6984ZM86.3721 82.2734C87.9354 82.2034 89.3004 81.8534 90.4671 81.2234C91.6571 80.5701 92.6488 79.7534 93.4421 78.7734C94.2354 77.7701 94.8188 76.6734 95.1921 75.4834C95.5888 74.2934 95.7871 73.1151 95.7871 71.9484C95.7871 70.6651 95.5538 69.3701 95.0871 68.0634C94.6204 66.7568 93.9554 65.5784 93.0921 64.5284C92.2288 63.4551 91.1904 62.5918 89.9771 61.9384C88.7871 61.2618 87.4454 60.9234 85.9521 60.9234C84.5054 60.9234 83.2104 61.2501 82.0671 61.9034C80.9238 62.5334 79.9438 63.3501 79.1271 64.3534C78.3338 65.3568 77.7271 66.4768 77.3071 67.7134C76.8871 68.9501 76.6771 70.1634 76.6771 71.3534C76.6771 72.6368 76.9221 73.9318 77.4121 75.2384C77.9021 76.5218 78.5788 77.6884 79.4421 78.7384C80.3054 79.7884 81.3204 80.6401 82.4871 81.2934C83.6771 81.9468 84.9721 82.2734 86.3721 82.2734ZM115.203 82.7984H115.378C115.541 82.7984 115.693 82.7401 115.833 82.6234C115.973 82.4834 116.09 82.3201 116.183 82.1334C116.3 81.9234 116.381 81.7134 116.428 81.5034C116.475 81.2701 116.498 81.0601 116.498 80.8734V71.3534H105.298V80.8734C105.298 81.0601 105.321 81.2701 105.368 81.5034C105.415 81.7134 105.485 81.9118 105.578 82.0984C105.671 82.2851 105.776 82.4484 105.893 82.5884C106.033 82.7284 106.196 82.7984 106.383 82.7984H106.558V83.1484H101.658V82.7984H101.833C101.996 82.7984 102.148 82.7401 102.288 82.6234C102.428 82.4834 102.545 82.3201 102.638 82.1334C102.755 81.9234 102.836 81.7134 102.883 81.5034C102.93 81.2701 102.953 81.0601 102.953 80.8734V62.2184C102.953 62.0551 102.93 61.8684 102.883 61.6584C102.836 61.4484 102.766 61.2501 102.673 61.0634C102.58 60.8768 102.463 60.7251 102.323 60.6084C102.183 60.4684 102.02 60.3984 101.833 60.3984H101.658V60.0484H106.558V60.3984H106.383C106.196 60.3984 106.033 60.4684 105.893 60.6084C105.753 60.7251 105.636 60.8768 105.543 61.0634C105.473 61.2501 105.415 61.4484 105.368 61.6584C105.321 61.8684 105.298 62.0551 105.298 62.2184V70.1284H116.498V62.2184C116.498 62.0551 116.475 61.8684 116.428 61.6584C116.381 61.4484 116.311 61.2501 116.218 61.0634C116.125 60.8768 116.008 60.7251 115.868 60.6084C115.728 60.4684 115.565 60.3984 115.378 60.3984H115.203V60.0484H120.103V60.3984H119.928C119.741 60.3984 119.578 60.4684 119.438 60.6084C119.298 60.7251 119.181 60.8768 119.088 61.0634C119.018 61.2501 118.96 61.4484 118.913 61.6584C118.866 61.8684 118.843 62.0551 118.843 62.2184V80.8734C118.843 81.0601 118.866 81.2701 118.913 81.5034C118.983 81.7134 119.065 81.9118 119.158 82.0984C119.251 82.2851 119.356 82.4484 119.473 82.5884C119.613 82.7284 119.765 82.7984 119.928 82.7984H120.103V83.1484H115.203V82.7984ZM131.866 82.7984H132.041V83.1484H127.071V82.7984H127.246C127.432 82.7984 127.596 82.7284 127.736 82.5884C127.876 82.4484 127.992 82.2851 128.086 82.0984C128.202 81.9118 128.284 81.7134 128.331 81.5034C128.377 81.2701 128.401 81.0601 128.401 80.8734V61.3434H124.341C123.967 61.3434 123.641 61.4251 123.361 61.5884C123.081 61.7518 122.847 61.9618 122.661 62.2184C122.474 62.4518 122.334 62.7201 122.241 63.0234C122.147 63.3034 122.101 63.5834 122.101 63.8634H121.751V60.0484H137.466V63.8634H137.116C137.116 63.5834 137.069 63.3034 136.976 63.0234C136.882 62.7201 136.742 62.4518 136.556 62.2184C136.369 61.9618 136.136 61.7518 135.856 61.5884C135.576 61.4251 135.249 61.3434 134.876 61.3434H130.746V80.8734C130.746 81.0601 130.769 81.2701 130.816 81.5034C130.862 81.7134 130.932 81.9118 131.026 82.0984C131.142 82.2851 131.259 82.4484 131.376 82.5884C131.516 82.7284 131.679 82.7984 131.866 82.7984ZM149.506 82.7984H149.681C150.241 82.7984 150.521 82.5418 150.521 82.0284C150.521 81.8418 150.486 81.6434 150.416 81.4334L147.266 72.9284H141.141L138.096 81.2934C138.026 81.4801 137.991 81.6551 137.991 81.8184C137.991 82.1218 138.072 82.3668 138.236 82.5534C138.399 82.7168 138.574 82.7984 138.761 82.7984H138.936V83.1484H135.051V82.7984H135.226C135.529 82.7984 135.821 82.6234 136.101 82.2734C136.404 81.9001 136.649 81.4684 136.836 80.9784L144.851 59.6284L152.691 80.7684C152.854 81.2351 153.076 81.6901 153.356 82.1334C153.659 82.5768 154.044 82.7984 154.511 82.7984H154.686V83.1484H149.506V82.7984ZM141.491 71.7384H146.881L144.186 64.4234L141.491 71.7384ZM156.78 82.7984H156.955C157.142 82.7984 157.305 82.7284 157.445 82.5884C157.585 82.4484 157.702 82.2851 157.795 82.0984C157.912 81.9118 157.993 81.7134 158.04 81.5034C158.087 81.2701 158.11 81.0601 158.11 80.8734V62.2184C158.11 62.0551 158.087 61.8684 158.04 61.6584C157.993 61.4484 157.912 61.2501 157.795 61.0634C157.702 60.8768 157.585 60.7251 157.445 60.6084C157.305 60.4684 157.153 60.3984 156.99 60.3984H156.815V60.0484H161.785V60.3984H161.61C161.423 60.3984 161.26 60.4684 161.12 60.6084C160.98 60.7251 160.852 60.8768 160.735 61.0634C160.642 61.2501 160.56 61.4484 160.49 61.6584C160.443 61.8684 160.42 62.0551 160.42 62.2184V69.4634L168.54 61.3784C168.727 61.1918 168.82 60.9701 168.82 60.7134C168.82 60.5034 168.727 60.3984 168.54 60.3984V60.0484H172.32V60.3984C171.853 60.4218 171.433 60.5618 171.06 60.8184C170.71 61.0751 170.325 61.4134 169.905 61.8334L161.61 70.1284C163.127 70.1751 164.352 70.5018 165.285 71.1084C166.218 71.7151 166.953 72.5551 167.49 73.6284L170.255 79.2284C170.418 79.5784 170.628 79.9634 170.885 80.3834C171.165 80.7801 171.468 81.1651 171.795 81.5384C172.145 81.8884 172.53 82.1918 172.95 82.4484C173.37 82.6818 173.813 82.7984 174.28 82.7984V83.1484H172.53C171.853 83.1484 171.27 83.0551 170.78 82.8684C170.29 82.6584 169.858 82.3901 169.485 82.0634C169.135 81.7134 168.82 81.3284 168.54 80.9084C168.283 80.4884 168.05 80.0684 167.84 79.6484L165.005 74.0134C164.562 73.1501 163.943 72.4968 163.15 72.0534C162.38 71.5868 161.47 71.3301 160.42 71.2834V80.8734C160.42 81.0601 160.443 81.2584 160.49 81.4684C160.537 81.6784 160.607 81.8884 160.7 82.0984C160.793 82.2851 160.91 82.4484 161.05 82.5884C161.19 82.7051 161.342 82.7751 161.505 82.7984H161.75V83.1484H156.78V82.7984ZM185.22 82.7984H185.395V83.1484H180.425V82.7984H180.6C180.787 82.7984 180.95 82.7284 181.09 82.5884C181.23 82.4484 181.347 82.2851 181.44 82.0984C181.557 81.9118 181.638 81.7134 181.685 81.5034C181.732 81.2701 181.755 81.0601 181.755 80.8734V61.3434H177.695C177.322 61.3434 176.995 61.4251 176.715 61.5884C176.435 61.7518 176.202 61.9618 176.015 62.2184C175.828 62.4518 175.688 62.7201 175.595 63.0234C175.502 63.3034 175.455 63.5834 175.455 63.8634H175.105V60.0484H190.82V63.8634H190.47C190.47 63.5834 190.423 63.3034 190.33 63.0234C190.237 62.7201 190.097 62.4518 189.91 62.2184C189.723 61.9618 189.49 61.7518 189.21 61.5884C188.93 61.4251 188.603 61.3434 188.23 61.3434H184.1V80.8734C184.1 81.0601 184.123 81.2701 184.17 81.5034C184.217 81.7134 184.287 81.9118 184.38 82.0984C184.497 82.2851 184.613 82.4484 184.73 82.5884C184.87 82.7284 185.033 82.7984 185.22 82.7984ZM206.702 82.7984H206.877C207.04 82.7984 207.192 82.7401 207.332 82.6234C207.472 82.4834 207.589 82.3201 207.682 82.1334C207.799 81.9234 207.88 81.7134 207.927 81.5034C207.974 81.2701 207.997 81.0601 207.997 80.8734V71.3534H196.797V80.8734C196.797 81.0601 196.82 81.2701 196.867 81.5034C196.914 81.7134 196.984 81.9118 197.077 82.0984C197.17 82.2851 197.275 82.4484 197.392 82.5884C197.532 82.7284 197.695 82.7984 197.882 82.7984H198.057V83.1484H193.157V82.7984H193.332C193.495 82.7984 193.647 82.7401 193.787 82.6234C193.927 82.4834 194.044 82.3201 194.137 82.1334C194.254 81.9234 194.335 81.7134 194.382 81.5034C194.429 81.2701 194.452 81.0601 194.452 80.8734V62.2184C194.452 62.0551 194.429 61.8684 194.382 61.6584C194.335 61.4484 194.265 61.2501 194.172 61.0634C194.079 60.8768 193.962 60.7251 193.822 60.6084C193.682 60.4684 193.519 60.3984 193.332 60.3984H193.157V60.0484H198.057V60.3984H197.882C197.695 60.3984 197.532 60.4684 197.392 60.6084C197.252 60.7251 197.135 60.8768 197.042 61.0634C196.972 61.2501 196.914 61.4484 196.867 61.6584C196.82 61.8684 196.797 62.0551 196.797 62.2184V70.1284H207.997V62.2184C207.997 62.0551 207.974 61.8684 207.927 61.6584C207.88 61.4484 207.81 61.2501 207.717 61.0634C207.624 60.8768 207.507 60.7251 207.367 60.6084C207.227 60.4684 207.064 60.3984 206.877 60.3984H206.702V60.0484H211.602V60.3984H211.427C211.24 60.3984 211.077 60.4684 210.937 60.6084C210.797 60.7251 210.68 60.8768 210.587 61.0634C210.517 61.2501 210.459 61.4484 210.412 61.6584C210.365 61.8684 210.342 62.0551 210.342 62.2184V80.8734C210.342 81.0601 210.365 81.2701 210.412 81.5034C210.482 81.7134 210.564 81.9118 210.657 82.0984C210.75 82.2851 210.855 82.4484 210.972 82.5884C211.112 82.7284 211.264 82.7984 211.427 82.7984H211.602V83.1484H206.702V82.7984ZM214.58 82.7984H214.755C214.918 82.7984 215.07 82.7401 215.21 82.6234C215.35 82.4834 215.466 82.3201 215.56 82.1334C215.653 81.9468 215.723 81.7484 215.77 81.5384C215.84 81.3284 215.875 81.1418 215.875 80.9784V62.3234C215.875 62.1601 215.851 61.9618 215.805 61.7284C215.758 61.4951 215.676 61.2851 215.56 61.0984C215.466 60.9118 215.35 60.7484 215.21 60.6084C215.07 60.4684 214.918 60.3984 214.755 60.3984H214.58V60.0484H219.515V60.3984H219.27C218.943 60.4451 218.686 60.7018 218.5 61.1684C218.313 61.6118 218.22 61.9968 218.22 62.3234V69.8484H220.18C221.253 69.8484 222.303 69.9651 223.33 70.1984C224.38 70.4084 225.301 70.7818 226.095 71.3184C226.911 71.8318 227.565 72.5201 228.055 73.3834C228.545 74.2234 228.79 75.2734 228.79 76.5334C228.79 77.5601 228.58 78.4818 228.16 79.2984C227.74 80.1151 227.168 80.8151 226.445 81.3984C225.721 81.9584 224.858 82.3901 223.855 82.6934C222.875 82.9968 221.813 83.1484 220.67 83.1484H214.58V82.7984ZM218.745 81.9234C221.451 81.9234 223.388 81.4568 224.555 80.5234C225.745 79.5901 226.34 78.3068 226.34 76.6734C226.34 75.0168 225.745 73.6634 224.555 72.6134C223.388 71.5634 221.661 71.0384 219.375 71.0384H218.22V81.9234H218.745ZM231.135 60.0484H236.07V60.3984H235.79C235.626 60.4218 235.475 60.5034 235.335 60.6434C235.218 60.7834 235.113 60.9468 235.02 61.1334C234.95 61.2968 234.891 61.4834 234.845 61.6934C234.798 61.8801 234.775 62.0551 234.775 62.2184V80.8734C234.775 81.0601 234.798 81.2584 234.845 81.4684C234.891 81.6784 234.961 81.8884 235.055 82.0984C235.148 82.2851 235.253 82.4484 235.37 82.5884C235.51 82.7051 235.661 82.7751 235.825 82.7984H236.07V83.1484H231.135V82.7984H231.31C231.496 82.7984 231.66 82.7401 231.8 82.6234C231.94 82.4834 232.056 82.3201 232.15 82.1334C232.243 81.9234 232.313 81.7134 232.36 81.5034C232.406 81.2701 232.43 81.0601 232.43 80.8734V62.2184C232.43 62.0551 232.406 61.8684 232.36 61.6584C232.313 61.4484 232.243 61.2501 232.15 61.0634C232.056 60.8768 231.94 60.7251 231.8 60.6084C231.66 60.4684 231.496 60.3984 231.31 60.3984H231.135V60.0484ZM252.762 55.4634C252.762 55.8601 252.668 56.2684 252.482 56.6884C252.295 57.1084 252.027 57.5051 251.677 57.8784C251.35 58.2518 250.942 58.5551 250.452 58.7884C249.985 59.0218 249.46 59.1384 248.877 59.1384C248.317 59.1384 247.792 59.0334 247.302 58.8234C246.835 58.5901 246.427 58.2984 246.077 57.9484C245.727 57.5984 245.447 57.2018 245.237 56.7584C245.027 56.3151 244.922 55.8834 244.922 55.4634H245.132C245.155 55.6034 245.225 55.8018 245.342 56.0584C245.482 56.3151 245.692 56.5718 245.972 56.8284C246.252 57.0851 246.625 57.3068 247.092 57.4934C247.558 57.6801 248.142 57.7734 248.842 57.7734C249.565 57.7734 250.148 57.6801 250.592 57.4934C251.058 57.3068 251.432 57.0851 251.712 56.8284C251.992 56.5718 252.19 56.3151 252.307 56.0584C252.423 55.8018 252.505 55.6034 252.552 55.4634H252.762ZM253.357 82.7984H253.532C253.718 82.7984 253.882 82.7401 254.022 82.6234C254.162 82.4834 254.278 82.3201 254.372 82.1334C254.488 81.9234 254.57 81.7134 254.617 81.5034C254.663 81.2701 254.687 81.0601 254.687 80.8734V64.8434L243.067 80.5584V80.8734C243.067 81.0601 243.09 81.2701 243.137 81.5034C243.207 81.7134 243.288 81.9118 243.382 82.0984C243.475 82.2851 243.592 82.4484 243.732 82.5884C243.872 82.7284 244.035 82.7984 244.222 82.7984H244.397V83.1484H239.427V82.7984H239.602C239.788 82.7984 239.952 82.7401 240.092 82.6234C240.232 82.4834 240.348 82.3201 240.442 82.1334C240.558 81.9234 240.64 81.7134 240.687 81.5034C240.733 81.2701 240.757 81.0601 240.757 80.8734V62.2184C240.757 62.0551 240.733 61.8684 240.687 61.6584C240.64 61.4484 240.558 61.2501 240.442 61.0634C240.348 60.8768 240.232 60.7251 240.092 60.6084C239.952 60.4684 239.788 60.3984 239.602 60.3984H239.427V60.0484H244.397V60.3984H244.117C243.953 60.4218 243.802 60.5034 243.662 60.6434C243.545 60.7834 243.44 60.9468 243.347 61.1334C243.253 61.2968 243.183 61.4834 243.137 61.6934C243.09 61.8801 243.067 62.0551 243.067 62.2184V78.3884L254.687 62.6734V62.2184C254.687 62.0551 254.663 61.8684 254.617 61.6584C254.57 61.4484 254.488 61.2501 254.372 61.0634C254.278 60.8768 254.162 60.7251 254.022 60.6084C253.882 60.4684 253.718 60.3984 253.532 60.3984H253.357V60.0484H258.327V60.3984H258.152C257.965 60.3984 257.802 60.4684 257.662 60.6084C257.522 60.7251 257.405 60.8768 257.312 61.0634C257.218 61.2501 257.137 61.4484 257.067 61.6584C257.02 61.8684 256.997 62.0551 256.997 62.2184V80.8734C256.997 81.0601 257.02 81.2584 257.067 81.4684C257.137 81.6784 257.218 81.8884 257.312 82.0984C257.405 82.2851 257.522 82.4484 257.662 82.5884C257.802 82.7284 257.965 82.7984 258.152 82.7984H258.327V83.1484H253.357V82.7984ZM289.565 82.7984H289.74C289.903 82.7984 290.055 82.7284 290.195 82.5884C290.335 82.4484 290.452 82.2851 290.545 82.0984C290.662 81.9118 290.743 81.7134 290.79 81.5034C290.837 81.2701 290.86 81.0601 290.86 80.8734V62.4634L281.83 83.5334L273.255 63.5484V80.8734C273.255 81.0601 273.278 81.2701 273.325 81.5034C273.372 81.7134 273.442 81.9118 273.535 82.0984C273.652 82.2851 273.78 82.4484 273.92 82.5884C274.06 82.7284 274.223 82.7984 274.41 82.7984H274.585V83.1484H270.77V82.7984H270.945C271.108 82.7984 271.26 82.7284 271.4 82.5884C271.54 82.4484 271.657 82.2851 271.75 82.0984C271.843 81.9118 271.913 81.7134 271.96 81.5034C272.007 81.2701 272.03 81.0601 272.03 80.8734V62.2184C272.03 62.0551 272.007 61.8684 271.96 61.6584C271.913 61.4484 271.843 61.2501 271.75 61.0634C271.657 60.8768 271.54 60.7251 271.4 60.6084C271.26 60.4684 271.108 60.3984 270.945 60.3984H270.77V60.0484H274.34L282.46 79.1934L290.58 60.0484H294.535V60.3984H294.36C294.173 60.3984 294.01 60.4684 293.87 60.6084C293.73 60.7251 293.602 60.8768 293.485 61.0634C293.392 61.2501 293.322 61.4484 293.275 61.6584C293.228 61.8684 293.205 62.0551 293.205 62.2184V80.8734C293.205 81.0601 293.228 81.2701 293.275 81.5034C293.322 81.7134 293.392 81.9118 293.485 82.0984C293.602 82.2851 293.73 82.4484 293.87 82.5884C294.01 82.7284 294.173 82.7984 294.36 82.7984H294.535V83.1484H289.565V82.7984ZM311.312 82.7984H311.487C312.047 82.7984 312.327 82.5418 312.327 82.0284C312.327 81.8418 312.292 81.6434 312.222 81.4334L309.072 72.9284H302.947L299.902 81.2934C299.832 81.4801 299.797 81.6551 299.797 81.8184C299.797 82.1218 299.879 82.3668 300.042 82.5534C300.206 82.7168 300.381 82.7984 300.567 82.7984H300.742V83.1484H296.857V82.7984H297.032C297.336 82.7984 297.627 82.6234 297.907 82.2734C298.211 81.9001 298.456 81.4684 298.642 80.9784L306.657 59.6284L314.497 80.7684C314.661 81.2351 314.882 81.6901 315.162 82.1334C315.466 82.5768 315.851 82.7984 316.317 82.7984H316.492V83.1484H311.312V82.7984ZM303.297 71.7384H308.687L305.992 64.4234L303.297 71.7384ZM330.907 60.9584C329.18 60.9584 327.675 61.2734 326.392 61.9034C325.132 62.5101 324.082 63.3151 323.242 64.3184C322.402 65.2984 321.772 66.4068 321.352 67.6434C320.955 68.8801 320.757 70.1051 320.757 71.3184C320.757 72.6951 321.025 74.0484 321.562 75.3784C322.098 76.6851 322.833 77.8518 323.767 78.8784C324.723 79.8818 325.832 80.6984 327.092 81.3284C328.352 81.9351 329.717 82.2384 331.187 82.2384C331.607 82.2384 332.097 82.1918 332.657 82.0984C333.24 82.0051 333.812 81.8301 334.372 81.5734C334.932 81.2934 335.445 80.9084 335.912 80.4184C336.402 79.9284 336.775 79.2868 337.032 78.4934H337.382V82.3784C337.032 82.3784 336.658 82.4251 336.262 82.5184C335.888 82.6118 335.468 82.7168 335.002 82.8334C334.395 82.9968 333.718 83.1484 332.972 83.2884C332.248 83.4284 331.478 83.4984 330.662 83.4984C328.632 83.4984 326.847 83.1484 325.307 82.4484C323.767 81.7484 322.483 80.8384 321.457 79.7184C320.43 78.5984 319.66 77.3384 319.147 75.9384C318.633 74.5151 318.377 73.0801 318.377 71.6334C318.377 70.1868 318.633 68.7518 319.147 67.3284C319.66 65.9051 320.442 64.6334 321.492 63.5134C322.542 62.3701 323.86 61.4484 325.447 60.7484C327.033 60.0484 328.9 59.6984 331.047 59.6984C331.817 59.6984 332.505 59.7684 333.112 59.9084C333.742 60.0484 334.302 60.1884 334.792 60.3284C335.142 60.4451 335.457 60.5384 335.737 60.6084C336.04 60.6551 336.332 60.6784 336.612 60.6784V64.5634H336.262C336.122 63.8401 335.865 63.2451 335.492 62.7784C335.118 62.2884 334.675 61.9151 334.162 61.6584C333.672 61.4018 333.135 61.2268 332.552 61.1334C331.992 61.0168 331.443 60.9584 330.907 60.9584ZM351.073 60.9584C349.346 60.9584 347.841 61.2734 346.558 61.9034C345.298 62.5101 344.248 63.3151 343.408 64.3184C342.568 65.2984 341.938 66.4068 341.518 67.6434C341.121 68.8801 340.923 70.1051 340.923 71.3184C340.923 72.6951 341.191 74.0484 341.728 75.3784C342.264 76.6851 342.999 77.8518 343.933 78.8784C344.889 79.8818 345.998 80.6984 347.258 81.3284C348.518 81.9351 349.883 82.2384 351.353 82.2384C351.773 82.2384 352.263 82.1918 352.823 82.0984C353.406 82.0051 353.978 81.8301 354.538 81.5734C355.098 81.2934 355.611 80.9084 356.078 80.4184C356.568 79.9284 356.941 79.2868 357.198 78.4934H357.548V82.3784C357.198 82.3784 356.824 82.4251 356.428 82.5184C356.054 82.6118 355.634 82.7168 355.168 82.8334C354.561 82.9968 353.884 83.1484 353.138 83.2884C352.414 83.4284 351.644 83.4984 350.828 83.4984C348.798 83.4984 347.013 83.1484 345.473 82.4484C343.933 81.7484 342.649 80.8384 341.623 79.7184C340.596 78.5984 339.826 77.3384 339.313 75.9384C338.799 74.5151 338.543 73.0801 338.543 71.6334C338.543 70.1868 338.799 68.7518 339.313 67.3284C339.826 65.9051 340.608 64.6334 341.658 63.5134C342.708 62.3701 344.026 61.4484 345.613 60.7484C347.199 60.0484 349.066 59.6984 351.213 59.6984C351.983 59.6984 352.671 59.7684 353.278 59.9084C353.908 60.0484 354.468 60.1884 354.958 60.3284C355.308 60.4451 355.623 60.5384 355.903 60.6084C356.206 60.6551 356.498 60.6784 356.778 60.6784V64.5634H356.428C356.288 63.8401 356.031 63.2451 355.658 62.7784C355.284 62.2884 354.841 61.9151 354.328 61.6584C353.838 61.4018 353.301 61.2268 352.718 61.1334C352.158 61.0168 351.609 60.9584 351.073 60.9584ZM373.28 82.7984H373.455C374.015 82.7984 374.295 82.5418 374.295 82.0284C374.295 81.8418 374.26 81.6434 374.19 81.4334L371.04 72.9284H364.915L361.87 81.2934C361.8 81.4801 361.765 81.6551 361.765 81.8184C361.765 82.1218 361.847 82.3668 362.01 82.5534C362.173 82.7168 362.348 82.7984 362.535 82.7984H362.71V83.1484H358.825V82.7984H359C359.303 82.7984 359.595 82.6234 359.875 82.2734C360.178 81.9001 360.423 81.4684 360.61 80.9784L368.625 59.6284L376.465 80.7684C376.628 81.2351 376.85 81.6901 377.13 82.1334C377.433 82.5768 377.818 82.7984 378.285 82.7984H378.46V83.1484H373.28V82.7984ZM365.265 71.7384H370.655L367.96 64.4234L365.265 71.7384ZM390.949 82.7984H391.124C391.311 82.7984 391.474 82.7401 391.614 82.6234C391.754 82.4834 391.871 82.3201 391.964 82.1334C392.058 81.9234 392.128 81.7134 392.174 81.5034C392.221 81.2701 392.244 81.0601 392.244 80.8734V71.0384C391.241 71.0384 390.413 71.3301 389.759 71.9134C389.106 72.4734 388.569 73.1734 388.149 74.0134L385.349 79.6484C385.139 80.0918 384.906 80.5234 384.649 80.9434C384.416 81.3634 384.136 81.7368 383.809 82.0634C383.483 82.3901 383.098 82.6584 382.654 82.8684C382.211 83.0551 381.663 83.1484 381.009 83.1484H379.399V82.7984C379.843 82.7984 380.251 82.6701 380.624 82.4134C380.998 82.1334 381.324 81.8068 381.604 81.4334C381.908 81.0368 382.164 80.6401 382.374 80.2434C382.608 79.8468 382.794 79.5084 382.934 79.2284L385.699 73.6284C386.236 72.5084 386.924 71.6451 387.764 71.0384C388.628 70.4318 389.759 70.1284 391.159 70.1284L383.284 61.8334C382.888 61.4134 382.491 61.0751 382.094 60.8184C381.721 60.5618 381.324 60.4218 380.904 60.3984V60.0484H384.719V60.3984C384.463 60.4684 384.334 60.5968 384.334 60.7834C384.334 60.8534 384.381 60.9584 384.474 61.0984L392.244 69.4284V62.2184C392.244 62.0551 392.221 61.8684 392.174 61.6584C392.128 61.4484 392.058 61.2501 391.964 61.0634C391.871 60.8768 391.754 60.7251 391.614 60.6084C391.474 60.4684 391.311 60.3984 391.124 60.3984H390.949V60.0484H395.884V60.3984H395.604C395.278 60.4451 395.021 60.6784 394.834 61.0984C394.648 61.5184 394.554 61.8918 394.554 62.2184V69.4284L402.359 61.0984C402.453 61.0051 402.499 60.9001 402.499 60.7834C402.499 60.5268 402.359 60.3984 402.079 60.3984V60.0484H405.894V60.3984C405.498 60.4451 405.089 60.6084 404.669 60.8884C404.249 61.1451 403.876 61.4601 403.549 61.8334L395.674 70.1284C397.144 70.1284 398.288 70.4318 399.104 71.0384C399.921 71.6451 400.609 72.5084 401.169 73.6284L403.899 79.2284C404.039 79.5084 404.214 79.8468 404.424 80.2434C404.634 80.6401 404.891 81.0368 405.194 81.4334C405.498 81.8068 405.836 82.1334 406.209 82.4134C406.583 82.6701 406.991 82.7984 407.434 82.7984V83.1484H405.789C405.159 83.1484 404.623 83.0551 404.179 82.8684C403.736 82.6584 403.351 82.4018 403.024 82.0984C402.698 81.7718 402.418 81.3984 402.184 80.9784C401.951 80.5584 401.718 80.1151 401.484 79.6484L398.684 74.0134C398.264 73.1968 397.728 72.4968 397.074 71.9134C396.444 71.3301 395.604 71.0384 394.554 71.0384V80.8734C394.554 81.0601 394.578 81.2584 394.624 81.4684C394.671 81.6784 394.741 81.8884 394.834 82.0984C394.928 82.2851 395.033 82.4484 395.149 82.5884C395.289 82.7284 395.453 82.7984 395.639 82.7984H395.884V83.1484H390.949V82.7984Z" fill="#285365"/>
<mask id="path-2-outside-1_6_771" maskUnits="userSpaceOnUse" x="-0.150391" y="0.031189" width="96" height="53" fill="black">
<rect fill="white" x="-0.150391" y="0.031189" width="96" height="53"/>
<path d="M75.3306 14.8295L75.1802 14.9799C73.5008 16.3334 72.0972 17.3736 70.9692 18.1005C69.7411 18.9026 68.4627 19.5543 67.1343 20.0556C65.8058 20.5569 64.4272 20.9203 62.9985 21.1459C64.9536 21.7726 65.9312 23.1261 65.9312 25.2065C65.9312 25.6827 65.856 26.2216 65.7056 26.8232C68.6382 25.7454 70.9818 24.2039 72.7363 22.1987C74.516 20.1433 75.4058 17.9877 75.4058 15.7319C75.4058 15.4812 75.3807 15.1804 75.3306 14.8295ZM22.4307 20.7324L22.2051 20.8828H22.4307C23.709 20.983 25.3132 21.1961 27.2432 21.5219C28.8724 21.8478 30.9904 22.2989 33.5972 22.8754C36.1789 23.5021 38.7982 24.1788 41.4551 24.9057L41.9814 25.0561L42.5078 25.2065L42.6582 25.0561C44.5882 23.0008 46.1548 20.8577 47.3579 18.6269C48.4858 16.4713 49.0498 14.5287 49.0498 12.7993C49.0498 11.5961 48.6362 10.6437 47.8091 9.94183C47.007 9.24001 45.8665 8.8891 44.3877 8.8891C42.3073 8.8891 40.0389 9.3904 37.5825 10.393C35.1763 11.3455 32.3815 12.8995 29.1982 15.0551L28.9727 15.2055C29.9753 16.9601 31.7925 17.8373 34.4243 17.8373C36.229 17.8373 38.0337 17.4363 39.8384 16.6342C41.5679 15.8572 43.0467 14.7418 44.2749 13.288L44.9141 13.5888C43.6859 15.1178 42.1318 16.3334 40.252 17.2358C38.3721 18.1381 36.4295 18.5893 34.4243 18.5893C31.4666 18.5893 29.474 17.6118 28.4463 15.6567C26.0902 17.311 24.085 19.0029 22.4307 20.7324ZM10.5498 37.6889L10.4746 37.9145C11.8031 38.115 13.0939 38.2153 14.3472 38.2153C17.5054 38.2153 20.7513 37.6889 24.085 36.6362C27.4186 35.5834 30.7397 34.0294 34.0483 31.9741C35.853 30.8712 37.3945 29.8059 38.6729 28.7783C40.0264 27.6754 41.1042 26.6979 41.9062 25.8456L41.1543 25.6577C37.5199 24.6049 34.512 23.8154 32.1309 23.289C28.321 22.4368 24.8745 21.8979 21.7915 21.6723L21.5659 21.5971L20.5884 22.6874L19.6484 23.665C17.3424 26.1715 15.4751 28.5276 14.0464 30.7333C12.5926 32.9391 11.4271 35.2576 10.5498 37.6889ZM48.749 29.3046L49.9897 27.7631L49.7642 27.6879C49.6639 27.6629 49.501 27.6253 49.2754 27.5751C49.0749 27.525 48.8368 27.4749 48.561 27.4247C48.2853 27.3495 48.0597 27.2994 47.8843 27.2744C47.7339 27.2242 47.5083 27.1741 47.2075 27.124C46.7062 27.0237 46.3678 26.961 46.1924 26.936C46.042 26.8858 45.8665 26.8482 45.666 26.8232C45.4906 26.7731 45.3903 26.748 45.3652 26.748L43.2222 26.2216C43.1971 26.2216 43.147 26.2091 43.0718 26.184C43.0216 26.1339 42.9214 26.0963 42.771 26.0712C40.2144 28.7031 37.3695 30.9589 34.2363 32.8388C31.0531 34.7438 27.6818 36.2477 24.1226 37.3505C20.5382 38.4534 17.2046 39.0048 14.1216 39.0048C12.7931 39.0048 11.5023 38.9046 10.249 38.704C9.64746 40.4335 9.34668 42.2257 9.34668 44.0805C9.34668 46.562 10.061 48.492 11.4897 49.8705C12.8934 51.2491 14.8485 51.9384 17.355 51.9384C19.3602 51.9384 21.6912 51.4496 24.3481 50.4721C27.0301 49.4946 29.5241 48.2413 31.8301 46.7123C33.334 45.6095 34.7878 44.4565 36.1914 43.2534C37.5951 42.0502 38.9862 40.7092 40.3647 39.2304C41.6681 37.8017 43.0091 36.3103 44.3877 34.7563C45.3652 33.6534 46.443 32.3751 47.6211 30.9213L48.749 29.3046ZM66.9463 7.94916H67.0967L67.2471 7.79877C69.7786 5.6181 71.6209 4.21446 72.7739 3.58783L72.4731 3.66302C70.2173 4.1142 68.1118 4.33978 66.1567 4.33978C63.7505 4.33978 61.3944 4.13926 59.0884 3.73822L55.5542 3.09906C52.7218 2.54763 50.2529 2.27191 48.1475 2.27191C44.9141 2.27191 41.7684 2.79828 38.7104 3.85101C35.6776 4.90375 33.2337 6.29486 31.3789 8.02435C29.5241 9.80398 28.5967 11.6087 28.5967 13.4384C28.5967 13.8645 28.6468 14.1904 28.7471 14.416L28.8975 14.2656C31.805 12.3606 34.6499 10.8442 37.4321 9.71625C40.1141 8.63845 42.4577 8.09955 44.4629 8.09955C46.0921 8.09955 47.408 8.52566 48.4106 9.37787C49.4132 10.2301 49.9146 11.3455 49.9146 12.7241C49.9146 14.4786 49.3631 16.4337 48.2603 18.5893C47.1323 20.77 45.5282 22.9757 43.4478 25.2065L43.2974 25.3569C43.3726 25.3569 43.4352 25.3694 43.4854 25.3945C43.5605 25.3945 43.6107 25.407 43.6357 25.4321C43.7109 25.4321 43.7736 25.4446 43.8237 25.4697C43.8989 25.4697 43.9491 25.4822 43.9741 25.5073C44.1245 25.5574 44.2122 25.5825 44.2373 25.5825C44.2874 25.5825 44.325 25.595 44.3501 25.6201C44.4002 25.6201 44.4378 25.6326 44.4629 25.6577L45.5908 25.996C45.6911 26.0211 46.9569 26.2968 49.3882 26.8232C49.5386 26.8482 49.7391 26.8858 49.9897 26.936C50.09 26.961 50.2655 26.9986 50.5161 27.0488L51.2305 26.2216L51.832 25.3569C51.9574 25.2315 52.3835 24.7052 53.1104 23.7778C53.6367 23.0509 54.3385 22.1611 55.2158 21.1083C55.4915 20.7574 55.8424 20.2937 56.2686 19.7172C56.7197 19.1407 57.0456 18.7272 57.2461 18.4765C57.8226 17.7496 58.1234 17.3736 58.1484 17.3486C61.0059 13.8896 63.6753 11.0447 66.1567 8.8139L66.3071 8.66351C64.0513 8.73871 61.8455 9.40293 59.6899 10.6562C57.5343 11.9094 55.7171 13.5763 54.2383 15.6567L53.6743 15.3559C54.4263 14.0525 55.5667 12.7993 57.0957 11.5961C58.5996 10.4431 60.1912 9.55332 61.8706 8.9267C63.6252 8.275 65.3171 7.94916 66.9463 7.94916ZM52.5464 27.4623C54.5516 27.8634 56.444 28.0639 58.2236 28.0639C59.9281 28.0639 61.7829 27.8258 63.7881 27.3495L64.0137 27.2744C64.515 26.4221 64.7656 25.5825 64.7656 24.7553C64.7656 22.4995 63.2241 21.3715 60.1411 21.3715C59.5145 21.3715 58.8503 21.3966 58.1484 21.4467L58.5996 20.582H59.4644C61.1938 20.582 62.6351 20.4692 63.7881 20.2436C64.916 20.0681 66.069 19.6922 67.2471 19.1157C68.4251 18.5642 69.5531 17.8749 70.6309 17.0478C71.6335 16.3209 73.0747 15.0927 74.9546 13.3632C74.5034 12.0097 73.6512 10.9194 72.3979 10.0922C71.1447 9.29014 69.5531 8.8139 67.623 8.66351L67.4727 8.8139C66.6455 9.64105 65.4173 11.0572 63.7881 13.0624C63.6878 13.2128 63.4497 13.5011 63.0737 13.9272C62.7228 14.3282 61.7954 15.4436 60.2915 17.2734C59.8905 17.7997 59.3766 18.464 58.75 19.2661C58.1986 19.9679 57.8226 20.4566 57.6221 20.7324L53.1479 26.5976L52.6216 27.2744C52.6216 27.2493 52.5965 27.312 52.5464 27.4623ZM19.498 21.6723L19.6484 21.5219H19.0469C15.613 21.5219 12.5926 21.8979 9.98584 22.6498C7.32894 23.4519 5.29867 24.5297 3.89502 25.8832C2.44124 27.2618 1.71436 28.866 1.71436 30.6957C1.71436 32.1996 2.31592 33.5532 3.51904 34.7563C4.72217 35.9594 6.3514 36.8618 8.40674 37.4633L8.70752 37.5385L8.93311 37.6137V37.3881C9.78532 34.5558 11.0636 31.8738 12.7681 29.3422C14.4976 26.7856 16.7409 24.2289 19.498 21.6723ZM8.70752 38.3657C8.65739 38.3155 8.58219 38.2905 8.48193 38.2905L8.18115 38.2153C5.95036 37.5886 4.1582 36.5986 2.80469 35.2451C1.5013 33.9417 0.849609 32.4252 0.849609 30.6957C0.849609 28.8159 1.6141 27.1114 3.14307 25.5825C4.64697 24.0786 6.79004 22.888 9.57227 22.0107C12.2793 21.1585 15.4124 20.7324 18.9717 20.7324C19.3477 20.7324 19.7863 20.7574 20.2876 20.8076H20.5132L20.6636 20.6572C22.3179 19.2285 23.6714 18.1005 24.7241 17.2734C26.228 16.1454 27.1554 15.4562 27.5063 15.2055L28.1079 14.8295C27.9575 14.3282 27.8823 13.8896 27.8823 13.5136C27.8823 12.3606 28.2082 11.1951 28.8599 10.017C29.5116 8.86403 30.4264 7.8113 31.6045 6.85883C32.7324 5.90635 34.2363 4.99148 36.1162 4.1142C37.6201 3.41237 39.0739 2.86094 40.4775 2.4599C41.9062 2.03379 43.4227 1.68288 45.0269 1.40717C46.5057 1.15651 48.0597 1.03119 49.689 1.03119C51.4686 1.03119 53.3861 1.18158 55.4414 1.48236C55.5667 1.48236 56.256 1.62022 57.5093 1.89594C58.7625 2.17165 59.8779 2.4223 60.8555 2.64789C62.5098 2.97373 63.8633 3.19932 64.916 3.32465C66.0439 3.44997 66.9964 3.51263 67.7734 3.51263C69.3024 3.51263 70.7812 3.32465 72.21 2.94867C73.5384 2.64789 75.293 2.03379 77.4736 1.10638L77.624 1.55756C77.3734 1.78314 76.8846 2.04633 76.1577 2.34711C74.9546 2.89854 73.5885 3.72569 72.0596 4.82855C70.5055 5.95648 69.2272 7.02175 68.2246 8.02435C69.9792 8.17474 71.5081 8.67605 72.8115 9.52826C74.0648 10.3805 74.9797 11.4959 75.5562 12.8745L76.4961 12.0473L77.3984 11.1826C79.8047 8.95176 81.5718 7.37266 82.6997 6.44525C83.8276 5.49278 85.0684 4.59043 86.4219 3.73822C88.8031 2.18418 90.8835 1.40717 92.6631 1.40717C93.4902 1.40717 94.167 1.59515 94.6934 1.97113C95.2197 2.37217 95.4829 2.93614 95.4829 3.66302C95.4829 4.5403 95.1571 5.37998 94.5054 6.18207L93.8662 5.80609C94.4427 5.02907 94.731 4.31472 94.731 3.66302C94.731 3.16172 94.543 2.78575 94.167 2.5351C93.766 2.25938 93.2646 2.12152 92.6631 2.12152C90.0312 2.12152 86.5096 4.25205 82.0981 8.51312L78.188 12.3481C77.9624 12.5235 77.7368 12.7115 77.5112 12.912C77.2856 13.0875 77.0726 13.263 76.8721 13.4384C76.471 13.7643 76.2078 13.9898 76.0825 14.1152L75.9321 14.2656C76.0324 14.6415 76.0825 15.1804 76.0825 15.8823C76.0825 18.3136 75.105 20.6446 73.1499 22.8754C71.1698 25.0812 68.5881 26.7104 65.4048 27.7631C64.728 29.3422 62.8983 31.8487 59.9155 35.2827L56.5317 39.2304C54.8524 41.1103 53.6242 42.8022 52.8472 44.3061C52.5965 44.7071 52.4712 45.0956 52.4712 45.4716C52.4712 46.1734 52.7469 46.5244 53.2983 46.5244C54.2257 46.5244 55.6795 45.622 57.6597 43.8173C59.5145 42.163 61.7578 39.7317 64.3896 36.5234L64.9912 35.7714L65.5552 36.2226C65.48 36.2978 65.4173 36.3605 65.3672 36.4106C65.3421 36.4607 65.292 36.5234 65.2168 36.5986C65.1667 36.6487 65.1165 36.6988 65.0664 36.749C65.0163 36.7991 64.9661 36.8492 64.916 36.8994L63.2993 38.9296C60.9683 41.787 58.8628 43.9426 56.9829 45.3964C55.5291 46.6747 54.3009 47.3139 53.2983 47.3139C52.02 47.3139 51.3809 46.5745 51.3809 45.0956C51.3809 44.0178 51.9323 42.6267 53.0352 40.9223C54.113 39.2429 55.9427 36.962 58.5244 34.0795C61.2064 30.9715 62.798 29.0665 63.2993 28.3647L63.3745 28.2143C61.6951 28.6153 59.9782 28.8159 58.2236 28.8159C56.6696 28.8159 54.5892 28.5903 51.9824 28.1391L51.832 28.2895C50.3281 30.2446 48.8618 32.0493 47.4331 33.7036C46.0044 35.3328 44.513 36.9244 42.959 38.4785C39.9261 41.5113 36.9058 44.093 33.8979 46.2236C30.9653 48.304 28.0703 49.9081 25.2129 51.0361C22.4056 52.1389 19.7863 52.6904 17.355 52.6904C14.4976 52.6904 12.2542 51.8006 10.625 50.0209C8.99577 48.2413 8.18115 45.8225 8.18115 42.7646C8.18115 41.3108 8.35661 39.8445 8.70752 38.3657Z"/>
</mask>
<path d="M75.3306 14.8295L75.1802 14.9799C73.5008 16.3334 72.0972 17.3736 70.9692 18.1005C69.7411 18.9026 68.4627 19.5543 67.1343 20.0556C65.8058 20.5569 64.4272 20.9203 62.9985 21.1459C64.9536 21.7726 65.9312 23.1261 65.9312 25.2065C65.9312 25.6827 65.856 26.2216 65.7056 26.8232C68.6382 25.7454 70.9818 24.2039 72.7363 22.1987C74.516 20.1433 75.4058 17.9877 75.4058 15.7319C75.4058 15.4812 75.3807 15.1804 75.3306 14.8295ZM22.4307 20.7324L22.2051 20.8828H22.4307C23.709 20.983 25.3132 21.1961 27.2432 21.5219C28.8724 21.8478 30.9904 22.2989 33.5972 22.8754C36.1789 23.5021 38.7982 24.1788 41.4551 24.9057L41.9814 25.0561L42.5078 25.2065L42.6582 25.0561C44.5882 23.0008 46.1548 20.8577 47.3579 18.6269C48.4858 16.4713 49.0498 14.5287 49.0498 12.7993C49.0498 11.5961 48.6362 10.6437 47.8091 9.94183C47.007 9.24001 45.8665 8.8891 44.3877 8.8891C42.3073 8.8891 40.0389 9.3904 37.5825 10.393C35.1763 11.3455 32.3815 12.8995 29.1982 15.0551L28.9727 15.2055C29.9753 16.9601 31.7925 17.8373 34.4243 17.8373C36.229 17.8373 38.0337 17.4363 39.8384 16.6342C41.5679 15.8572 43.0467 14.7418 44.2749 13.288L44.9141 13.5888C43.6859 15.1178 42.1318 16.3334 40.252 17.2358C38.3721 18.1381 36.4295 18.5893 34.4243 18.5893C31.4666 18.5893 29.474 17.6118 28.4463 15.6567C26.0902 17.311 24.085 19.0029 22.4307 20.7324ZM10.5498 37.6889L10.4746 37.9145C11.8031 38.115 13.0939 38.2153 14.3472 38.2153C17.5054 38.2153 20.7513 37.6889 24.085 36.6362C27.4186 35.5834 30.7397 34.0294 34.0483 31.9741C35.853 30.8712 37.3945 29.8059 38.6729 28.7783C40.0264 27.6754 41.1042 26.6979 41.9062 25.8456L41.1543 25.6577C37.5199 24.6049 34.512 23.8154 32.1309 23.289C28.321 22.4368 24.8745 21.8979 21.7915 21.6723L21.5659 21.5971L20.5884 22.6874L19.6484 23.665C17.3424 26.1715 15.4751 28.5276 14.0464 30.7333C12.5926 32.9391 11.4271 35.2576 10.5498 37.6889ZM48.749 29.3046L49.9897 27.7631L49.7642 27.6879C49.6639 27.6629 49.501 27.6253 49.2754 27.5751C49.0749 27.525 48.8368 27.4749 48.561 27.4247C48.2853 27.3495 48.0597 27.2994 47.8843 27.2744C47.7339 27.2242 47.5083 27.1741 47.2075 27.124C46.7062 27.0237 46.3678 26.961 46.1924 26.936C46.042 26.8858 45.8665 26.8482 45.666 26.8232C45.4906 26.7731 45.3903 26.748 45.3652 26.748L43.2222 26.2216C43.1971 26.2216 43.147 26.2091 43.0718 26.184C43.0216 26.1339 42.9214 26.0963 42.771 26.0712C40.2144 28.7031 37.3695 30.9589 34.2363 32.8388C31.0531 34.7438 27.6818 36.2477 24.1226 37.3505C20.5382 38.4534 17.2046 39.0048 14.1216 39.0048C12.7931 39.0048 11.5023 38.9046 10.249 38.704C9.64746 40.4335 9.34668 42.2257 9.34668 44.0805C9.34668 46.562 10.061 48.492 11.4897 49.8705C12.8934 51.2491 14.8485 51.9384 17.355 51.9384C19.3602 51.9384 21.6912 51.4496 24.3481 50.4721C27.0301 49.4946 29.5241 48.2413 31.8301 46.7123C33.334 45.6095 34.7878 44.4565 36.1914 43.2534C37.5951 42.0502 38.9862 40.7092 40.3647 39.2304C41.6681 37.8017 43.0091 36.3103 44.3877 34.7563C45.3652 33.6534 46.443 32.3751 47.6211 30.9213L48.749 29.3046ZM66.9463 7.94916H67.0967L67.2471 7.79877C69.7786 5.6181 71.6209 4.21446 72.7739 3.58783L72.4731 3.66302C70.2173 4.1142 68.1118 4.33978 66.1567 4.33978C63.7505 4.33978 61.3944 4.13926 59.0884 3.73822L55.5542 3.09906C52.7218 2.54763 50.2529 2.27191 48.1475 2.27191C44.9141 2.27191 41.7684 2.79828 38.7104 3.85101C35.6776 4.90375 33.2337 6.29486 31.3789 8.02435C29.5241 9.80398 28.5967 11.6087 28.5967 13.4384C28.5967 13.8645 28.6468 14.1904 28.7471 14.416L28.8975 14.2656C31.805 12.3606 34.6499 10.8442 37.4321 9.71625C40.1141 8.63845 42.4577 8.09955 44.4629 8.09955C46.0921 8.09955 47.408 8.52566 48.4106 9.37787C49.4132 10.2301 49.9146 11.3455 49.9146 12.7241C49.9146 14.4786 49.3631 16.4337 48.2603 18.5893C47.1323 20.77 45.5282 22.9757 43.4478 25.2065L43.2974 25.3569C43.3726 25.3569 43.4352 25.3694 43.4854 25.3945C43.5605 25.3945 43.6107 25.407 43.6357 25.4321C43.7109 25.4321 43.7736 25.4446 43.8237 25.4697C43.8989 25.4697 43.9491 25.4822 43.9741 25.5073C44.1245 25.5574 44.2122 25.5825 44.2373 25.5825C44.2874 25.5825 44.325 25.595 44.3501 25.6201C44.4002 25.6201 44.4378 25.6326 44.4629 25.6577L45.5908 25.996C45.6911 26.0211 46.9569 26.2968 49.3882 26.8232C49.5386 26.8482 49.7391 26.8858 49.9897 26.936C50.09 26.961 50.2655 26.9986 50.5161 27.0488L51.2305 26.2216L51.832 25.3569C51.9574 25.2315 52.3835 24.7052 53.1104 23.7778C53.6367 23.0509 54.3385 22.1611 55.2158 21.1083C55.4915 20.7574 55.8424 20.2937 56.2686 19.7172C56.7197 19.1407 57.0456 18.7272 57.2461 18.4765C57.8226 17.7496 58.1234 17.3736 58.1484 17.3486C61.0059 13.8896 63.6753 11.0447 66.1567 8.8139L66.3071 8.66351C64.0513 8.73871 61.8455 9.40293 59.6899 10.6562C57.5343 11.9094 55.7171 13.5763 54.2383 15.6567L53.6743 15.3559C54.4263 14.0525 55.5667 12.7993 57.0957 11.5961C58.5996 10.4431 60.1912 9.55332 61.8706 8.9267C63.6252 8.275 65.3171 7.94916 66.9463 7.94916ZM52.5464 27.4623C54.5516 27.8634 56.444 28.0639 58.2236 28.0639C59.9281 28.0639 61.7829 27.8258 63.7881 27.3495L64.0137 27.2744C64.515 26.4221 64.7656 25.5825 64.7656 24.7553C64.7656 22.4995 63.2241 21.3715 60.1411 21.3715C59.5145 21.3715 58.8503 21.3966 58.1484 21.4467L58.5996 20.582H59.4644C61.1938 20.582 62.6351 20.4692 63.7881 20.2436C64.916 20.0681 66.069 19.6922 67.2471 19.1157C68.4251 18.5642 69.5531 17.8749 70.6309 17.0478C71.6335 16.3209 73.0747 15.0927 74.9546 13.3632C74.5034 12.0097 73.6512 10.9194 72.3979 10.0922C71.1447 9.29014 69.5531 8.8139 67.623 8.66351L67.4727 8.8139C66.6455 9.64105 65.4173 11.0572 63.7881 13.0624C63.6878 13.2128 63.4497 13.5011 63.0737 13.9272C62.7228 14.3282 61.7954 15.4436 60.2915 17.2734C59.8905 17.7997 59.3766 18.464 58.75 19.2661C58.1986 19.9679 57.8226 20.4566 57.6221 20.7324L53.1479 26.5976L52.6216 27.2744C52.6216 27.2493 52.5965 27.312 52.5464 27.4623ZM19.498 21.6723L19.6484 21.5219H19.0469C15.613 21.5219 12.5926 21.8979 9.98584 22.6498C7.32894 23.4519 5.29867 24.5297 3.89502 25.8832C2.44124 27.2618 1.71436 28.866 1.71436 30.6957C1.71436 32.1996 2.31592 33.5532 3.51904 34.7563C4.72217 35.9594 6.3514 36.8618 8.40674 37.4633L8.70752 37.5385L8.93311 37.6137V37.3881C9.78532 34.5558 11.0636 31.8738 12.7681 29.3422C14.4976 26.7856 16.7409 24.2289 19.498 21.6723ZM8.70752 38.3657C8.65739 38.3155 8.58219 38.2905 8.48193 38.2905L8.18115 38.2153C5.95036 37.5886 4.1582 36.5986 2.80469 35.2451C1.5013 33.9417 0.849609 32.4252 0.849609 30.6957C0.849609 28.8159 1.6141 27.1114 3.14307 25.5825C4.64697 24.0786 6.79004 22.888 9.57227 22.0107C12.2793 21.1585 15.4124 20.7324 18.9717 20.7324C19.3477 20.7324 19.7863 20.7574 20.2876 20.8076H20.5132L20.6636 20.6572C22.3179 19.2285 23.6714 18.1005 24.7241 17.2734C26.228 16.1454 27.1554 15.4562 27.5063 15.2055L28.1079 14.8295C27.9575 14.3282 27.8823 13.8896 27.8823 13.5136C27.8823 12.3606 28.2082 11.1951 28.8599 10.017C29.5116 8.86403 30.4264 7.8113 31.6045 6.85883C32.7324 5.90635 34.2363 4.99148 36.1162 4.1142C37.6201 3.41237 39.0739 2.86094 40.4775 2.4599C41.9062 2.03379 43.4227 1.68288 45.0269 1.40717C46.5057 1.15651 48.0597 1.03119 49.689 1.03119C51.4686 1.03119 53.3861 1.18158 55.4414 1.48236C55.5667 1.48236 56.256 1.62022 57.5093 1.89594C58.7625 2.17165 59.8779 2.4223 60.8555 2.64789C62.5098 2.97373 63.8633 3.19932 64.916 3.32465C66.0439 3.44997 66.9964 3.51263 67.7734 3.51263C69.3024 3.51263 70.7812 3.32465 72.21 2.94867C73.5384 2.64789 75.293 2.03379 77.4736 1.10638L77.624 1.55756C77.3734 1.78314 76.8846 2.04633 76.1577 2.34711C74.9546 2.89854 73.5885 3.72569 72.0596 4.82855C70.5055 5.95648 69.2272 7.02175 68.2246 8.02435C69.9792 8.17474 71.5081 8.67605 72.8115 9.52826C74.0648 10.3805 74.9797 11.4959 75.5562 12.8745L76.4961 12.0473L77.3984 11.1826C79.8047 8.95176 81.5718 7.37266 82.6997 6.44525C83.8276 5.49278 85.0684 4.59043 86.4219 3.73822C88.8031 2.18418 90.8835 1.40717 92.6631 1.40717C93.4902 1.40717 94.167 1.59515 94.6934 1.97113C95.2197 2.37217 95.4829 2.93614 95.4829 3.66302C95.4829 4.5403 95.1571 5.37998 94.5054 6.18207L93.8662 5.80609C94.4427 5.02907 94.731 4.31472 94.731 3.66302C94.731 3.16172 94.543 2.78575 94.167 2.5351C93.766 2.25938 93.2646 2.12152 92.6631 2.12152C90.0312 2.12152 86.5096 4.25205 82.0981 8.51312L78.188 12.3481C77.9624 12.5235 77.7368 12.7115 77.5112 12.912C77.2856 13.0875 77.0726 13.263 76.8721 13.4384C76.471 13.7643 76.2078 13.9898 76.0825 14.1152L75.9321 14.2656C76.0324 14.6415 76.0825 15.1804 76.0825 15.8823C76.0825 18.3136 75.105 20.6446 73.1499 22.8754C71.1698 25.0812 68.5881 26.7104 65.4048 27.7631C64.728 29.3422 62.8983 31.8487 59.9155 35.2827L56.5317 39.2304C54.8524 41.1103 53.6242 42.8022 52.8472 44.3061C52.5965 44.7071 52.4712 45.0956 52.4712 45.4716C52.4712 46.1734 52.7469 46.5244 53.2983 46.5244C54.2257 46.5244 55.6795 45.622 57.6597 43.8173C59.5145 42.163 61.7578 39.7317 64.3896 36.5234L64.9912 35.7714L65.5552 36.2226C65.48 36.2978 65.4173 36.3605 65.3672 36.4106C65.3421 36.4607 65.292 36.5234 65.2168 36.5986C65.1667 36.6487 65.1165 36.6988 65.0664 36.749C65.0163 36.7991 64.9661 36.8492 64.916 36.8994L63.2993 38.9296C60.9683 41.787 58.8628 43.9426 56.9829 45.3964C55.5291 46.6747 54.3009 47.3139 53.2983 47.3139C52.02 47.3139 51.3809 46.5745 51.3809 45.0956C51.3809 44.0178 51.9323 42.6267 53.0352 40.9223C54.113 39.2429 55.9427 36.962 58.5244 34.0795C61.2064 30.9715 62.798 29.0665 63.2993 28.3647L63.3745 28.2143C61.6951 28.6153 59.9782 28.8159 58.2236 28.8159C56.6696 28.8159 54.5892 28.5903 51.9824 28.1391L51.832 28.2895C50.3281 30.2446 48.8618 32.0493 47.4331 33.7036C46.0044 35.3328 44.513 36.9244 42.959 38.4785C39.9261 41.5113 36.9058 44.093 33.8979 46.2236C30.9653 48.304 28.0703 49.9081 25.2129 51.0361C22.4056 52.1389 19.7863 52.6904 17.355 52.6904C14.4976 52.6904 12.2542 51.8006 10.625 50.0209C8.99577 48.2413 8.18115 45.8225 8.18115 42.7646C8.18115 41.3108 8.35661 39.8445 8.70752 38.3657Z" fill="#285365"/>
<path d="M75.3306 14.8295L75.1802 14.9799C73.5008 16.3334 72.0972 17.3736 70.9692 18.1005C69.7411 18.9026 68.4627 19.5543 67.1343 20.0556C65.8058 20.5569 64.4272 20.9203 62.9985 21.1459C64.9536 21.7726 65.9312 23.1261 65.9312 25.2065C65.9312 25.6827 65.856 26.2216 65.7056 26.8232C68.6382 25.7454 70.9818 24.2039 72.7363 22.1987C74.516 20.1433 75.4058 17.9877 75.4058 15.7319C75.4058 15.4812 75.3807 15.1804 75.3306 14.8295ZM22.4307 20.7324L22.2051 20.8828H22.4307C23.709 20.983 25.3132 21.1961 27.2432 21.5219C28.8724 21.8478 30.9904 22.2989 33.5972 22.8754C36.1789 23.5021 38.7982 24.1788 41.4551 24.9057L41.9814 25.0561L42.5078 25.2065L42.6582 25.0561C44.5882 23.0008 46.1548 20.8577 47.3579 18.6269C48.4858 16.4713 49.0498 14.5287 49.0498 12.7993C49.0498 11.5961 48.6362 10.6437 47.8091 9.94183C47.007 9.24001 45.8665 8.8891 44.3877 8.8891C42.3073 8.8891 40.0389 9.3904 37.5825 10.393C35.1763 11.3455 32.3815 12.8995 29.1982 15.0551L28.9727 15.2055C29.9753 16.9601 31.7925 17.8373 34.4243 17.8373C36.229 17.8373 38.0337 17.4363 39.8384 16.6342C41.5679 15.8572 43.0467 14.7418 44.2749 13.288L44.9141 13.5888C43.6859 15.1178 42.1318 16.3334 40.252 17.2358C38.3721 18.1381 36.4295 18.5893 34.4243 18.5893C31.4666 18.5893 29.474 17.6118 28.4463 15.6567C26.0902 17.311 24.085 19.0029 22.4307 20.7324ZM10.5498 37.6889L10.4746 37.9145C11.8031 38.115 13.0939 38.2153 14.3472 38.2153C17.5054 38.2153 20.7513 37.6889 24.085 36.6362C27.4186 35.5834 30.7397 34.0294 34.0483 31.9741C35.853 30.8712 37.3945 29.8059 38.6729 28.7783C40.0264 27.6754 41.1042 26.6979 41.9062 25.8456L41.1543 25.6577C37.5199 24.6049 34.512 23.8154 32.1309 23.289C28.321 22.4368 24.8745 21.8979 21.7915 21.6723L21.5659 21.5971L20.5884 22.6874L19.6484 23.665C17.3424 26.1715 15.4751 28.5276 14.0464 30.7333C12.5926 32.9391 11.4271 35.2576 10.5498 37.6889ZM48.749 29.3046L49.9897 27.7631L49.7642 27.6879C49.6639 27.6629 49.501 27.6253 49.2754 27.5751C49.0749 27.525 48.8368 27.4749 48.561 27.4247C48.2853 27.3495 48.0597 27.2994 47.8843 27.2744C47.7339 27.2242 47.5083 27.1741 47.2075 27.124C46.7062 27.0237 46.3678 26.961 46.1924 26.936C46.042 26.8858 45.8665 26.8482 45.666 26.8232C45.4906 26.7731 45.3903 26.748 45.3652 26.748L43.2222 26.2216C43.1971 26.2216 43.147 26.2091 43.0718 26.184C43.0216 26.1339 42.9214 26.0963 42.771 26.0712C40.2144 28.7031 37.3695 30.9589 34.2363 32.8388C31.0531 34.7438 27.6818 36.2477 24.1226 37.3505C20.5382 38.4534 17.2046 39.0048 14.1216 39.0048C12.7931 39.0048 11.5023 38.9046 10.249 38.704C9.64746 40.4335 9.34668 42.2257 9.34668 44.0805C9.34668 46.562 10.061 48.492 11.4897 49.8705C12.8934 51.2491 14.8485 51.9384 17.355 51.9384C19.3602 51.9384 21.6912 51.4496 24.3481 50.4721C27.0301 49.4946 29.5241 48.2413 31.8301 46.7123C33.334 45.6095 34.7878 44.4565 36.1914 43.2534C37.5951 42.0502 38.9862 40.7092 40.3647 39.2304C41.6681 37.8017 43.0091 36.3103 44.3877 34.7563C45.3652 33.6534 46.443 32.3751 47.6211 30.9213L48.749 29.3046ZM66.9463 7.94916H67.0967L67.2471 7.79877C69.7786 5.6181 71.6209 4.21446 72.7739 3.58783L72.4731 3.66302C70.2173 4.1142 68.1118 4.33978 66.1567 4.33978C63.7505 4.33978 61.3944 4.13926 59.0884 3.73822L55.5542 3.09906C52.7218 2.54763 50.2529 2.27191 48.1475 2.27191C44.9141 2.27191 41.7684 2.79828 38.7104 3.85101C35.6776 4.90375 33.2337 6.29486 31.3789 8.02435C29.5241 9.80398 28.5967 11.6087 28.5967 13.4384C28.5967 13.8645 28.6468 14.1904 28.7471 14.416L28.8975 14.2656C31.805 12.3606 34.6499 10.8442 37.4321 9.71625C40.1141 8.63845 42.4577 8.09955 44.4629 8.09955C46.0921 8.09955 47.408 8.52566 48.4106 9.37787C49.4132 10.2301 49.9146 11.3455 49.9146 12.7241C49.9146 14.4786 49.3631 16.4337 48.2603 18.5893C47.1323 20.77 45.5282 22.9757 43.4478 25.2065L43.2974 25.3569C43.3726 25.3569 43.4352 25.3694 43.4854 25.3945C43.5605 25.3945 43.6107 25.407 43.6357 25.4321C43.7109 25.4321 43.7736 25.4446 43.8237 25.4697C43.8989 25.4697 43.9491 25.4822 43.9741 25.5073C44.1245 25.5574 44.2122 25.5825 44.2373 25.5825C44.2874 25.5825 44.325 25.595 44.3501 25.6201C44.4002 25.6201 44.4378 25.6326 44.4629 25.6577L45.5908 25.996C45.6911 26.0211 46.9569 26.2968 49.3882 26.8232C49.5386 26.8482 49.7391 26.8858 49.9897 26.936C50.09 26.961 50.2655 26.9986 50.5161 27.0488L51.2305 26.2216L51.832 25.3569C51.9574 25.2315 52.3835 24.7052 53.1104 23.7778C53.6367 23.0509 54.3385 22.1611 55.2158 21.1083C55.4915 20.7574 55.8424 20.2937 56.2686 19.7172C56.7197 19.1407 57.0456 18.7272 57.2461 18.4765C57.8226 17.7496 58.1234 17.3736 58.1484 17.3486C61.0059 13.8896 63.6753 11.0447 66.1567 8.8139L66.3071 8.66351C64.0513 8.73871 61.8455 9.40293 59.6899 10.6562C57.5343 11.9094 55.7171 13.5763 54.2383 15.6567L53.6743 15.3559C54.4263 14.0525 55.5667 12.7993 57.0957 11.5961C58.5996 10.4431 60.1912 9.55332 61.8706 8.9267C63.6252 8.275 65.3171 7.94916 66.9463 7.94916ZM52.5464 27.4623C54.5516 27.8634 56.444 28.0639 58.2236 28.0639C59.9281 28.0639 61.7829 27.8258 63.7881 27.3495L64.0137 27.2744C64.515 26.4221 64.7656 25.5825 64.7656 24.7553C64.7656 22.4995 63.2241 21.3715 60.1411 21.3715C59.5145 21.3715 58.8503 21.3966 58.1484 21.4467L58.5996 20.582H59.4644C61.1938 20.582 62.6351 20.4692 63.7881 20.2436C64.916 20.0681 66.069 19.6922 67.2471 19.1157C68.4251 18.5642 69.5531 17.8749 70.6309 17.0478C71.6335 16.3209 73.0747 15.0927 74.9546 13.3632C74.5034 12.0097 73.6512 10.9194 72.3979 10.0922C71.1447 9.29014 69.5531 8.8139 67.623 8.66351L67.4727 8.8139C66.6455 9.64105 65.4173 11.0572 63.7881 13.0624C63.6878 13.2128 63.4497 13.5011 63.0737 13.9272C62.7228 14.3282 61.7954 15.4436 60.2915 17.2734C59.8905 17.7997 59.3766 18.464 58.75 19.2661C58.1986 19.9679 57.8226 20.4566 57.6221 20.7324L53.1479 26.5976L52.6216 27.2744C52.6216 27.2493 52.5965 27.312 52.5464 27.4623ZM19.498 21.6723L19.6484 21.5219H19.0469C15.613 21.5219 12.5926 21.8979 9.98584 22.6498C7.32894 23.4519 5.29867 24.5297 3.89502 25.8832C2.44124 27.2618 1.71436 28.866 1.71436 30.6957C1.71436 32.1996 2.31592 33.5532 3.51904 34.7563C4.72217 35.9594 6.3514 36.8618 8.40674 37.4633L8.70752 37.5385L8.93311 37.6137V37.3881C9.78532 34.5558 11.0636 31.8738 12.7681 29.3422C14.4976 26.7856 16.7409 24.2289 19.498 21.6723ZM8.70752 38.3657C8.65739 38.3155 8.58219 38.2905 8.48193 38.2905L8.18115 38.2153C5.95036 37.5886 4.1582 36.5986 2.80469 35.2451C1.5013 33.9417 0.849609 32.4252 0.849609 30.6957C0.849609 28.8159 1.6141 27.1114 3.14307 25.5825C4.64697 24.0786 6.79004 22.888 9.57227 22.0107C12.2793 21.1585 15.4124 20.7324 18.9717 20.7324C19.3477 20.7324 19.7863 20.7574 20.2876 20.8076H20.5132L20.6636 20.6572C22.3179 19.2285 23.6714 18.1005 24.7241 17.2734C26.228 16.1454 27.1554 15.4562 27.5063 15.2055L28.1079 14.8295C27.9575 14.3282 27.8823 13.8896 27.8823 13.5136C27.8823 12.3606 28.2082 11.1951 28.8599 10.017C29.5116 8.86403 30.4264 7.8113 31.6045 6.85883C32.7324 5.90635 34.2363 4.99148 36.1162 4.1142C37.6201 3.41237 39.0739 2.86094 40.4775 2.4599C41.9062 2.03379 43.4227 1.68288 45.0269 1.40717C46.5057 1.15651 48.0597 1.03119 49.689 1.03119C51.4686 1.03119 53.3861 1.18158 55.4414 1.48236C55.5667 1.48236 56.256 1.62022 57.5093 1.89594C58.7625 2.17165 59.8779 2.4223 60.8555 2.64789C62.5098 2.97373 63.8633 3.19932 64.916 3.32465C66.0439 3.44997 66.9964 3.51263 67.7734 3.51263C69.3024 3.51263 70.7812 3.32465 72.21 2.94867C73.5384 2.64789 75.293 2.03379 77.4736 1.10638L77.624 1.55756C77.3734 1.78314 76.8846 2.04633 76.1577 2.34711C74.9546 2.89854 73.5885 3.72569 72.0596 4.82855C70.5055 5.95648 69.2272 7.02175 68.2246 8.02435C69.9792 8.17474 71.5081 8.67605 72.8115 9.52826C74.0648 10.3805 74.9797 11.4959 75.5562 12.8745L76.4961 12.0473L77.3984 11.1826C79.8047 8.95176 81.5718 7.37266 82.6997 6.44525C83.8276 5.49278 85.0684 4.59043 86.4219 3.73822C88.8031 2.18418 90.8835 1.40717 92.6631 1.40717C93.4902 1.40717 94.167 1.59515 94.6934 1.97113C95.2197 2.37217 95.4829 2.93614 95.4829 3.66302C95.4829 4.5403 95.1571 5.37998 94.5054 6.18207L93.8662 5.80609C94.4427 5.02907 94.731 4.31472 94.731 3.66302C94.731 3.16172 94.543 2.78575 94.167 2.5351C93.766 2.25938 93.2646 2.12152 92.6631 2.12152C90.0312 2.12152 86.5096 4.25205 82.0981 8.51312L78.188 12.3481C77.9624 12.5235 77.7368 12.7115 77.5112 12.912C77.2856 13.0875 77.0726 13.263 76.8721 13.4384C76.471 13.7643 76.2078 13.9898 76.0825 14.1152L75.9321 14.2656C76.0324 14.6415 76.0825 15.1804 76.0825 15.8823C76.0825 18.3136 75.105 20.6446 73.1499 22.8754C71.1698 25.0812 68.5881 26.7104 65.4048 27.7631C64.728 29.3422 62.8983 31.8487 59.9155 35.2827L56.5317 39.2304C54.8524 41.1103 53.6242 42.8022 52.8472 44.3061C52.5965 44.7071 52.4712 45.0956 52.4712 45.4716C52.4712 46.1734 52.7469 46.5244 53.2983 46.5244C54.2257 46.5244 55.6795 45.622 57.6597 43.8173C59.5145 42.163 61.7578 39.7317 64.3896 36.5234L64.9912 35.7714L65.5552 36.2226C65.48 36.2978 65.4173 36.3605 65.3672 36.4106C65.3421 36.4607 65.292 36.5234 65.2168 36.5986C65.1667 36.6487 65.1165 36.6988 65.0664 36.749C65.0163 36.7991 64.9661 36.8492 64.916 36.8994L63.2993 38.9296C60.9683 41.787 58.8628 43.9426 56.9829 45.3964C55.5291 46.6747 54.3009 47.3139 53.2983 47.3139C52.02 47.3139 51.3809 46.5745 51.3809 45.0956C51.3809 44.0178 51.9323 42.6267 53.0352 40.9223C54.113 39.2429 55.9427 36.962 58.5244 34.0795C61.2064 30.9715 62.798 29.0665 63.2993 28.3647L63.3745 28.2143C61.6951 28.6153 59.9782 28.8159 58.2236 28.8159C56.6696 28.8159 54.5892 28.5903 51.9824 28.1391L51.832 28.2895C50.3281 30.2446 48.8618 32.0493 47.4331 33.7036C46.0044 35.3328 44.513 36.9244 42.959 38.4785C39.9261 41.5113 36.9058 44.093 33.8979 46.2236C30.9653 48.304 28.0703 49.9081 25.2129 51.0361C22.4056 52.1389 19.7863 52.6904 17.355 52.6904C14.4976 52.6904 12.2542 51.8006 10.625 50.0209C8.99577 48.2413 8.18115 45.8225 8.18115 42.7646C8.18115 41.3108 8.35661 39.8445 8.70752 38.3657Z" stroke="#285365" stroke-width="0.6" mask="url(#path-2-outside-1_6_771)"/>
</svg>
