<svg width="504" height="442" viewBox="0 0 504 442" fill="none" xmlns="http://www.w3.org/2000/svg">
<g filter="url(#filter0_f_318_1961)">
<ellipse cx="269.391" cy="220.878" rx="118.901" ry="122.45" transform="rotate(-17.4438 269.391 220.878)" fill="#B6D3DE"/>
</g>
<g filter="url(#filter1_f_318_1961)">
<path d="M211.933 123.249C271.825 104.479 335.638 137.691 354.458 197.427C369.515 245.222 342.88 296.132 294.961 311.15C256.628 323.163 215.785 301.906 203.74 263.673C194.103 233.084 211.154 200.504 241.815 190.895C266.35 183.206 292.485 196.808 300.194 221.279C306.362 240.856 295.451 261.711 275.823 267.862C260.125 272.782 243.396 264.075 238.463 248.418C234.515 235.888 241.502 222.544 254.058 218.61C264.107 215.46 274.815 221.034 277.973 231.056C280.5 239.078 276.026 247.616 267.992 250.134" stroke="#B3D2DC" stroke-opacity="0.8" stroke-width="12" stroke-miterlimit="10"/>
</g>
<path d="M445.001 95.0251C450.318 103.258 450.359 114.444 445.721 127.725C441.085 140.999 431.802 156.277 418.624 172.594C392.272 205.225 350.415 241.921 299.297 274.932C248.178 307.943 197.511 330.997 156.929 341.592C136.635 346.89 118.89 349.065 104.885 347.83C90.8714 346.593 80.6933 341.954 75.3764 333.721C70.0595 325.487 70.0182 314.302 74.6567 301.02C79.2926 287.747 88.5753 272.469 101.753 256.151C128.106 223.521 169.962 186.824 221.081 153.813C272.199 120.802 322.866 97.7491 363.449 87.1542C383.743 81.856 401.487 79.6807 415.493 80.9162C429.506 82.1524 439.684 86.7917 445.001 95.0251Z" stroke="#D3ECF4" stroke-opacity="0.7"/>
<path d="M470.307 224.541C470.155 231.636 464.921 238.398 455.304 244.535C445.706 250.66 431.858 256.085 414.749 260.53C380.539 269.42 333.406 274.368 281.466 273.256C229.525 272.143 182.647 265.181 148.849 254.835C131.947 249.661 118.344 243.649 109.017 237.118C99.6715 230.575 94.7311 223.594 94.8831 216.5C95.035 209.406 100.27 202.644 109.887 196.506C119.485 190.381 133.333 184.957 150.441 180.512C184.651 171.622 231.784 166.673 283.725 167.786C335.666 168.898 382.543 175.861 416.341 186.207C433.244 191.381 446.847 197.393 456.174 203.924C465.519 210.467 470.459 217.447 470.307 224.541Z" stroke="#D3ECF4" stroke-opacity="0.7"/>
<path d="M443.645 123.628L445.678 133.574L455.624 135.607L445.678 137.64L443.645 147.586L441.612 137.64L431.666 135.607L441.612 133.574L443.645 123.628Z" fill="#D3ECF4" fill-opacity="0.8"/>
<path d="M223.02 147.625L223.848 151.678L227.9 152.506L223.848 153.334L223.02 157.386L222.192 153.334L218.14 152.506L222.192 151.678L223.02 147.625Z" fill="#D3ECF4" fill-opacity="0.8"/>
<path d="M190.181 323.387L191.611 330.386L198.61 331.816L191.611 333.247L190.181 340.246L188.75 333.247L181.751 331.816L188.75 330.386L190.181 323.387Z" fill="#D3ECF4" fill-opacity="0.8"/>
<g filter="url(#filter2_f_318_1961)">
<path d="M211.933 123.249C271.825 104.479 335.638 137.691 354.458 197.427C369.515 245.222 342.88 296.132 294.961 311.15C256.628 323.163 215.785 301.906 203.74 263.673C194.103 233.084 211.154 200.504 241.815 190.895C266.35 183.206 292.485 196.808 300.194 221.279C306.362 240.856 295.451 261.711 275.823 267.862C260.125 272.782 243.396 264.075 238.463 248.418C234.515 235.888 241.502 222.544 254.058 218.61C264.107 215.46 274.815 221.034 277.973 231.056C280.5 239.078 276.026 247.616 267.992 250.134" stroke="white" stroke-opacity="0.89" stroke-miterlimit="10"/>
</g>
<path d="M211.933 123.249C271.825 104.479 335.638 137.691 354.458 197.427C369.515 245.222 342.88 296.132 294.961 311.15C256.628 323.163 215.785 301.906 203.74 263.673C194.103 233.084 211.154 200.504 241.815 190.895C266.35 183.206 292.485 196.808 300.194 221.279C306.362 240.856 295.451 261.711 275.823 267.862C260.125 272.782 243.396 264.075 238.463 248.418C234.515 235.888 241.502 222.544 254.058 218.61C264.107 215.46 274.815 221.034 277.973 231.056C280.5 239.078 276.026 247.616 267.992 250.134" stroke="white" stroke-opacity="0.39" stroke-miterlimit="10"/>
<defs>
<filter id="filter0_f_318_1961" x="52.1348" y="0.709839" width="434.512" height="440.335" filterUnits="userSpaceOnUse" color-interpolation-filters="sRGB">
<feFlood flood-opacity="0" result="BackgroundImageFix"/>
<feBlend mode="normal" in="SourceGraphic" in2="BackgroundImageFix" result="shape"/>
<feGaussianBlur stdDeviation="49" result="effect1_foregroundBlur_318_1961"/>
</filter>
<filter id="filter1_f_318_1961" x="189.043" y="106.006" width="181.627" height="220.498" filterUnits="userSpaceOnUse" color-interpolation-filters="sRGB">
<feFlood flood-opacity="0" result="BackgroundImageFix"/>
<feBlend mode="normal" in="SourceGraphic" in2="BackgroundImageFix" result="shape"/>
<feGaussianBlur stdDeviation="3" result="effect1_foregroundBlur_318_1961"/>
</filter>
<filter id="filter2_f_318_1961" x="197.547" y="114.505" width="164.619" height="203.501" filterUnits="userSpaceOnUse" color-interpolation-filters="sRGB">
<feFlood flood-opacity="0" result="BackgroundImageFix"/>
<feBlend mode="normal" in="SourceGraphic" in2="BackgroundImageFix" result="shape"/>
<feGaussianBlur stdDeviation="1.5" result="effect1_foregroundBlur_318_1961"/>
</filter>
</defs>
</svg>
